%TF.GenerationSoftware,KiCad,Pcbnew,8.0.6-8.0.6-0~ubuntu24.04.1*%
%TF.CreationDate,2025-02-19T13:10:04-10:00*%
%TF.ProjectId,board_main,626f6172-645f-46d6-9169-6e2e6b696361,rev?*%
%TF.SameCoordinates,Original*%
%TF.FileFunction,Paste,Top*%
%TF.FilePolarity,Positive*%
%FSLAX46Y46*%
G04 Gerber Fmt 4.6, Leading zero omitted, Abs format (unit mm)*
G04 Created by KiCad (PCBNEW 8.0.6-8.0.6-0~ubuntu24.04.1) date 2025-02-19 13:10:04*
%MOMM*%
%LPD*%
G01*
G04 APERTURE LIST*
G04 Aperture macros list*
%AMRoundRect*
0 Rectangle with rounded corners*
0 $1 Rounding radius*
0 $2 $3 $4 $5 $6 $7 $8 $9 X,Y pos of 4 corners*
0 Add a 4 corners polygon primitive as box body*
4,1,4,$2,$3,$4,$5,$6,$7,$8,$9,$2,$3,0*
0 Add four circle primitives for the rounded corners*
1,1,$1+$1,$2,$3*
1,1,$1+$1,$4,$5*
1,1,$1+$1,$6,$7*
1,1,$1+$1,$8,$9*
0 Add four rect primitives between the rounded corners*
20,1,$1+$1,$2,$3,$4,$5,0*
20,1,$1+$1,$4,$5,$6,$7,0*
20,1,$1+$1,$6,$7,$8,$9,0*
20,1,$1+$1,$8,$9,$2,$3,0*%
G04 Aperture macros list end*
%ADD10C,0.000000*%
%ADD11RoundRect,0.135000X-0.135000X-0.185000X0.135000X-0.185000X0.135000X0.185000X-0.135000X0.185000X0*%
%ADD12R,1.676400X0.355600*%
%ADD13RoundRect,0.242500X-0.242500X-0.242500X0.242500X-0.242500X0.242500X0.242500X-0.242500X0.242500X0*%
%ADD14RoundRect,0.062500X-0.337500X-0.062500X0.337500X-0.062500X0.337500X0.062500X-0.337500X0.062500X0*%
%ADD15RoundRect,0.062500X-0.062500X-0.337500X0.062500X-0.337500X0.062500X0.337500X-0.062500X0.337500X0*%
%ADD16RoundRect,0.135000X0.185000X-0.135000X0.185000X0.135000X-0.185000X0.135000X-0.185000X-0.135000X0*%
%ADD17R,0.558800X1.981200*%
%ADD18RoundRect,0.140000X-0.140000X-0.170000X0.140000X-0.170000X0.140000X0.170000X-0.140000X0.170000X0*%
%ADD19RoundRect,0.135000X-0.185000X0.135000X-0.185000X-0.135000X0.185000X-0.135000X0.185000X0.135000X0*%
%ADD20R,0.965200X0.939800*%
%ADD21R,0.449999X0.299999*%
%ADD22R,1.000000X1.599999*%
%ADD23R,0.876300X0.355600*%
%ADD24RoundRect,0.225000X0.250000X-0.225000X0.250000X0.225000X-0.250000X0.225000X-0.250000X-0.225000X0*%
%ADD25RoundRect,0.225000X-0.250000X0.225000X-0.250000X-0.225000X0.250000X-0.225000X0.250000X0.225000X0*%
%ADD26R,0.355600X0.876300*%
%ADD27RoundRect,0.140000X0.170000X-0.140000X0.170000X0.140000X-0.170000X0.140000X-0.170000X-0.140000X0*%
%ADD28RoundRect,0.135000X0.135000X0.185000X-0.135000X0.185000X-0.135000X-0.185000X0.135000X-0.185000X0*%
%ADD29R,0.787400X0.863600*%
%ADD30R,0.787400X0.355600*%
%ADD31RoundRect,0.225000X0.225000X0.250000X-0.225000X0.250000X-0.225000X-0.250000X0.225000X-0.250000X0*%
G04 APERTURE END LIST*
D10*
%TO.C,U1*%
G36*
X96960560Y-76700941D02*
G01*
X96969753Y-76703730D01*
X96978224Y-76708259D01*
X96985648Y-76714353D01*
X96991741Y-76721777D01*
X96996270Y-76730248D01*
X96999059Y-76739440D01*
X97000002Y-76749001D01*
X97000002Y-77351001D01*
X96999059Y-77360562D01*
X96996270Y-77369754D01*
X96991741Y-77378225D01*
X96985648Y-77385649D01*
X96978224Y-77391743D01*
X96969753Y-77396271D01*
X96960560Y-77399060D01*
X96951000Y-77400003D01*
X96049000Y-77400003D01*
X96039440Y-77399060D01*
X96030247Y-77396271D01*
X96021776Y-77391743D01*
X96014352Y-77385649D01*
X96008259Y-77378225D01*
X96003730Y-77369754D01*
X96000941Y-77360562D01*
X95999998Y-77351001D01*
X95999998Y-76749001D01*
X96000941Y-76739440D01*
X96003730Y-76730248D01*
X96008259Y-76721777D01*
X96014352Y-76714353D01*
X96021776Y-76708259D01*
X96030247Y-76703730D01*
X96039440Y-76700941D01*
X96049000Y-76700002D01*
X96951000Y-76700002D01*
X96960560Y-76700941D01*
G37*
G36*
X96960560Y-77600940D02*
G01*
X96969753Y-77603729D01*
X96978224Y-77608257D01*
X96985648Y-77614351D01*
X96991741Y-77621775D01*
X96996270Y-77630246D01*
X96999059Y-77639438D01*
X97000002Y-77648999D01*
X97000002Y-78250999D01*
X96999059Y-78260560D01*
X96996270Y-78269752D01*
X96991741Y-78278223D01*
X96985648Y-78285647D01*
X96978224Y-78291741D01*
X96969753Y-78296270D01*
X96960560Y-78299059D01*
X96951000Y-78299998D01*
X96049000Y-78299998D01*
X96039440Y-78299059D01*
X96030247Y-78296270D01*
X96021776Y-78291741D01*
X96014352Y-78285647D01*
X96008259Y-78278223D01*
X96003730Y-78269752D01*
X96000941Y-78260560D01*
X95999998Y-78250999D01*
X95999998Y-77648999D01*
X96000941Y-77639438D01*
X96003730Y-77630246D01*
X96008259Y-77621775D01*
X96014352Y-77614351D01*
X96021776Y-77608257D01*
X96030247Y-77603729D01*
X96039440Y-77600940D01*
X96049000Y-77599997D01*
X96951000Y-77599997D01*
X96960560Y-77600940D01*
G37*
%TO.C,U4*%
G36*
X142985561Y-71200941D02*
G01*
X142994754Y-71203730D01*
X143003225Y-71208259D01*
X143010649Y-71214353D01*
X143016742Y-71221777D01*
X143021271Y-71230248D01*
X143024060Y-71239440D01*
X143025003Y-71249001D01*
X143025003Y-71851001D01*
X143024060Y-71860562D01*
X143021271Y-71869754D01*
X143016742Y-71878225D01*
X143010649Y-71885649D01*
X143003225Y-71891743D01*
X142994754Y-71896271D01*
X142985561Y-71899060D01*
X142976001Y-71900003D01*
X142074001Y-71900003D01*
X142064441Y-71899060D01*
X142055248Y-71896271D01*
X142046777Y-71891743D01*
X142039353Y-71885649D01*
X142033260Y-71878225D01*
X142028731Y-71869754D01*
X142025942Y-71860562D01*
X142024999Y-71851001D01*
X142024999Y-71249001D01*
X142025942Y-71239440D01*
X142028731Y-71230248D01*
X142033260Y-71221777D01*
X142039353Y-71214353D01*
X142046777Y-71208259D01*
X142055248Y-71203730D01*
X142064441Y-71200941D01*
X142074001Y-71200002D01*
X142976001Y-71200002D01*
X142985561Y-71200941D01*
G37*
G36*
X142985561Y-72100940D02*
G01*
X142994754Y-72103729D01*
X143003225Y-72108257D01*
X143010649Y-72114351D01*
X143016742Y-72121775D01*
X143021271Y-72130246D01*
X143024060Y-72139438D01*
X143025003Y-72148999D01*
X143025003Y-72750999D01*
X143024060Y-72760560D01*
X143021271Y-72769752D01*
X143016742Y-72778223D01*
X143010649Y-72785647D01*
X143003225Y-72791741D01*
X142994754Y-72796270D01*
X142985561Y-72799059D01*
X142976001Y-72799998D01*
X142074001Y-72799998D01*
X142064441Y-72799059D01*
X142055248Y-72796270D01*
X142046777Y-72791741D01*
X142039353Y-72785647D01*
X142033260Y-72778223D01*
X142028731Y-72769752D01*
X142025942Y-72760560D01*
X142024999Y-72750999D01*
X142024999Y-72148999D01*
X142025942Y-72139438D01*
X142028731Y-72130246D01*
X142033260Y-72121775D01*
X142039353Y-72114351D01*
X142046777Y-72108257D01*
X142055248Y-72103729D01*
X142064441Y-72100940D01*
X142074001Y-72099997D01*
X142976001Y-72099997D01*
X142985561Y-72100940D01*
G37*
%TD*%
D11*
%TO.C,R10*%
X106000000Y-87500000D03*
X107020000Y-87500000D03*
%TD*%
D12*
%TO.C,U7*%
X147516200Y-91075000D03*
X147516200Y-91725001D03*
X147516200Y-92374999D03*
X147516200Y-93025001D03*
X147516200Y-93674999D03*
X147516200Y-94324998D03*
X147516200Y-94974999D03*
X147516200Y-95624998D03*
X147516200Y-96274999D03*
X147516200Y-96924998D03*
X153155000Y-96925000D03*
X153155000Y-96275002D03*
X153155000Y-95625001D03*
X153155000Y-94975002D03*
X153155000Y-94325001D03*
X153155000Y-93675002D03*
X153155000Y-93025001D03*
X153155000Y-92375002D03*
X153155000Y-91725001D03*
X153155000Y-91075002D03*
%TD*%
D13*
%TO.C,ADC1*%
X120800000Y-101100000D03*
X120800000Y-102300000D03*
X120800000Y-103500000D03*
X122000000Y-101100000D03*
X122000000Y-102300000D03*
X122000000Y-103500000D03*
X123200000Y-101100000D03*
X123200000Y-102300000D03*
X123200000Y-103500000D03*
D14*
X119550000Y-100550000D03*
X119550000Y-101050000D03*
X119550000Y-101550000D03*
X119550000Y-102050000D03*
X119550000Y-102550000D03*
X119550000Y-103050000D03*
X119550000Y-103550000D03*
X119550000Y-104050000D03*
D15*
X120250000Y-104750000D03*
X120750000Y-104750000D03*
X121250000Y-104750000D03*
X121750000Y-104750000D03*
X122250000Y-104750000D03*
X122750000Y-104750000D03*
X123250000Y-104750000D03*
X123750000Y-104750000D03*
D14*
X124450000Y-104050000D03*
X124450000Y-103550000D03*
X124450000Y-103050000D03*
X124450000Y-102550000D03*
X124450000Y-102050000D03*
X124450000Y-101550000D03*
X124450000Y-101050000D03*
X124450000Y-100550000D03*
D15*
X123750000Y-99850000D03*
X123250000Y-99850000D03*
X122750000Y-99850000D03*
X122250000Y-99850000D03*
X121750000Y-99850000D03*
X121250000Y-99850000D03*
X120750000Y-99850000D03*
X120250000Y-99850000D03*
%TD*%
D12*
%TO.C,U8*%
X147180600Y-105967800D03*
X147180600Y-106617801D03*
X147180600Y-107267799D03*
X147180600Y-107917801D03*
X147180600Y-108567799D03*
X147180600Y-109217798D03*
X147180600Y-109867799D03*
X147180600Y-110517798D03*
X147180600Y-111167799D03*
X147180600Y-111817798D03*
X152819400Y-111817800D03*
X152819400Y-111167802D03*
X152819400Y-110517801D03*
X152819400Y-109867802D03*
X152819400Y-109217801D03*
X152819400Y-108567802D03*
X152819400Y-107917801D03*
X152819400Y-107267802D03*
X152819400Y-106617801D03*
X152819400Y-105967802D03*
%TD*%
D16*
%TO.C,R1*%
X98500000Y-79510000D03*
X98500000Y-78490000D03*
%TD*%
D17*
%TO.C,U5*%
X155310000Y-120072400D03*
X154040000Y-120072400D03*
X152770000Y-120072400D03*
X151500000Y-120072400D03*
X150230000Y-120072400D03*
X148960000Y-120072400D03*
X147690000Y-120072400D03*
X147690000Y-125000000D03*
X148960000Y-125000000D03*
X150230000Y-125000000D03*
X151500000Y-125000000D03*
X152770000Y-125000000D03*
X154040000Y-125000000D03*
X155310000Y-125000000D03*
%TD*%
%TO.C,U6*%
X155310000Y-130036200D03*
X154040000Y-130036200D03*
X152770000Y-130036200D03*
X151500000Y-130036200D03*
X150230000Y-130036200D03*
X148960000Y-130036200D03*
X147690000Y-130036200D03*
X147690000Y-134963800D03*
X148960000Y-134963800D03*
X150230000Y-134963800D03*
X151500000Y-134963800D03*
X152770000Y-134963800D03*
X154040000Y-134963800D03*
X155310000Y-134963800D03*
%TD*%
D18*
%TO.C,C6*%
X107020000Y-76500000D03*
X107980000Y-76500000D03*
%TD*%
D11*
%TO.C,R13*%
X106000000Y-100000000D03*
X107020000Y-100000000D03*
%TD*%
D19*
%TO.C,R3*%
X98500000Y-74990000D03*
X98500000Y-76010000D03*
%TD*%
D16*
%TO.C,R9*%
X132000000Y-76000000D03*
X132000000Y-74980000D03*
%TD*%
D20*
%TO.C,L2*%
X139249300Y-69500000D03*
X137750700Y-69500000D03*
%TD*%
D21*
%TO.C,U1*%
X97474999Y-78150001D03*
X97474999Y-77500000D03*
X97474999Y-76850001D03*
X95525001Y-76850001D03*
X95525001Y-77500000D03*
X95525001Y-78150001D03*
D22*
X96500000Y-77500000D03*
%TD*%
D23*
%TO.C,U3*%
X105000000Y-80799998D03*
X105000000Y-80149999D03*
X105000000Y-79500000D03*
X107222500Y-79500000D03*
X107222500Y-80149999D03*
X107222500Y-80799998D03*
%TD*%
D24*
%TO.C,C9*%
X141500000Y-69775000D03*
X141500000Y-68225000D03*
%TD*%
D25*
%TO.C,C2*%
X94000000Y-77950000D03*
X94000000Y-79500000D03*
%TD*%
D19*
%TO.C,R18*%
X130500000Y-79490000D03*
X130500000Y-80510000D03*
%TD*%
D11*
%TO.C,R14*%
X105990000Y-102500000D03*
X107010000Y-102500000D03*
%TD*%
D26*
%TO.C,U2*%
X106350001Y-73611250D03*
X107000000Y-73611250D03*
X107649999Y-73611250D03*
X107649999Y-71388750D03*
X107000000Y-71388750D03*
X106350001Y-71388750D03*
%TD*%
D27*
%TO.C,C10*%
X143500000Y-69980000D03*
X143500000Y-69020000D03*
%TD*%
D28*
%TO.C,R7*%
X143010000Y-75500000D03*
X141990000Y-75500000D03*
%TD*%
D16*
%TO.C,R4*%
X103500000Y-80010000D03*
X103500000Y-78990000D03*
%TD*%
D11*
%TO.C,R11*%
X106000000Y-90000000D03*
X107020000Y-90000000D03*
%TD*%
%TO.C,R16*%
X122990000Y-70000000D03*
X124010000Y-70000000D03*
%TD*%
D21*
%TO.C,U4*%
X143500000Y-72650001D03*
X143500000Y-72000000D03*
X143500000Y-71350001D03*
X141550002Y-71350001D03*
X141550002Y-72000000D03*
X141550002Y-72650001D03*
D22*
X142525001Y-72000000D03*
%TD*%
D11*
%TO.C,R15*%
X105980000Y-105000000D03*
X107000000Y-105000000D03*
%TD*%
D29*
%TO.C,R22*%
X156585600Y-107411600D03*
D30*
X156585600Y-108159122D03*
X156585600Y-108652644D03*
X156585600Y-109146166D03*
X156585600Y-109639688D03*
X156585600Y-110133210D03*
X156585600Y-110626732D03*
D29*
X156585600Y-111374000D03*
X158414400Y-111374000D03*
D30*
X158414400Y-110626732D03*
X158414400Y-110133210D03*
X158414400Y-109639688D03*
X158414400Y-109146166D03*
X158414400Y-108652644D03*
X158414400Y-108159122D03*
D29*
X158414400Y-107411600D03*
%TD*%
D25*
%TO.C,C1*%
X90500000Y-77950000D03*
X90500000Y-79500000D03*
%TD*%
D29*
%TO.C,R21*%
X156671200Y-92537600D03*
D30*
X156671200Y-93285122D03*
X156671200Y-93778644D03*
X156671200Y-94272166D03*
X156671200Y-94765688D03*
X156671200Y-95259210D03*
X156671200Y-95752732D03*
D29*
X156671200Y-96500000D03*
X158500000Y-96500000D03*
D30*
X158500000Y-95752732D03*
X158500000Y-95259210D03*
X158500000Y-94765688D03*
X158500000Y-94272166D03*
X158500000Y-93778644D03*
X158500000Y-93285122D03*
D29*
X158500000Y-92537600D03*
%TD*%
D20*
%TO.C,L1*%
X93749300Y-76000000D03*
X92250700Y-76000000D03*
%TD*%
D31*
%TO.C,C8*%
X132275000Y-69000000D03*
X130725000Y-69000000D03*
%TD*%
D29*
%TO.C,R19*%
X142585600Y-91911600D03*
D30*
X142585600Y-92659122D03*
X142585600Y-93152644D03*
X142585600Y-93646166D03*
X142585600Y-94139688D03*
X142585600Y-94633210D03*
X142585600Y-95126732D03*
D29*
X142585600Y-95874000D03*
X144414400Y-95874000D03*
D30*
X144414400Y-95126732D03*
X144414400Y-94633210D03*
X144414400Y-94139688D03*
X144414400Y-93646166D03*
X144414400Y-93152644D03*
X144414400Y-92659122D03*
D29*
X144414400Y-91911600D03*
%TD*%
%TO.C,R20*%
X142171200Y-107158234D03*
D30*
X142171200Y-107905756D03*
X142171200Y-108399278D03*
X142171200Y-108892800D03*
X142171200Y-109386322D03*
X142171200Y-109879844D03*
X142171200Y-110373366D03*
D29*
X142171200Y-111120634D03*
X144000000Y-111120634D03*
D30*
X144000000Y-110373366D03*
X144000000Y-109879844D03*
X144000000Y-109386322D03*
X144000000Y-108892800D03*
X144000000Y-108399278D03*
X144000000Y-107905756D03*
D29*
X144000000Y-107158234D03*
%TD*%
D11*
%TO.C,R12*%
X106000000Y-92500000D03*
X107020000Y-92500000D03*
%TD*%
M02*
