M48
; DRILL file {KiCad 8.0.6-8.0.6-0~ubuntu24.04.1} date 2025-02-19T13:14:57-1000
; FORMAT={-:-/ absolute / inch / decimal}
; #@! TF.CreationDate,2025-02-19T13:14:57-10:00
; #@! TF.GenerationSoftware,Kicad,Pcbnew,8.0.6-8.0.6-0~ubuntu24.04.1
; #@! TF.FileFunction,Plated,1,4,PTH
FMAT,2
INCH
; #@! TA.AperFunction,Plated,PTH,ViaDrill
T1C0.0118
; #@! TA.AperFunction,Plated,PTH,ViaDrill
T2C0.0197
; #@! TA.AperFunction,Plated,PTH,ComponentDrill
T3C0.0315
; #@! TA.AperFunction,Plated,PTH,ComponentDrill
T4C0.0394
; #@! TA.AperFunction,Plated,PTH,ComponentDrill
T5C0.0450
; #@! TA.AperFunction,Plated,PTH,ComponentDrill
T6C0.0480
; #@! TA.AperFunction,Plated,PTH,ComponentDrill
T7C0.0550
%
G90
G05
T1
X3.8583Y-2.9528
X3.9173Y-3.4067
X3.9173Y-3.5067
X3.9173Y-3.6067
X3.9173Y-3.7161
X3.9173Y-3.8067
X3.9173Y-4.0551
X4.0748Y-3.15
X4.1339Y-2.7806
X4.1535Y-3.0118
X4.2126Y-2.8543
X4.2126Y-2.9331
X4.2126Y-3.124
X4.2382Y-2.8106
X4.252Y-3.0315
X4.252Y-3.4449
X4.252Y-3.5433
X4.252Y-3.6417
X4.2527Y-2.9717
X4.2913Y-3.937
X4.2913Y-4.0354
X4.2913Y-4.1339
X4.3898Y-3.4646
X4.3898Y-3.622
X4.3898Y-3.7992
X4.3898Y-3.9764
X4.3898Y-4.1142
X4.3898Y-4.2913
X4.7244Y-3.5433
X4.7312Y-3.8189
X4.757Y-3.7697
X4.8031Y-3.7992
X4.8425Y-3.8189
X4.8819Y-3.9311
X4.9988Y-4.0977
X5.3543Y-3.9173
X5.3937Y-3.937
X5.4331Y-3.9567
X5.4724Y-3.9764
X5.5118Y-3.9961
X5.5512Y-4.0157
X5.6415Y-2.6888
X5.6496Y-2.8346
X5.8268Y-4.8228
X5.9252Y-5.3937
X5.9547Y-4.8524
X5.9941Y-4.7933
X6.0236Y-5.0394
X6.1146Y-5.2559
X6.122Y-4.8425
X6.1417Y-5.0
T2
X3.4843Y-2.5984
X3.6024Y-3.1388
X3.7402Y-2.5984
X3.7795Y-2.7559
X3.7992Y-3.0512
X4.0157Y-2.5984
X4.252Y-2.5984
X4.3189Y-3.2204
X4.3307Y-2.8346
X4.5079Y-2.5984
X4.7441Y-2.5984
X4.7638Y-4.0748
X4.9803Y-2.5984
X5.0Y-3.7064
X5.0591Y-3.189
X5.1772Y-3.189
X5.1969Y-2.8937
X5.2362Y-2.5984
X5.4921Y-2.5984
X5.6102Y-2.8346
X5.6291Y-3.2276
X5.748Y-2.5984
X5.8465Y-5.2165
X5.876Y-3.2579
X5.9055Y-4.1887
X5.9449Y-3.6375
X5.9646Y-5.2165
X6.0039Y-2.5984
X6.0236Y-4.11
X6.0433Y-3.5391
X6.2008Y-4.8819
X6.2205Y-5.3543
X6.2598Y-2.5984
X6.4961Y-2.5984
T3
X4.4984Y-3.437
X4.4984Y-3.537
X4.4984Y-3.637
X4.4984Y-3.737
X4.4984Y-3.837
X4.4984Y-3.937
X4.4984Y-4.037
X4.4984Y-4.137
X4.4984Y-4.237
X4.4984Y-4.337
X4.4984Y-4.437
X4.4984Y-4.537
X4.4984Y-4.637
X4.4984Y-4.737
X4.4984Y-4.837
X4.4984Y-4.937
X5.0984Y-3.437
X5.0984Y-3.537
X5.0984Y-3.637
X5.0984Y-3.737
X5.0984Y-3.837
X5.0984Y-3.937
X5.0984Y-4.037
X5.0984Y-4.137
X5.0984Y-4.237
X5.0984Y-4.337
X5.0984Y-4.437
X5.0984Y-4.537
X5.0984Y-4.637
X5.0984Y-4.737
X5.0984Y-4.837
X5.0984Y-4.937
T4
X3.1102Y-3.2179
X3.1102Y-3.3179
X3.1102Y-3.5157
X3.1102Y-3.6157
X3.1102Y-3.7157
X3.1102Y-3.8157
X3.1102Y-3.9157
X3.1102Y-4.0157
X3.1102Y-4.1157
X3.5811Y-4.0913
X3.5811Y-4.1913
X3.5811Y-4.2913
X3.5811Y-4.3913
X3.5811Y-4.4913
X3.5811Y-4.5913
X3.5827Y-3.3614
X3.5827Y-3.4614
X3.5827Y-3.5614
X3.5827Y-3.6614
X3.5827Y-3.7614
X3.5827Y-3.8614
X3.5827Y-4.8287
X3.5827Y-4.9287
X3.5827Y-5.0287
X3.5827Y-5.1287
X3.5827Y-5.2287
X3.5827Y-5.3287
X3.6811Y-4.0913
X3.6811Y-4.1913
X3.6811Y-4.2913
X3.6811Y-4.3913
X3.6811Y-4.4913
X3.6811Y-4.5913
X3.6827Y-3.3614
X3.6827Y-3.4614
X3.6827Y-3.5614
X3.6827Y-3.6614
X3.6827Y-3.7614
X3.6827Y-3.8614
X3.6827Y-4.8287
X3.6827Y-4.9287
X3.6827Y-5.0287
X3.6827Y-5.1287
X3.6827Y-5.2287
X3.6827Y-5.3287
X4.0051Y-2.9331
X4.1035Y-2.8346
X4.1035Y-3.0315
X4.3398Y-2.9331
X4.399Y-5.2061
X4.399Y-5.3061
X4.4382Y-2.8346
X4.4382Y-3.0315
X4.499Y-5.2061
X4.499Y-5.3061
X4.6547Y-2.9331
X4.7531Y-2.8346
X4.7531Y-3.0315
X4.9697Y-2.9331
X5.0681Y-2.8346
X5.0681Y-3.0315
X5.2846Y-2.9331
X5.3831Y-2.8346
X5.3831Y-3.0315
X5.8449Y-2.9118
X5.8449Y-3.0118
X5.9449Y-2.9118
X5.9449Y-3.0118
X6.0449Y-2.9118
X6.0449Y-3.0118
X6.2992Y-2.9222
X6.2992Y-3.0222
X6.4856Y-5.1667
X6.4856Y-5.2667
X6.5856Y-5.1667
X6.5856Y-5.2667
X6.5945Y-3.1433
X6.5945Y-3.2433
X6.5945Y-3.3433
X6.5945Y-3.4433
X6.5945Y-3.5433
X6.5945Y-3.6433
X6.5945Y-3.7433
X6.5945Y-3.9701
X6.5945Y-4.0701
X6.5945Y-4.1701
X6.5945Y-4.2701
X6.5945Y-4.3701
X6.5945Y-4.4701
X6.5945Y-4.5701
X6.5945Y-4.6701
X6.5945Y-4.7701
T5
X3.1693Y-4.5866
X3.1693Y-5.1772
T6
X3.1102Y-2.5787
X3.1102Y-2.7165
X3.1102Y-2.8543
X3.1102Y-2.9921
T7
X3.0693Y-4.4866
X3.0693Y-4.6866
X3.0693Y-5.0772
X3.0693Y-5.2772
X3.2693Y-4.4866
X3.2693Y-4.6866
X3.2693Y-5.0772
X3.2693Y-5.2772
M30
