%TF.GenerationSoftware,KiCad,Pcbnew,8.0.6-8.0.6-0~ubuntu24.04.1*%
%TF.CreationDate,2025-02-19T12:31:26-10:00*%
%TF.ProjectId,board_main,626f6172-645f-46d6-9169-6e2e6b696361,rev?*%
%TF.SameCoordinates,Original*%
%TF.FileFunction,Copper,L4,Bot*%
%TF.FilePolarity,Positive*%
%FSLAX46Y46*%
G04 Gerber Fmt 4.6, Leading zero omitted, Abs format (unit mm)*
G04 Created by KiCad (PCBNEW 8.0.6-8.0.6-0~ubuntu24.04.1) date 2025-02-19 12:31:26*
%MOMM*%
%LPD*%
G01*
G04 APERTURE LIST*
G04 Aperture macros list*
%AMRoundRect*
0 Rectangle with rounded corners*
0 $1 Rounding radius*
0 $2 $3 $4 $5 $6 $7 $8 $9 X,Y pos of 4 corners*
0 Add a 4 corners polygon primitive as box body*
4,1,4,$2,$3,$4,$5,$6,$7,$8,$9,$2,$3,0*
0 Add four circle primitives for the rounded corners*
1,1,$1+$1,$2,$3*
1,1,$1+$1,$4,$5*
1,1,$1+$1,$6,$7*
1,1,$1+$1,$8,$9*
0 Add four rect primitives between the rounded corners*
20,1,$1+$1,$2,$3,$4,$5,0*
20,1,$1+$1,$4,$5,$6,$7,0*
20,1,$1+$1,$6,$7,$8,$9,0*
20,1,$1+$1,$8,$9,$2,$3,0*%
G04 Aperture macros list end*
%TA.AperFunction,ComponentPad*%
%ADD10R,1.700000X1.700000*%
%TD*%
%TA.AperFunction,ComponentPad*%
%ADD11O,1.700000X1.700000*%
%TD*%
%TA.AperFunction,ComponentPad*%
%ADD12C,1.651000*%
%TD*%
%TA.AperFunction,ComponentPad*%
%ADD13C,1.905000*%
%TD*%
%TA.AperFunction,ComponentPad*%
%ADD14R,1.600000X1.600000*%
%TD*%
%TA.AperFunction,ComponentPad*%
%ADD15O,1.600000X1.600000*%
%TD*%
%TA.AperFunction,ComponentPad*%
%ADD16R,1.508000X1.508000*%
%TD*%
%TA.AperFunction,ComponentPad*%
%ADD17C,1.508000*%
%TD*%
%TA.AperFunction,ComponentPad*%
%ADD18C,1.727200*%
%TD*%
%TA.AperFunction,SMDPad,CuDef*%
%ADD19RoundRect,0.100000X-0.100000X0.130000X-0.100000X-0.130000X0.100000X-0.130000X0.100000X0.130000X0*%
%TD*%
%TA.AperFunction,SMDPad,CuDef*%
%ADD20RoundRect,0.225000X-0.225000X-0.250000X0.225000X-0.250000X0.225000X0.250000X-0.225000X0.250000X0*%
%TD*%
%TA.AperFunction,SMDPad,CuDef*%
%ADD21RoundRect,0.140000X0.170000X-0.140000X0.170000X0.140000X-0.170000X0.140000X-0.170000X-0.140000X0*%
%TD*%
%TA.AperFunction,SMDPad,CuDef*%
%ADD22RoundRect,0.140000X0.140000X0.170000X-0.140000X0.170000X-0.140000X-0.170000X0.140000X-0.170000X0*%
%TD*%
%TA.AperFunction,SMDPad,CuDef*%
%ADD23RoundRect,0.225000X0.250000X-0.225000X0.250000X0.225000X-0.250000X0.225000X-0.250000X-0.225000X0*%
%TD*%
%TA.AperFunction,SMDPad,CuDef*%
%ADD24RoundRect,0.225000X-0.250000X0.225000X-0.250000X-0.225000X0.250000X-0.225000X0.250000X0.225000X0*%
%TD*%
%TA.AperFunction,SMDPad,CuDef*%
%ADD25RoundRect,0.225000X0.225000X0.250000X-0.225000X0.250000X-0.225000X-0.250000X0.225000X-0.250000X0*%
%TD*%
%TA.AperFunction,SMDPad,CuDef*%
%ADD26RoundRect,0.140000X-0.140000X-0.170000X0.140000X-0.170000X0.140000X0.170000X-0.140000X0.170000X0*%
%TD*%
%TA.AperFunction,SMDPad,CuDef*%
%ADD27RoundRect,0.140000X-0.170000X0.140000X-0.170000X-0.140000X0.170000X-0.140000X0.170000X0.140000X0*%
%TD*%
%TA.AperFunction,ViaPad*%
%ADD28C,0.600000*%
%TD*%
%TA.AperFunction,ViaPad*%
%ADD29C,1.200000*%
%TD*%
%TA.AperFunction,ViaPad*%
%ADD30C,1.000000*%
%TD*%
%TA.AperFunction,Conductor*%
%ADD31C,0.300000*%
%TD*%
%TA.AperFunction,Conductor*%
%ADD32C,0.400000*%
%TD*%
%TA.AperFunction,Conductor*%
%ADD33C,0.200000*%
%TD*%
%TA.AperFunction,Conductor*%
%ADD34C,0.500000*%
%TD*%
%TA.AperFunction,Conductor*%
%ADD35C,1.000000*%
%TD*%
G04 APERTURE END LIST*
D10*
%TO.P,J11,1,Pin_1*%
%TO.N,/ADC/IOVDD*%
X160000000Y-74225000D03*
D11*
%TO.P,J11,2,Pin_2*%
%TO.N,/Buffer/VCC*%
X160000000Y-76765000D03*
%TD*%
D10*
%TO.P,J9,A1,A1*%
%TO.N,/ADC/IN1*%
X91000000Y-85380000D03*
D11*
%TO.P,J9,A2,A2*%
%TO.N,/ADC/IN2*%
X91000000Y-87920000D03*
%TO.P,J9,A3,A3*%
%TO.N,/ADC/IN3*%
X91000000Y-90460000D03*
%TO.P,J9,A4,A4*%
%TO.N,/ADC/IN4*%
X91000000Y-93000000D03*
%TO.P,J9,A5,A5*%
%TO.N,/ADC/IN5*%
X91000000Y-95540000D03*
%TO.P,J9,A6,A6*%
%TO.N,/ADC/IN6*%
X91000000Y-98080000D03*
%TO.P,J9,B1,B1*%
%TO.N,/ADC/AVSS*%
X93540000Y-85380000D03*
%TO.P,J9,B2,B2*%
X93540000Y-87920000D03*
%TO.P,J9,B3,B3*%
X93540000Y-90460000D03*
%TO.P,J9,B4,B4*%
X93540000Y-93000000D03*
%TO.P,J9,B5,B5*%
X93540000Y-95540000D03*
%TO.P,J9,B6,B6*%
X93540000Y-98080000D03*
%TD*%
D12*
%TO.P,J7,1,Signal*%
%TO.N,Net-(J7-Signal)*%
X80500000Y-116500000D03*
D13*
%TO.P,J7,2,AVSS1*%
%TO.N,/ADC/AVSS*%
X83040000Y-113960000D03*
%TO.P,J7,3,AVSS2*%
X77960000Y-113960000D03*
%TO.P,J7,4,AVSS3*%
X77960000Y-119040000D03*
%TO.P,J7,5,AVSS4*%
X83040000Y-119040000D03*
%TD*%
D12*
%TO.P,J6,1,Signal*%
%TO.N,Net-(J6-Signal)*%
X80500000Y-131500000D03*
D13*
%TO.P,J6,2,AVSS1*%
%TO.N,/ADC/AVSS*%
X83040000Y-128960000D03*
%TO.P,J6,3,AVSS2*%
X77960000Y-128960000D03*
%TO.P,J6,4,AVSS3*%
X77960000Y-134040000D03*
%TO.P,J6,5,AVSS4*%
X83040000Y-134040000D03*
%TD*%
D11*
%TO.P,J13,1,1*%
%TO.N,/Buffer/RESX*%
X114275000Y-132235000D03*
%TO.P,J13,2,2*%
%TO.N,/ADC/RES*%
X111735000Y-134775000D03*
D10*
%TO.P,J13,3,3*%
%TO.N,Net-(U6-M)*%
X114275000Y-134775000D03*
D11*
%TO.P,J13,4,4*%
%TO.N,/ADC/RES*%
X111735000Y-132235000D03*
%TD*%
D14*
%TO.P,ADC2,1,IN1*%
%TO.N,Net-(ADC1-IN1)*%
X114260000Y-87300000D03*
D15*
%TO.P,ADC2,2,IN2*%
%TO.N,Net-(ADC1-IN2)*%
X114260000Y-89840000D03*
%TO.P,ADC2,3,IN3*%
%TO.N,Net-(ADC1-IN3)*%
X114260000Y-92380000D03*
%TO.P,ADC2,4,VHI*%
%TO.N,/ADC/VHI*%
X114260000Y-94920000D03*
%TO.P,ADC2,5,VLO*%
%TO.N,/ADC/VLO*%
X114260000Y-97460000D03*
%TO.P,ADC2,6,IN4*%
%TO.N,Net-(ADC1-IN4)*%
X114260000Y-100000000D03*
%TO.P,ADC2,7,IN5*%
%TO.N,Net-(ADC1-IN5)*%
X114260000Y-102540000D03*
%TO.P,ADC2,8,IN6*%
%TO.N,Net-(ADC1-IN6)*%
X114260000Y-105080000D03*
%TO.P,ADC2,9,PAD*%
%TO.N,Net-(ADC1-PAD)*%
X114260000Y-107620000D03*
%TO.P,ADC2,10,AVSS*%
%TO.N,Net-(ADC1-AVSS)*%
X114260000Y-110160000D03*
%TO.P,ADC2,11,RES*%
%TO.N,/ADC/RES*%
X114260000Y-112700000D03*
%TO.P,ADC2,12,IOVSS*%
%TO.N,Net-(ADC1-IOVSS-Pad12)*%
X114260000Y-115240000D03*
%TO.P,ADC2,13,CK4*%
%TO.N,/ADC/CK4*%
X114260000Y-117780000D03*
%TO.P,ADC2,14,CK5*%
%TO.N,/ADC/CK5*%
X114260000Y-120320000D03*
%TO.P,ADC2,15,CK6*%
%TO.N,/ADC/CK6*%
X114260000Y-122860000D03*
%TO.P,ADC2,16,VSS*%
%TO.N,Net-(ADC1-VSS)*%
X114260000Y-125400000D03*
%TO.P,ADC2,17,OUT6*%
%TO.N,/ADC/OUT6*%
X129500000Y-125400000D03*
%TO.P,ADC2,18,OUT5*%
%TO.N,/ADC/OUT5*%
X129500000Y-122860000D03*
%TO.P,ADC2,19,OUT4*%
%TO.N,/ADC/OUT4*%
X129500000Y-120320000D03*
%TO.P,ADC2,20,IOVSS*%
%TO.N,Net-(ADC1-IOVSS-Pad20)*%
X129500000Y-117780000D03*
%TO.P,ADC2,21,IOVDD*%
%TO.N,Net-(ADC1-IOVDD-Pad21)*%
X129500000Y-115240000D03*
%TO.P,ADC2,22,OUT3*%
%TO.N,/ADC/OUT3*%
X129500000Y-112700000D03*
%TO.P,ADC2,23,OUT2*%
%TO.N,/ADC/OUT2*%
X129500000Y-110160000D03*
%TO.P,ADC2,24,OUT1*%
%TO.N,/ADC/OUT1*%
X129500000Y-107620000D03*
%TO.P,ADC2,25,VDD*%
%TO.N,Net-(ADC1-VDD)*%
X129500000Y-105080000D03*
%TO.P,ADC2,26,CK1*%
%TO.N,/ADC/CK1*%
X129500000Y-102540000D03*
%TO.P,ADC2,27,CK2*%
%TO.N,/ADC/CK2*%
X129500000Y-100000000D03*
%TO.P,ADC2,28,CK3*%
%TO.N,/ADC/CK3*%
X129500000Y-97460000D03*
%TO.P,ADC2,29,IOVDD*%
%TO.N,Net-(ADC1-IOVDD-Pad29)*%
X129500000Y-94920000D03*
%TO.P,ADC2,30,VLDO*%
%TO.N,/ADC/VLDO*%
X129500000Y-92380000D03*
%TO.P,ADC2,31,VREF*%
%TO.N,/ADC/VREF*%
X129500000Y-89840000D03*
%TO.P,ADC2,32,AVDD*%
%TO.N,/ADC/AVDD*%
X129500000Y-87300000D03*
%TD*%
D10*
%TO.P,J10,A1,A1*%
%TO.N,/ADC/AVSS*%
X91000000Y-122650000D03*
D11*
%TO.P,J10,A2,A2*%
X91000000Y-125190000D03*
%TO.P,J10,A3,A3*%
%TO.N,GND*%
X91000000Y-127730000D03*
%TO.P,J10,A4,A4*%
X91000000Y-130270000D03*
%TO.P,J10,A5,A5*%
X91000000Y-132810000D03*
%TO.P,J10,A6,A6*%
X91000000Y-135350000D03*
%TO.P,J10,B1,B1*%
%TO.N,Net-(ADC1-PAD)*%
X93540000Y-122650000D03*
%TO.P,J10,B2,B2*%
%TO.N,Net-(ADC1-AVSS)*%
X93540000Y-125190000D03*
%TO.P,J10,B3,B3*%
%TO.N,Net-(ADC1-IOVSS-Pad12)*%
X93540000Y-127730000D03*
%TO.P,J10,B4,B4*%
%TO.N,Net-(ADC1-VSS)*%
X93540000Y-130270000D03*
%TO.P,J10,B5,B5*%
%TO.N,Net-(ADC1-IOVSS-Pad20)*%
X93540000Y-132810000D03*
%TO.P,J10,B6,B6*%
%TO.N,/ADC/AVSS*%
X93540000Y-135350000D03*
%TD*%
D10*
%TO.P,J4,1,1*%
%TO.N,/Buffer/DO1*%
X167500000Y-79840000D03*
D11*
%TO.P,J4,2,2*%
%TO.N,/Buffer/DO2*%
X167500000Y-82380000D03*
%TO.P,J4,3,3*%
%TO.N,/Buffer/DO3*%
X167500000Y-84920000D03*
%TO.P,J4,4,4*%
%TO.N,/Buffer/DO4*%
X167500000Y-87460000D03*
%TO.P,J4,5,5*%
%TO.N,/Buffer/DO5*%
X167500000Y-90000000D03*
%TO.P,J4,6,6*%
%TO.N,/Buffer/DO6*%
X167500000Y-92540000D03*
%TO.P,J4,7,7*%
%TO.N,GND*%
X167500000Y-95080000D03*
%TD*%
%TO.P,J5,1,1*%
%TO.N,/ADC/IOVDD*%
X148460000Y-73960000D03*
%TO.P,J5,2,2*%
X151000000Y-73960000D03*
D10*
%TO.P,J5,3,3*%
%TO.N,/ADC/VDD*%
X153540000Y-73960000D03*
D11*
%TO.P,J5,4,4*%
%TO.N,Net-(ADC1-IOVDD-Pad29)*%
X148460000Y-76500000D03*
%TO.P,J5,5,5*%
%TO.N,Net-(ADC1-IOVDD-Pad21)*%
X151000000Y-76500000D03*
%TO.P,J5,6,6*%
%TO.N,Net-(ADC1-VDD)*%
X153540000Y-76500000D03*
%TD*%
D16*
%TO.P,R5,1*%
%TO.N,Net-(U2-+IN)*%
X112730000Y-77000000D03*
D17*
%TO.P,R5,2*%
%TO.N,Net-(U3-+IN)*%
X110230000Y-74500000D03*
%TO.P,R5,3*%
%TO.N,unconnected-(R5-Pad3)*%
X112730000Y-72000000D03*
%TD*%
D16*
%TO.P,R2,1*%
%TO.N,Net-(R1-Pad2)*%
X104230000Y-77000000D03*
D17*
%TO.P,R2,2*%
%TO.N,Net-(U1-FB)*%
X101730000Y-74500000D03*
%TO.P,R2,3*%
%TO.N,unconnected-(R2-Pad3)*%
X104230000Y-72000000D03*
%TD*%
D16*
%TO.P,R6,1*%
%TO.N,Net-(U3-+IN)*%
X120730000Y-77000000D03*
D17*
%TO.P,R6,2*%
%TO.N,/ADC/AVSS*%
X118230000Y-74500000D03*
%TO.P,R6,3*%
%TO.N,unconnected-(R6-Pad3)*%
X120730000Y-72000000D03*
%TD*%
D10*
%TO.P,J1,1,1*%
%TO.N,GND*%
X79000000Y-84275000D03*
D11*
%TO.P,J1,2,2*%
%TO.N,/AnalogSupply/VSUP*%
X79000000Y-81735000D03*
%TD*%
D10*
%TO.P,J2,1,1*%
%TO.N,/ADC/AVSS*%
X79000000Y-104540000D03*
D11*
%TO.P,J2,2,2*%
%TO.N,/ADC/IN6*%
X79000000Y-102000000D03*
%TO.P,J2,3,3*%
%TO.N,/ADC/IN5*%
X79000000Y-99460000D03*
%TO.P,J2,4,4*%
%TO.N,/ADC/IN4*%
X79000000Y-96920000D03*
%TO.P,J2,5,5*%
%TO.N,/ADC/IN3*%
X79000000Y-94380000D03*
%TO.P,J2,6,6*%
%TO.N,/ADC/IN2*%
X79000000Y-91840000D03*
%TO.P,J2,7,7*%
%TO.N,/ADC/IN1*%
X79000000Y-89300000D03*
%TD*%
%TO.P,J12,1,1*%
%TO.N,/ADC/IOVDD*%
X167275000Y-131235000D03*
%TO.P,J12,2,2*%
%TO.N,Net-(U5-\u002A1CLR)*%
X164735000Y-131235000D03*
D10*
%TO.P,J12,3,3*%
%TO.N,/ADC/IOVDD*%
X167275000Y-133775000D03*
D11*
%TO.P,J12,4,4*%
%TO.N,Net-(U6-VDD)*%
X164735000Y-133775000D03*
%TD*%
D18*
%TO.P,J14,1,1*%
%TO.N,/AnalogSupply/VSUP*%
X79000000Y-65499999D03*
%TO.P,J14,2,2*%
%TO.N,GND*%
X79000000Y-69000000D03*
%TO.P,J14,3,3*%
X79000000Y-72500000D03*
%TO.P,J14,4,4*%
%TO.N,/ADC/AVSS*%
X79000000Y-76000001D03*
%TD*%
D16*
%TO.P,R17,1,1*%
%TO.N,Net-(R17-Pad1)*%
X128730000Y-77000000D03*
D17*
%TO.P,R17,2,2*%
%TO.N,/ADC/VREF*%
X126230000Y-74500000D03*
%TO.P,R17,3,3*%
%TO.N,Net-(R16-Pad2)*%
X128730000Y-72000000D03*
%TD*%
D10*
%TO.P,J8,A1,A1*%
%TO.N,Net-(J6-Signal)*%
X90960000Y-103920000D03*
D11*
%TO.P,J8,A2,A2*%
%TO.N,Net-(J7-Signal)*%
X90960000Y-106460000D03*
%TO.P,J8,A3,A3*%
%TO.N,Net-(J6-Signal)*%
X90960000Y-109000000D03*
%TO.P,J8,A4,A4*%
%TO.N,Net-(J7-Signal)*%
X90960000Y-111540000D03*
%TO.P,J8,A5,A5*%
%TO.N,Net-(J6-Signal)*%
X90960000Y-114080000D03*
%TO.P,J8,A6,A6*%
%TO.N,Net-(J7-Signal)*%
X90960000Y-116620000D03*
%TO.P,J8,B1,B1*%
%TO.N,/ADC/IN1*%
X93500000Y-103920000D03*
%TO.P,J8,B2,B2*%
%TO.N,/ADC/IN2*%
X93500000Y-106460000D03*
%TO.P,J8,B3,B3*%
%TO.N,/ADC/IN3*%
X93500000Y-109000000D03*
%TO.P,J8,B4,B4*%
%TO.N,/ADC/IN4*%
X93500000Y-111540000D03*
%TO.P,J8,B5,B5*%
%TO.N,/ADC/IN5*%
X93500000Y-114080000D03*
%TO.P,J8,B6,B6*%
%TO.N,/ADC/IN6*%
X93500000Y-116620000D03*
%TD*%
D16*
%TO.P,R8,1*%
%TO.N,unconnected-(R8-Pad1)*%
X136730000Y-77000000D03*
D17*
%TO.P,R8,2*%
%TO.N,Net-(U4-FB)*%
X134230000Y-74500000D03*
%TO.P,R8,3*%
%TO.N,Net-(R7-Pad2)*%
X136730000Y-72000000D03*
%TD*%
D10*
%TO.P,J3,1,1*%
%TO.N,GND*%
X167500000Y-121160000D03*
D11*
%TO.P,J3,2,2*%
%TO.N,/Buffer/CLK_IND*%
X167500000Y-118620000D03*
%TO.P,J3,3,3*%
%TO.N,/Buffer/RES_IND*%
X167500000Y-116080000D03*
%TO.P,J3,4,4*%
%TO.N,/Buffer/CLK_IN4*%
X167500000Y-113540000D03*
%TO.P,J3,5,5*%
%TO.N,/Buffer/CLK_IN5*%
X167500000Y-111000000D03*
%TO.P,J3,6,6*%
%TO.N,/Buffer/CLK_IN6*%
X167500000Y-108460000D03*
%TO.P,J3,7,7*%
%TO.N,/Buffer/CLK_IN1*%
X167500000Y-105920000D03*
%TO.P,J3,8,8*%
%TO.N,/Buffer/CLK_IN2*%
X167500000Y-103380000D03*
%TO.P,J3,9,9*%
%TO.N,/Buffer/CLK_IN3*%
X167500000Y-100840000D03*
%TD*%
D19*
%TO.P,C18,1*%
%TO.N,Net-(ADC1-IN2)*%
X111500000Y-90180000D03*
%TO.P,C18,2*%
%TO.N,/ADC/AVSS*%
X111500000Y-90820000D03*
%TD*%
D20*
%TO.P,C27,1*%
%TO.N,Net-(U5-\u002A1CLR)*%
X158225000Y-127500000D03*
%TO.P,C27,2*%
%TO.N,GND*%
X159775000Y-127500000D03*
%TD*%
D19*
%TO.P,C22,1*%
%TO.N,Net-(ADC1-IN6)*%
X111500000Y-107180000D03*
%TO.P,C22,2*%
%TO.N,/ADC/AVSS*%
X111500000Y-107820000D03*
%TD*%
%TO.P,C19,1*%
%TO.N,Net-(ADC1-IN3)*%
X111500000Y-94680000D03*
%TO.P,C19,2*%
%TO.N,/ADC/AVSS*%
X111500000Y-95320000D03*
%TD*%
D21*
%TO.P,C7,1*%
%TO.N,/ADC/AVSS*%
X116500000Y-98980000D03*
%TO.P,C7,2*%
%TO.N,/ADC/VLO*%
X116500000Y-98020000D03*
%TD*%
D22*
%TO.P,C14,1*%
%TO.N,Net-(ADC1-IOVDD-Pad21)*%
X126960000Y-106500000D03*
%TO.P,C14,2*%
%TO.N,GND*%
X126000000Y-106500000D03*
%TD*%
D23*
%TO.P,C3,1*%
%TO.N,/ADC/AVDD*%
X119000000Y-95775000D03*
%TO.P,C3,2*%
%TO.N,/ADC/AVSS*%
X119000000Y-94225000D03*
%TD*%
D19*
%TO.P,C20,1*%
%TO.N,Net-(ADC1-IN4)*%
X111500000Y-99180000D03*
%TO.P,C20,2*%
%TO.N,/ADC/AVSS*%
X111500000Y-99820000D03*
%TD*%
D21*
%TO.P,C16,1*%
%TO.N,Net-(ADC1-IOVDD-Pad29)*%
X123000000Y-95980000D03*
%TO.P,C16,2*%
%TO.N,GND*%
X123000000Y-95020000D03*
%TD*%
D19*
%TO.P,C17,1*%
%TO.N,Net-(ADC1-IN1)*%
X111500000Y-86000000D03*
%TO.P,C17,2*%
%TO.N,/ADC/AVSS*%
X111500000Y-86640000D03*
%TD*%
D22*
%TO.P,C28,1*%
%TO.N,Net-(U5-\u002A1CLR)*%
X154980000Y-127500000D03*
%TO.P,C28,2*%
%TO.N,GND*%
X154020000Y-127500000D03*
%TD*%
D21*
%TO.P,C4,1*%
%TO.N,/ADC/AVSS*%
X121000000Y-99960000D03*
%TO.P,C4,2*%
%TO.N,/ADC/AVDD*%
X121000000Y-99000000D03*
%TD*%
D24*
%TO.P,C33,1*%
%TO.N,/ADC/VLDO*%
X124000000Y-101515000D03*
%TO.P,C33,2*%
%TO.N,/ADC/AVSS*%
X124000000Y-103065000D03*
%TD*%
D22*
%TO.P,C26,1*%
%TO.N,/Buffer/VCC*%
X150980000Y-101892800D03*
%TO.P,C26,2*%
%TO.N,GND*%
X150020000Y-101892800D03*
%TD*%
D25*
%TO.P,C23,1*%
%TO.N,/Buffer/VCC*%
X152275000Y-88892800D03*
%TO.P,C23,2*%
%TO.N,GND*%
X150725000Y-88892800D03*
%TD*%
%TO.P,C13,1*%
%TO.N,Net-(ADC1-IOVDD-Pad21)*%
X125550000Y-105000000D03*
%TO.P,C13,2*%
%TO.N,GND*%
X124000000Y-105000000D03*
%TD*%
%TO.P,C29,1*%
%TO.N,GND*%
X158775000Y-132500000D03*
%TO.P,C29,2*%
%TO.N,Net-(U6-VDD)*%
X157225000Y-132500000D03*
%TD*%
D26*
%TO.P,C12,1*%
%TO.N,Net-(ADC1-VDD)*%
X126540000Y-100000000D03*
%TO.P,C12,2*%
%TO.N,GND*%
X127500000Y-100000000D03*
%TD*%
D23*
%TO.P,C31,1*%
%TO.N,/ADC/VREF*%
X121000000Y-94275000D03*
%TO.P,C31,2*%
%TO.N,/ADC/AVSS*%
X121000000Y-92725000D03*
%TD*%
D27*
%TO.P,C32,1*%
%TO.N,/ADC/VLDO*%
X122500000Y-102020000D03*
%TO.P,C32,2*%
%TO.N,/ADC/AVSS*%
X122500000Y-102980000D03*
%TD*%
D25*
%TO.P,C25,1*%
%TO.N,/Buffer/VCC*%
X151275000Y-103392800D03*
%TO.P,C25,2*%
%TO.N,GND*%
X149725000Y-103392800D03*
%TD*%
D22*
%TO.P,C24,1*%
%TO.N,/Buffer/VCC*%
X151480000Y-86892800D03*
%TO.P,C24,2*%
%TO.N,GND*%
X150520000Y-86892800D03*
%TD*%
D27*
%TO.P,C5,1*%
%TO.N,/ADC/AVSS*%
X116500000Y-94520000D03*
%TO.P,C5,2*%
%TO.N,/ADC/VHI*%
X116500000Y-95480000D03*
%TD*%
D23*
%TO.P,C15,1*%
%TO.N,Net-(ADC1-IOVDD-Pad29)*%
X124500000Y-97275000D03*
%TO.P,C15,2*%
%TO.N,GND*%
X124500000Y-95725000D03*
%TD*%
D19*
%TO.P,C21,1*%
%TO.N,Net-(ADC1-IN5)*%
X111500000Y-102560000D03*
%TO.P,C21,2*%
%TO.N,/ADC/AVSS*%
X111500000Y-103200000D03*
%TD*%
D26*
%TO.P,C30,1*%
%TO.N,GND*%
X153020000Y-132500000D03*
%TO.P,C30,2*%
%TO.N,Net-(U6-VDD)*%
X153980000Y-132500000D03*
%TD*%
D23*
%TO.P,C11,1*%
%TO.N,Net-(ADC1-VDD)*%
X126000000Y-98775000D03*
%TO.P,C11,2*%
%TO.N,GND*%
X126000000Y-97225000D03*
%TD*%
D28*
%TO.N,/ADC/VLDO*%
X122000000Y-96500000D03*
D29*
X133000000Y-66000000D03*
D28*
%TO.N,/ADC/VLO*%
X105000000Y-70627000D03*
D29*
X108000000Y-66000000D03*
D28*
%TO.N,/ADC/AVDD*%
X120173000Y-97000000D03*
D29*
X102000000Y-66000000D03*
D28*
X103500000Y-80010000D03*
%TO.N,Net-(ADC1-IN6)*%
X109000000Y-105000000D03*
%TO.N,/ADC/VHI*%
X107649999Y-71388750D03*
D29*
X114500000Y-66000000D03*
D28*
%TO.N,Net-(ADC1-IN2)*%
X108000000Y-90000000D03*
%TO.N,Net-(ADC1-IN4)*%
X109000000Y-100000000D03*
%TO.N,/ADC/OUT2*%
X137000000Y-100000000D03*
%TO.N,/ADC/OUT6*%
X141000000Y-102000000D03*
%TO.N,/ADC/OUT4*%
X139000000Y-101000000D03*
D29*
%TO.N,/ADC/VREF*%
X139500000Y-66000000D03*
D28*
X120827000Y-95750000D03*
%TO.N,Net-(ADC1-IN1)*%
X108000000Y-87500000D03*
%TO.N,Net-(ADC1-VDD)*%
X124000000Y-99850000D03*
%TO.N,/ADC/OUT3*%
X138000000Y-100500000D03*
%TO.N,Net-(ADC1-IN3)*%
X108000000Y-92500000D03*
%TO.N,/ADC/OUT1*%
X136000000Y-99500000D03*
%TO.N,Net-(ADC1-IN5)*%
X109000000Y-102500000D03*
D30*
%TO.N,Net-(ADC1-IOVDD-Pad29)*%
X142980000Y-81980000D03*
D28*
X123000000Y-97000000D03*
%TO.N,/ADC/OUT5*%
X140000000Y-101500000D03*
D30*
%TO.N,Net-(ADC1-IOVDD-Pad21)*%
X149250000Y-82750000D03*
D28*
X126968891Y-104080314D03*
D29*
%TO.N,/AnalogSupply/VSUP*%
X152500000Y-66000000D03*
D30*
%TO.N,GND*%
X109700578Y-81799422D03*
X150000000Y-106392800D03*
X151500000Y-132500000D03*
D28*
X148000000Y-122500000D03*
D30*
X132000000Y-73500000D03*
X127000000Y-94143000D03*
D28*
X143295000Y-68295000D03*
D30*
X121000000Y-103500000D03*
X148500000Y-132500000D03*
X151000000Y-92392800D03*
X96500000Y-77500000D03*
X91500000Y-79725000D03*
D28*
X153000000Y-128000000D03*
D30*
X142500000Y-72000000D03*
D28*
X107000000Y-74500000D03*
D29*
%TO.N,/AnalogSupply/VA*%
X88500000Y-66000000D03*
X96000000Y-70000000D03*
D28*
%TO.N,/ADC/AVSS*%
X111500000Y-109000000D03*
X111500000Y-88000000D03*
X111500000Y-101000000D03*
X111500000Y-92000000D03*
X111500000Y-104500000D03*
X120000000Y-90000000D03*
D30*
X131500000Y-81000000D03*
D28*
X98000000Y-75000000D03*
X111500000Y-96500000D03*
D29*
%TO.N,/ADC/IOVDD*%
X159000000Y-66000000D03*
D30*
%TO.N,/Buffer/VCC*%
X153000000Y-104392800D03*
X153500000Y-89892800D03*
D28*
%TO.N,Net-(U5-\u002A1CLR)*%
X156000000Y-127000000D03*
X151250000Y-123250000D03*
X155500000Y-123000000D03*
D29*
X157500000Y-124000000D03*
D28*
X152250000Y-121750000D03*
%TO.N,Net-(U6-VDD)*%
X155310000Y-133500000D03*
D29*
X158000000Y-136000000D03*
D28*
%TO.N,Net-(U6-M)*%
X150500000Y-137000000D03*
D29*
%TO.N,Net-(U1-FB)*%
X95000000Y-66000000D03*
D28*
%TO.N,Net-(U2-+IN)*%
X108019375Y-75480625D03*
X105500000Y-76500000D03*
D29*
X110000000Y-72000000D03*
X120500000Y-66000000D03*
D28*
%TO.N,Net-(U3-+IN)*%
X107000000Y-79350001D03*
D29*
X126500000Y-66000000D03*
%TO.N,/ADC/VDD*%
X165000000Y-66000000D03*
%TO.N,Net-(U4-FB)*%
X146000000Y-66000000D03*
D28*
X143500000Y-72000000D03*
%TO.N,/ADC/IN1*%
X99500000Y-86530000D03*
%TO.N,/ADC/IN2*%
X99500000Y-89070000D03*
%TO.N,/ADC/IN3*%
X99500000Y-91610000D03*
%TO.N,/ADC/IN4*%
X99500000Y-94390000D03*
%TO.N,/ADC/IN5*%
X99500000Y-96690000D03*
%TO.N,/ADC/IN6*%
X99500000Y-103000000D03*
D30*
%TO.N,Net-(R17-Pad1)*%
X128500000Y-81000000D03*
%TD*%
D31*
%TO.N,/ADC/VLDO*%
X129620000Y-92380000D02*
X129500000Y-92380000D01*
X122000000Y-96500000D02*
X122000000Y-100510000D01*
X124000000Y-101515000D02*
X123005000Y-101515000D01*
X122500000Y-73500000D02*
X122500000Y-78673654D01*
X122500000Y-78673654D02*
X131500000Y-87673654D01*
X130000000Y-66000000D02*
X122500000Y-73500000D01*
X122000000Y-100510000D02*
X123005000Y-101515000D01*
X131500000Y-87673654D02*
X131500000Y-90500000D01*
X123005000Y-101515000D02*
X122500000Y-102020000D01*
X131500000Y-90500000D02*
X129620000Y-92380000D01*
X133000000Y-66000000D02*
X130000000Y-66000000D01*
%TO.N,/ADC/VLO*%
X105000000Y-70627000D02*
X105000000Y-66500000D01*
X114260000Y-97460000D02*
X115940000Y-97460000D01*
X105500000Y-66000000D02*
X108000000Y-66000000D01*
X105000000Y-66500000D02*
X105500000Y-66000000D01*
X115940000Y-97460000D02*
X116500000Y-98020000D01*
D32*
%TO.N,/ADC/AVDD*%
X103532999Y-79977001D02*
X112977001Y-79977001D01*
X102500000Y-66500000D02*
X102000000Y-66000000D01*
X112977001Y-79977001D02*
X120300000Y-87300000D01*
X103500000Y-80010000D02*
X102500000Y-79010000D01*
D31*
X121000000Y-97827000D02*
X120173000Y-97000000D01*
X120173000Y-96948000D02*
X119000000Y-95775000D01*
X120173000Y-97000000D02*
X120173000Y-96948000D01*
D32*
X102500000Y-79010000D02*
X102500000Y-66500000D01*
X103500000Y-80010000D02*
X103532999Y-79977001D01*
D31*
X121000000Y-99000000D02*
X121000000Y-97827000D01*
D32*
X120300000Y-87300000D02*
X129500000Y-87300000D01*
D33*
%TO.N,Net-(ADC1-IN6)*%
X109000000Y-105000000D02*
X111180000Y-107180000D01*
X111180000Y-107180000D02*
X111500000Y-107180000D01*
X114260000Y-105080000D02*
X112160000Y-107180000D01*
X112160000Y-107180000D02*
X111500000Y-107180000D01*
D31*
%TO.N,Net-(ADC1-VSS)*%
X93540000Y-130270000D02*
X99730000Y-130270000D01*
X99730000Y-130270000D02*
X104600000Y-125400000D01*
X114260000Y-125400000D02*
X104600000Y-125400000D01*
%TO.N,/ADC/VHI*%
X114820000Y-95480000D02*
X114260000Y-94920000D01*
X116500000Y-95480000D02*
X114820000Y-95480000D01*
X112000000Y-66000000D02*
X107649999Y-70350001D01*
X107649999Y-70350001D02*
X107649999Y-71388750D01*
X114500000Y-66000000D02*
X112000000Y-66000000D01*
D33*
%TO.N,Net-(ADC1-IN2)*%
X113920000Y-90180000D02*
X114260000Y-89840000D01*
X111500000Y-90180000D02*
X113920000Y-90180000D01*
X108180000Y-90180000D02*
X111500000Y-90180000D01*
X108000000Y-90000000D02*
X108180000Y-90180000D01*
%TO.N,Net-(ADC1-IN4)*%
X113440000Y-99180000D02*
X114260000Y-100000000D01*
X109500000Y-100000000D02*
X110320000Y-99180000D01*
X114080000Y-100180000D02*
X114260000Y-100000000D01*
X109000000Y-100000000D02*
X109500000Y-100000000D01*
X110320000Y-99180000D02*
X111500000Y-99180000D01*
X111500000Y-99180000D02*
X113440000Y-99180000D01*
%TO.N,/ADC/OUT2*%
X137000000Y-102660000D02*
X129500000Y-110160000D01*
X137000000Y-100000000D02*
X137000000Y-102660000D01*
%TO.N,/ADC/OUT6*%
X141000000Y-102000000D02*
X141000000Y-113900000D01*
X141000000Y-113900000D02*
X129500000Y-125400000D01*
%TO.N,/ADC/OUT4*%
X139000000Y-110820000D02*
X129500000Y-120320000D01*
X139000000Y-101000000D02*
X139000000Y-110820000D01*
D31*
%TO.N,/ADC/VREF*%
X139500000Y-66000000D02*
X136000000Y-66000000D01*
D32*
X120827000Y-95750000D02*
X120827000Y-94448000D01*
D31*
X129834000Y-72166000D02*
X129834000Y-72457292D01*
D32*
X120827000Y-94448000D02*
X121000000Y-94275000D01*
D31*
X136000000Y-66000000D02*
X129834000Y-72166000D01*
X129834000Y-72457292D02*
X127791292Y-74500000D01*
X127791292Y-74500000D02*
X126230000Y-74500000D01*
D33*
%TO.N,Net-(ADC1-IN1)*%
X114260000Y-87300000D02*
X112960000Y-86000000D01*
X109500000Y-86000000D02*
X111500000Y-86000000D01*
X114060000Y-87500000D02*
X114260000Y-87300000D01*
X112960000Y-86000000D02*
X111500000Y-86000000D01*
X108000000Y-87500000D02*
X109500000Y-86000000D01*
D31*
%TO.N,Net-(ADC1-VDD)*%
X125075000Y-98775000D02*
X124000000Y-99850000D01*
X128705000Y-96070000D02*
X133970000Y-96070000D01*
X126000000Y-98775000D02*
X128705000Y-96070000D01*
X133970000Y-96070000D02*
X153540000Y-76500000D01*
X126000000Y-98775000D02*
X125075000Y-98775000D01*
X124150000Y-100000000D02*
X126540000Y-100000000D01*
D33*
X124000000Y-99850000D02*
X124150000Y-100000000D01*
D31*
%TO.N,Net-(ADC1-PAD)*%
X93540000Y-122650000D02*
X99350000Y-122650000D01*
X114260000Y-107740000D02*
X114260000Y-107620000D01*
X99350000Y-122650000D02*
X114260000Y-107740000D01*
D33*
%TO.N,/ADC/OUT3*%
X138000000Y-100500000D02*
X138000000Y-104200000D01*
X138000000Y-104200000D02*
X129500000Y-112700000D01*
%TO.N,Net-(ADC1-IN3)*%
X111500000Y-94680000D02*
X110180000Y-94680000D01*
X111960000Y-94680000D02*
X111500000Y-94680000D01*
X114260000Y-92380000D02*
X111960000Y-94680000D01*
X110180000Y-94680000D02*
X108000000Y-92500000D01*
%TO.N,/ADC/OUT1*%
X136000000Y-99500000D02*
X136000000Y-101120000D01*
X136000000Y-101120000D02*
X129500000Y-107620000D01*
%TO.N,Net-(ADC1-IN5)*%
X114260000Y-102540000D02*
X111520000Y-102540000D01*
X109000000Y-102500000D02*
X109060000Y-102560000D01*
X109060000Y-102560000D02*
X111500000Y-102560000D01*
X111520000Y-102540000D02*
X111500000Y-102560000D01*
%TO.N,Net-(ADC1-IOVDD-Pad29)*%
X124500000Y-97275000D02*
X123275000Y-97275000D01*
X123275000Y-97275000D02*
X123000000Y-97000000D01*
X123000000Y-95980000D02*
X123000000Y-97000000D01*
D31*
%TO.N,Net-(ADC1-IOVSS-Pad20)*%
X100190000Y-132810000D02*
X93540000Y-132810000D01*
X105500000Y-127500000D02*
X119780000Y-127500000D01*
X105500000Y-127500000D02*
X100190000Y-132810000D01*
X119780000Y-127500000D02*
X129500000Y-117780000D01*
D33*
%TO.N,/ADC/OUT5*%
X140000000Y-101500000D02*
X140000000Y-112360000D01*
X140000000Y-112360000D02*
X129500000Y-122860000D01*
D31*
%TO.N,Net-(ADC1-IOVSS-Pad12)*%
X93540000Y-127730000D02*
X97770000Y-127730000D01*
X110260000Y-115240000D02*
X114260000Y-115240000D01*
X97770000Y-127730000D02*
X110260000Y-115240000D01*
%TO.N,Net-(ADC1-AVSS)*%
X113340000Y-110160000D02*
X114260000Y-110160000D01*
X93540000Y-125190000D02*
X98310000Y-125190000D01*
X98310000Y-125190000D02*
X113340000Y-110160000D01*
%TO.N,Net-(ADC1-IOVDD-Pad21)*%
X126968891Y-104080314D02*
X126960000Y-104089205D01*
X130610000Y-101390000D02*
X129023654Y-101390000D01*
X126049205Y-105000000D02*
X125550000Y-105000000D01*
X149250000Y-82750000D02*
X130610000Y-101390000D01*
X126968891Y-103444763D02*
X126968891Y-104080314D01*
X150500000Y-76500000D02*
X151000000Y-76500000D01*
X129023654Y-101390000D02*
X126968891Y-103444763D01*
X126968891Y-104080314D02*
X126049205Y-105000000D01*
X126960000Y-104089205D02*
X126960000Y-106500000D01*
%TO.N,GND*%
X150020000Y-103097800D02*
X149725000Y-103392800D01*
X124000000Y-105000000D02*
X122500000Y-105000000D01*
D34*
X154020000Y-127190001D02*
X155710001Y-125500000D01*
D31*
X153000000Y-128000000D02*
X154275000Y-128000000D01*
X153020000Y-132500000D02*
X151500000Y-132500000D01*
X124000000Y-105000000D02*
X126540982Y-102459018D01*
X153520000Y-128000000D02*
X154020000Y-127500000D01*
X126540982Y-100959018D02*
X127500000Y-100000000D01*
X150000000Y-106392800D02*
X149725000Y-106117800D01*
X124000000Y-105000000D02*
X125500000Y-106500000D01*
X126540982Y-102459018D02*
X126540982Y-100959018D01*
X154275000Y-128000000D02*
X158775000Y-132500000D01*
D34*
X157775000Y-125500000D02*
X159775000Y-127500000D01*
D32*
X151000000Y-92392800D02*
X151000000Y-89167800D01*
D31*
X123795000Y-95020000D02*
X124500000Y-95725000D01*
X125500000Y-106500000D02*
X126000000Y-106500000D01*
D32*
X150520000Y-86892800D02*
X150520000Y-88687800D01*
D34*
X154020000Y-127500000D02*
X154020000Y-127190001D01*
D31*
X122500000Y-105000000D02*
X121000000Y-103500000D01*
X126000000Y-95143000D02*
X126000000Y-97225000D01*
D34*
X155710001Y-125500000D02*
X157775000Y-125500000D01*
D31*
X149725000Y-102187800D02*
X150020000Y-101892800D01*
X149725000Y-103392800D02*
X149725000Y-102187800D01*
D32*
X150520000Y-88687800D02*
X150725000Y-88892800D01*
D31*
X153000000Y-128000000D02*
X153520000Y-128000000D01*
D32*
X151000000Y-89167800D02*
X150725000Y-88892800D01*
D31*
X126000000Y-97225000D02*
X124500000Y-95725000D01*
X123000000Y-95020000D02*
X123795000Y-95020000D01*
X127000000Y-94143000D02*
X126000000Y-95143000D01*
X149725000Y-106117800D02*
X149725000Y-103392800D01*
D32*
%TO.N,/AnalogSupply/VA*%
X88500000Y-67000000D02*
X88500000Y-66000000D01*
X96000000Y-70000000D02*
X91500000Y-70000000D01*
X91500000Y-70000000D02*
X88500000Y-67000000D01*
D31*
%TO.N,/ADC/AVSS*%
X118705000Y-94520000D02*
X119000000Y-94225000D01*
X120500000Y-92725000D02*
X119000000Y-94225000D01*
D33*
X111500000Y-86640000D02*
X111500000Y-88000000D01*
D31*
X124000000Y-103065000D02*
X122585000Y-103065000D01*
X116500000Y-98980000D02*
X116020000Y-98980000D01*
D33*
X111500000Y-99820000D02*
X111500000Y-101000000D01*
D31*
X121000000Y-91000000D02*
X120000000Y-90000000D01*
X121000000Y-99960000D02*
X121000000Y-101480000D01*
X121000000Y-92725000D02*
X121000000Y-91000000D01*
X116500000Y-94520000D02*
X118705000Y-94520000D01*
X121000000Y-101480000D02*
X122500000Y-102980000D01*
X115890000Y-98850000D02*
X113850000Y-98850000D01*
X116020000Y-98980000D02*
X115890000Y-98850000D01*
D33*
X111500000Y-107820000D02*
X111500000Y-109000000D01*
D31*
X121000000Y-92725000D02*
X120500000Y-92725000D01*
D33*
X111500000Y-90820000D02*
X111500000Y-92000000D01*
D31*
X113850000Y-98850000D02*
X111500000Y-96500000D01*
X122585000Y-103065000D02*
X122500000Y-102980000D01*
D33*
X111500000Y-103200000D02*
X111500000Y-104500000D01*
X111500000Y-95320000D02*
X111500000Y-96500000D01*
D31*
X116500000Y-98980000D02*
X120020000Y-98980000D01*
X120020000Y-98980000D02*
X121000000Y-99960000D01*
D35*
%TO.N,/ADC/IOVDD*%
X167275000Y-131235000D02*
X163000000Y-126960000D01*
D32*
X151000000Y-73960000D02*
X148460000Y-73960000D01*
X152250000Y-72710000D02*
X158485000Y-72710000D01*
D35*
X167275000Y-133775000D02*
X167275000Y-131235000D01*
X163000000Y-126960000D02*
X163000000Y-77225000D01*
D32*
X158485000Y-72710000D02*
X160000000Y-74225000D01*
X151000000Y-73960000D02*
X152250000Y-72710000D01*
D35*
X163000000Y-77225000D02*
X160000000Y-74225000D01*
D32*
%TO.N,/Buffer/VCC*%
X152275000Y-87687800D02*
X151480000Y-86892800D01*
X151480000Y-86892800D02*
X151480000Y-85285000D01*
X152275000Y-88892800D02*
X152500000Y-88892800D01*
D31*
X153000000Y-104392800D02*
X152275000Y-104392800D01*
X150980000Y-101892800D02*
X153500000Y-99372800D01*
D32*
X151480000Y-85285000D02*
X160000000Y-76765000D01*
X152500000Y-88892800D02*
X153500000Y-89892800D01*
X152275000Y-88892800D02*
X152275000Y-87687800D01*
D31*
X152275000Y-104392800D02*
X151275000Y-103392800D01*
X150980000Y-101892800D02*
X150980000Y-103097800D01*
X153500000Y-99372800D02*
X153500000Y-89892800D01*
X150980000Y-103097800D02*
X151275000Y-103392800D01*
%TO.N,Net-(U5-\u002A1CLR)*%
X156500000Y-127500000D02*
X156000000Y-127000000D01*
X151500000Y-123000000D02*
X151250000Y-123250000D01*
X161960000Y-131235000D02*
X164735000Y-131235000D01*
X153500000Y-123000000D02*
X152250000Y-121750000D01*
X155500000Y-127500000D02*
X156000000Y-127000000D01*
X155500000Y-123000000D02*
X153500000Y-123000000D01*
X155500000Y-127500000D02*
X154980000Y-127500000D01*
X153500000Y-123000000D02*
X151500000Y-123000000D01*
X156500000Y-127500000D02*
X158225000Y-127500000D01*
X158225000Y-127500000D02*
X161960000Y-131235000D01*
D32*
%TO.N,Net-(U6-VDD)*%
X155310000Y-133500000D02*
X156310000Y-132500000D01*
D31*
X158025000Y-135975000D02*
X158025000Y-133775000D01*
X158000000Y-136000000D02*
X158025000Y-135975000D01*
D32*
X155310000Y-133500000D02*
X154310000Y-132500000D01*
D31*
X158025000Y-133775000D02*
X164735000Y-133775000D01*
X157225000Y-132975000D02*
X158025000Y-133775000D01*
D32*
X156310000Y-132500000D02*
X156950000Y-132500000D01*
X154310000Y-132500000D02*
X153980000Y-132500000D01*
D31*
X157225000Y-132500000D02*
X157225000Y-132975000D01*
D33*
%TO.N,Net-(J6-Signal)*%
X88020000Y-120480000D02*
X88020000Y-117020000D01*
X90960000Y-103920000D02*
X88020000Y-106860000D01*
X88020000Y-111940000D02*
X88480000Y-111480000D01*
X88020000Y-106860000D02*
X88020000Y-111940000D01*
X88020000Y-117020000D02*
X88020000Y-111940000D01*
X80500000Y-131500000D02*
X80500000Y-128000000D01*
X88020000Y-117020000D02*
X90960000Y-114080000D01*
X80500000Y-128000000D02*
X88020000Y-120480000D01*
X88480000Y-111480000D02*
X90960000Y-109000000D01*
D32*
%TO.N,Net-(J7-Signal)*%
X90960000Y-116620000D02*
X90120000Y-116620000D01*
D33*
%TO.N,Net-(U6-M)*%
X148275000Y-134775000D02*
X114275000Y-134775000D01*
X150500000Y-137000000D02*
X148275000Y-134775000D01*
D32*
%TO.N,Net-(U1-FB)*%
X97500000Y-67500000D02*
X97500000Y-70770000D01*
X97500000Y-70770000D02*
X101230000Y-74500000D01*
X96000000Y-66000000D02*
X97500000Y-67500000D01*
X95000000Y-66000000D02*
X96000000Y-66000000D01*
X101230000Y-74500000D02*
X101730000Y-74500000D01*
%TO.N,Net-(U2-+IN)*%
X105500000Y-76500000D02*
X106519375Y-75480625D01*
D31*
X120500000Y-66000000D02*
X116000000Y-66000000D01*
D32*
X106519375Y-75480625D02*
X108019375Y-75480625D01*
D31*
X116000000Y-66000000D02*
X110000000Y-72000000D01*
%TO.N,Net-(U3-+IN)*%
X115000000Y-73500000D02*
X115000000Y-74500000D01*
X115000000Y-74500000D02*
X117500000Y-77000000D01*
X126500000Y-66000000D02*
X122500000Y-66000000D01*
X107350001Y-79350001D02*
X110230000Y-76470002D01*
X107000000Y-79350001D02*
X107350001Y-79350001D01*
X110230000Y-74500000D02*
X115000000Y-74500000D01*
X122500000Y-66000000D02*
X115000000Y-73500000D01*
X110230000Y-76470002D02*
X110230000Y-74500000D01*
X117500000Y-77000000D02*
X120730000Y-77000000D01*
%TO.N,Net-(U4-FB)*%
X143500000Y-72098844D02*
X143500000Y-72000000D01*
X146000000Y-66000000D02*
X144000000Y-68000000D01*
X139000000Y-74500000D02*
X140723000Y-72777000D01*
X140723000Y-72777000D02*
X142821844Y-72777000D01*
X144000000Y-71500000D02*
X143500000Y-72000000D01*
X142821844Y-72777000D02*
X143500000Y-72098844D01*
X144000000Y-68000000D02*
X144000000Y-71500000D01*
X134230000Y-74500000D02*
X139000000Y-74500000D01*
D33*
%TO.N,/ADC/IN1*%
X99500000Y-86530000D02*
X96000000Y-90030000D01*
X96000000Y-101420000D02*
X93500000Y-103920000D01*
X96000000Y-90030000D02*
X96000000Y-101420000D01*
%TO.N,/ADC/IN2*%
X96500000Y-92000000D02*
X96500000Y-103460000D01*
X96500000Y-103460000D02*
X93500000Y-106460000D01*
X99430000Y-89070000D02*
X96500000Y-92000000D01*
X99500000Y-89070000D02*
X99430000Y-89070000D01*
%TO.N,/ADC/IN3*%
X97000000Y-105500000D02*
X93500000Y-109000000D01*
X97000000Y-94000000D02*
X97000000Y-105500000D01*
X99500000Y-91610000D02*
X99390000Y-91610000D01*
X99390000Y-91610000D02*
X97000000Y-94000000D01*
%TO.N,/ADC/IN4*%
X99500000Y-94500000D02*
X97500000Y-96500000D01*
X97500000Y-96500000D02*
X97500000Y-107540000D01*
X99500000Y-94390000D02*
X99500000Y-94500000D01*
X97500000Y-107540000D02*
X93500000Y-111540000D01*
%TO.N,/ADC/IN5*%
X99500000Y-96750000D02*
X99500000Y-96690000D01*
X98000000Y-109580000D02*
X98000000Y-98250000D01*
X93500000Y-114080000D02*
X98000000Y-109580000D01*
X98000000Y-98250000D02*
X99500000Y-96750000D01*
%TO.N,/ADC/IN6*%
X93500000Y-116620000D02*
X98500000Y-111620000D01*
X98500000Y-111620000D02*
X98500000Y-104000000D01*
X98500000Y-104000000D02*
X99500000Y-103000000D01*
%TD*%
M02*
