%TF.GenerationSoftware,KiCad,Pcbnew,8.0.6-8.0.6-0~ubuntu24.04.1*%
%TF.CreationDate,2025-02-21T12:27:14-10:00*%
%TF.ProjectId,board_main,626f6172-645f-46d6-9169-6e2e6b696361,rev?*%
%TF.SameCoordinates,Original*%
%TF.FileFunction,Copper,L1,Top*%
%TF.FilePolarity,Positive*%
%FSLAX46Y46*%
G04 Gerber Fmt 4.6, Leading zero omitted, Abs format (unit mm)*
G04 Created by KiCad (PCBNEW 8.0.6-8.0.6-0~ubuntu24.04.1) date 2025-02-21 12:27:14*
%MOMM*%
%LPD*%
G01*
G04 APERTURE LIST*
G04 Aperture macros list*
%AMRoundRect*
0 Rectangle with rounded corners*
0 $1 Rounding radius*
0 $2 $3 $4 $5 $6 $7 $8 $9 X,Y pos of 4 corners*
0 Add a 4 corners polygon primitive as box body*
4,1,4,$2,$3,$4,$5,$6,$7,$8,$9,$2,$3,0*
0 Add four circle primitives for the rounded corners*
1,1,$1+$1,$2,$3*
1,1,$1+$1,$4,$5*
1,1,$1+$1,$6,$7*
1,1,$1+$1,$8,$9*
0 Add four rect primitives between the rounded corners*
20,1,$1+$1,$2,$3,$4,$5,0*
20,1,$1+$1,$4,$5,$6,$7,0*
20,1,$1+$1,$6,$7,$8,$9,0*
20,1,$1+$1,$8,$9,$2,$3,0*%
G04 Aperture macros list end*
%TA.AperFunction,SMDPad,CuDef*%
%ADD10C,0.500000*%
%TD*%
%TA.AperFunction,ComponentPad*%
%ADD11R,1.700000X1.700000*%
%TD*%
%TA.AperFunction,ComponentPad*%
%ADD12O,1.700000X1.700000*%
%TD*%
%TA.AperFunction,SMDPad,CuDef*%
%ADD13RoundRect,0.135000X-0.135000X-0.185000X0.135000X-0.185000X0.135000X0.185000X-0.135000X0.185000X0*%
%TD*%
%TA.AperFunction,SMDPad,CuDef*%
%ADD14R,1.676400X0.355600*%
%TD*%
%TA.AperFunction,SMDPad,CuDef*%
%ADD15RoundRect,0.062500X-0.337500X-0.062500X0.337500X-0.062500X0.337500X0.062500X-0.337500X0.062500X0*%
%TD*%
%TA.AperFunction,SMDPad,CuDef*%
%ADD16RoundRect,0.062500X-0.062500X-0.337500X0.062500X-0.337500X0.062500X0.337500X-0.062500X0.337500X0*%
%TD*%
%TA.AperFunction,HeatsinkPad*%
%ADD17R,3.600000X3.600000*%
%TD*%
%TA.AperFunction,ComponentPad*%
%ADD18C,1.651000*%
%TD*%
%TA.AperFunction,ComponentPad*%
%ADD19C,1.905000*%
%TD*%
%TA.AperFunction,SMDPad,CuDef*%
%ADD20RoundRect,0.135000X0.185000X-0.135000X0.185000X0.135000X-0.185000X0.135000X-0.185000X-0.135000X0*%
%TD*%
%TA.AperFunction,SMDPad,CuDef*%
%ADD21R,0.558800X1.981200*%
%TD*%
%TA.AperFunction,SMDPad,CuDef*%
%ADD22RoundRect,0.140000X-0.140000X-0.170000X0.140000X-0.170000X0.140000X0.170000X-0.140000X0.170000X0*%
%TD*%
%TA.AperFunction,SMDPad,CuDef*%
%ADD23RoundRect,0.135000X-0.185000X0.135000X-0.185000X-0.135000X0.185000X-0.135000X0.185000X0.135000X0*%
%TD*%
%TA.AperFunction,SMDPad,CuDef*%
%ADD24R,0.965200X0.939800*%
%TD*%
%TA.AperFunction,SMDPad,CuDef*%
%ADD25R,0.449999X0.299999*%
%TD*%
%TA.AperFunction,SMDPad,CuDef*%
%ADD26R,1.000000X1.599999*%
%TD*%
%TA.AperFunction,ComponentPad*%
%ADD27R,1.600000X1.600000*%
%TD*%
%TA.AperFunction,ComponentPad*%
%ADD28O,1.600000X1.600000*%
%TD*%
%TA.AperFunction,SMDPad,CuDef*%
%ADD29R,0.876300X0.355600*%
%TD*%
%TA.AperFunction,SMDPad,CuDef*%
%ADD30RoundRect,0.225000X0.250000X-0.225000X0.250000X0.225000X-0.250000X0.225000X-0.250000X-0.225000X0*%
%TD*%
%TA.AperFunction,SMDPad,CuDef*%
%ADD31RoundRect,0.225000X-0.250000X0.225000X-0.250000X-0.225000X0.250000X-0.225000X0.250000X0.225000X0*%
%TD*%
%TA.AperFunction,SMDPad,CuDef*%
%ADD32R,0.355600X0.876300*%
%TD*%
%TA.AperFunction,SMDPad,CuDef*%
%ADD33RoundRect,0.140000X0.170000X-0.140000X0.170000X0.140000X-0.170000X0.140000X-0.170000X-0.140000X0*%
%TD*%
%TA.AperFunction,SMDPad,CuDef*%
%ADD34RoundRect,0.135000X0.135000X0.185000X-0.135000X0.185000X-0.135000X-0.185000X0.135000X-0.185000X0*%
%TD*%
%TA.AperFunction,ComponentPad*%
%ADD35R,1.508000X1.508000*%
%TD*%
%TA.AperFunction,ComponentPad*%
%ADD36C,1.508000*%
%TD*%
%TA.AperFunction,SMDPad,CuDef*%
%ADD37R,0.787400X0.863600*%
%TD*%
%TA.AperFunction,SMDPad,CuDef*%
%ADD38R,0.787400X0.355600*%
%TD*%
%TA.AperFunction,ComponentPad*%
%ADD39C,1.727200*%
%TD*%
%TA.AperFunction,SMDPad,CuDef*%
%ADD40RoundRect,0.225000X0.225000X0.250000X-0.225000X0.250000X-0.225000X-0.250000X0.225000X-0.250000X0*%
%TD*%
%TA.AperFunction,ViaPad*%
%ADD41C,0.600000*%
%TD*%
%TA.AperFunction,ViaPad*%
%ADD42C,1.200000*%
%TD*%
%TA.AperFunction,ViaPad*%
%ADD43C,1.000000*%
%TD*%
%TA.AperFunction,Conductor*%
%ADD44C,0.200000*%
%TD*%
%TA.AperFunction,Conductor*%
%ADD45C,0.300000*%
%TD*%
%TA.AperFunction,Conductor*%
%ADD46C,0.400000*%
%TD*%
%TA.AperFunction,Conductor*%
%ADD47C,0.500000*%
%TD*%
%TA.AperFunction,Conductor*%
%ADD48C,1.000000*%
%TD*%
G04 APERTURE END LIST*
D10*
%TO.P,F6,*%
%TO.N,*%
X171500000Y-120500000D03*
%TD*%
%TO.P,F5,*%
%TO.N,*%
X70500000Y-97500000D03*
%TD*%
%TO.P,F4,*%
%TO.N,*%
X128500000Y-61000000D03*
%TD*%
%TO.P,F3,*%
%TO.N,*%
X171500000Y-116000000D03*
%TD*%
%TO.P,F2,*%
%TO.N,*%
X70500000Y-92500000D03*
%TD*%
%TO.P,F1,*%
%TO.N,*%
X122000000Y-61000000D03*
%TD*%
D11*
%TO.P,J11,1,Pin_1*%
%TO.N,/ADC/IOVDD*%
X160000000Y-74225000D03*
D12*
%TO.P,J11,2,Pin_2*%
%TO.N,/Buffer/VCC*%
X160000000Y-76765000D03*
%TD*%
D13*
%TO.P,R10,1*%
%TO.N,/ADC/IN1*%
X106000000Y-87500000D03*
%TO.P,R10,2*%
%TO.N,Net-(ADC1-IN1)*%
X107020000Y-87500000D03*
%TD*%
D11*
%TO.P,J9,A1,A1*%
%TO.N,/ADC/IN1*%
X91000000Y-85380000D03*
D12*
%TO.P,J9,A2,A2*%
%TO.N,/ADC/IN2*%
X91000000Y-87920000D03*
%TO.P,J9,A3,A3*%
%TO.N,/ADC/IN3*%
X91000000Y-90460000D03*
%TO.P,J9,A4,A4*%
%TO.N,/ADC/IN4*%
X91000000Y-93000000D03*
%TO.P,J9,A5,A5*%
%TO.N,/ADC/IN5*%
X91000000Y-95540000D03*
%TO.P,J9,A6,A6*%
%TO.N,/ADC/IN6*%
X91000000Y-98080000D03*
%TO.P,J9,B1,B1*%
%TO.N,/ADC/AVSS*%
X93540000Y-85380000D03*
%TO.P,J9,B2,B2*%
X93540000Y-87920000D03*
%TO.P,J9,B3,B3*%
X93540000Y-90460000D03*
%TO.P,J9,B4,B4*%
X93540000Y-93000000D03*
%TO.P,J9,B5,B5*%
X93540000Y-95540000D03*
%TO.P,J9,B6,B6*%
X93540000Y-98080000D03*
%TD*%
D14*
%TO.P,U7,1,DIR*%
%TO.N,/Buffer/VCC*%
X147516200Y-91075000D03*
%TO.P,U7,2,A1*%
%TO.N,Net-(U7-A1)*%
X147516200Y-91725001D03*
%TO.P,U7,3,A2*%
%TO.N,Net-(U7-A2)*%
X147516200Y-92374999D03*
%TO.P,U7,4,A3*%
%TO.N,Net-(U7-A3)*%
X147516200Y-93025001D03*
%TO.P,U7,5,A4*%
%TO.N,Net-(U7-A4)*%
X147516200Y-93674999D03*
%TO.P,U7,6,A5*%
%TO.N,Net-(U7-A5)*%
X147516200Y-94324998D03*
%TO.P,U7,7,A6*%
%TO.N,Net-(U7-A6)*%
X147516200Y-94974999D03*
%TO.P,U7,8,A7*%
%TO.N,Net-(U7-A7)*%
X147516200Y-95624998D03*
%TO.P,U7,9,A8*%
%TO.N,Net-(U7-A8)*%
X147516200Y-96274999D03*
%TO.P,U7,10,GND*%
%TO.N,GND*%
X147516200Y-96924998D03*
%TO.P,U7,11,B8*%
%TO.N,Net-(U7-B8)*%
X153155000Y-96925000D03*
%TO.P,U7,12,B7*%
%TO.N,Net-(U7-B7)*%
X153155000Y-96275002D03*
%TO.P,U7,13,B6*%
%TO.N,Net-(U7-B6)*%
X153155000Y-95625001D03*
%TO.P,U7,14,B5*%
%TO.N,Net-(U7-B5)*%
X153155000Y-94975002D03*
%TO.P,U7,15,B4*%
%TO.N,Net-(U7-B4)*%
X153155000Y-94325001D03*
%TO.P,U7,16,B3*%
%TO.N,Net-(U7-B3)*%
X153155000Y-93675002D03*
%TO.P,U7,17,B2*%
%TO.N,Net-(U7-B2)*%
X153155000Y-93025001D03*
%TO.P,U7,18,B1*%
%TO.N,Net-(U7-B1)*%
X153155000Y-92375002D03*
%TO.P,U7,19,\u002AOE*%
%TO.N,GND*%
X153155000Y-91725001D03*
%TO.P,U7,20,VCC*%
%TO.N,/Buffer/VCC*%
X153155000Y-91075002D03*
%TD*%
D15*
%TO.P,ADC1,1,IN1*%
%TO.N,Net-(ADC1-IN1)*%
X119550000Y-100550000D03*
%TO.P,ADC1,2,IN2*%
%TO.N,Net-(ADC1-IN2)*%
X119550000Y-101050000D03*
%TO.P,ADC1,3,IN3*%
%TO.N,Net-(ADC1-IN3)*%
X119550000Y-101550000D03*
%TO.P,ADC1,4,VHI*%
%TO.N,/ADC/VHI*%
X119550000Y-102050000D03*
%TO.P,ADC1,5,VLO*%
%TO.N,/ADC/VLO*%
X119550000Y-102550000D03*
%TO.P,ADC1,6,IN4*%
%TO.N,Net-(ADC1-IN4)*%
X119550000Y-103050000D03*
%TO.P,ADC1,7,IN5*%
%TO.N,Net-(ADC1-IN5)*%
X119550000Y-103550000D03*
%TO.P,ADC1,8,IN6*%
%TO.N,Net-(ADC1-IN6)*%
X119550000Y-104050000D03*
D16*
%TO.P,ADC1,9,PAD*%
%TO.N,Net-(ADC1-PAD)*%
X120250000Y-104750000D03*
%TO.P,ADC1,10,AVSS*%
%TO.N,Net-(ADC1-AVSS)*%
X120750000Y-104750000D03*
%TO.P,ADC1,11,RES*%
%TO.N,/ADC/RES*%
X121250000Y-104750000D03*
%TO.P,ADC1,12,IOVSS*%
%TO.N,Net-(ADC1-IOVSS-Pad12)*%
X121750000Y-104750000D03*
%TO.P,ADC1,13,CK4*%
%TO.N,/ADC/CK4*%
X122250000Y-104750000D03*
%TO.P,ADC1,14,CK5*%
%TO.N,/ADC/CK5*%
X122750000Y-104750000D03*
%TO.P,ADC1,15,CK6*%
%TO.N,/ADC/CK6*%
X123250000Y-104750000D03*
%TO.P,ADC1,16,VSS*%
%TO.N,Net-(ADC1-VSS)*%
X123750000Y-104750000D03*
D15*
%TO.P,ADC1,17,OUT6*%
%TO.N,/ADC/OUT6*%
X124450000Y-104050000D03*
%TO.P,ADC1,18,OUT5*%
%TO.N,/ADC/OUT5*%
X124450000Y-103550000D03*
%TO.P,ADC1,19,OUT4*%
%TO.N,/ADC/OUT4*%
X124450000Y-103050000D03*
%TO.P,ADC1,20,IOVSS*%
%TO.N,Net-(ADC1-IOVSS-Pad20)*%
X124450000Y-102550000D03*
%TO.P,ADC1,21,IOVDD*%
%TO.N,Net-(ADC1-IOVDD-Pad21)*%
X124450000Y-102050000D03*
%TO.P,ADC1,22,OUT3*%
%TO.N,/ADC/OUT3*%
X124450000Y-101550000D03*
%TO.P,ADC1,23,OUT2*%
%TO.N,/ADC/OUT2*%
X124450000Y-101050000D03*
%TO.P,ADC1,24,OUT1*%
%TO.N,/ADC/OUT1*%
X124450000Y-100550000D03*
D16*
%TO.P,ADC1,25,VDD*%
%TO.N,Net-(ADC1-VDD)*%
X123750000Y-99850000D03*
%TO.P,ADC1,26,CK1*%
%TO.N,/ADC/CK1*%
X123250000Y-99850000D03*
%TO.P,ADC1,27,CK2*%
%TO.N,/ADC/CK2*%
X122750000Y-99850000D03*
%TO.P,ADC1,28,CK3*%
%TO.N,/ADC/CK3*%
X122250000Y-99850000D03*
%TO.P,ADC1,29,IOVDD*%
%TO.N,Net-(ADC1-IOVDD-Pad29)*%
X121750000Y-99850000D03*
%TO.P,ADC1,30,VLDO*%
%TO.N,/ADC/VLDO*%
X121250000Y-99850000D03*
%TO.P,ADC1,31,VREF*%
%TO.N,/ADC/VREF*%
X120750000Y-99850000D03*
%TO.P,ADC1,32,AVDD*%
%TO.N,/ADC/AVDD*%
X120250000Y-99850000D03*
D17*
%TO.P,ADC1,33,PADDLE*%
%TO.N,GND*%
X122000000Y-102300000D03*
%TD*%
D18*
%TO.P,J7,1,Signal*%
%TO.N,Net-(J7-Signal)*%
X80500000Y-116500000D03*
D19*
%TO.P,J7,2,AVSS1*%
%TO.N,/ADC/AVSS*%
X83040000Y-113960000D03*
%TO.P,J7,3,AVSS2*%
X77960000Y-113960000D03*
%TO.P,J7,4,AVSS3*%
X77960000Y-119040000D03*
%TO.P,J7,5,AVSS4*%
X83040000Y-119040000D03*
%TD*%
D14*
%TO.P,U8,1,DIR*%
%TO.N,GND*%
X147180600Y-105967800D03*
%TO.P,U8,2,A1*%
%TO.N,Net-(U8-A1)*%
X147180600Y-106617801D03*
%TO.P,U8,3,A2*%
%TO.N,Net-(U8-A2)*%
X147180600Y-107267799D03*
%TO.P,U8,4,A3*%
%TO.N,Net-(U8-A3)*%
X147180600Y-107917801D03*
%TO.P,U8,5,A4*%
%TO.N,Net-(U8-A4)*%
X147180600Y-108567799D03*
%TO.P,U8,6,A5*%
%TO.N,Net-(U8-A5)*%
X147180600Y-109217798D03*
%TO.P,U8,7,A6*%
%TO.N,Net-(U8-A6)*%
X147180600Y-109867799D03*
%TO.P,U8,8,A7*%
%TO.N,Net-(U8-A7)*%
X147180600Y-110517798D03*
%TO.P,U8,9,A8*%
%TO.N,Net-(U8-A8)*%
X147180600Y-111167799D03*
%TO.P,U8,10,GND*%
%TO.N,GND*%
X147180600Y-111817798D03*
%TO.P,U8,11,B8*%
%TO.N,Net-(U8-B8)*%
X152819400Y-111817800D03*
%TO.P,U8,12,B7*%
%TO.N,Net-(U8-B7)*%
X152819400Y-111167802D03*
%TO.P,U8,13,B6*%
%TO.N,Net-(U8-B6)*%
X152819400Y-110517801D03*
%TO.P,U8,14,B5*%
%TO.N,Net-(U8-B5)*%
X152819400Y-109867802D03*
%TO.P,U8,15,B4*%
%TO.N,Net-(U8-B4)*%
X152819400Y-109217801D03*
%TO.P,U8,16,B3*%
%TO.N,Net-(U8-B3)*%
X152819400Y-108567802D03*
%TO.P,U8,17,B2*%
%TO.N,Net-(U8-B2)*%
X152819400Y-107917801D03*
%TO.P,U8,18,B1*%
%TO.N,Net-(U8-B1)*%
X152819400Y-107267802D03*
%TO.P,U8,19,\u002AOE*%
%TO.N,GND*%
X152819400Y-106617801D03*
%TO.P,U8,20,VCC*%
%TO.N,/Buffer/VCC*%
X152819400Y-105967802D03*
%TD*%
D18*
%TO.P,J6,1,Signal*%
%TO.N,Net-(J6-Signal)*%
X80500000Y-131500000D03*
D19*
%TO.P,J6,2,AVSS1*%
%TO.N,/ADC/AVSS*%
X83040000Y-128960000D03*
%TO.P,J6,3,AVSS2*%
X77960000Y-128960000D03*
%TO.P,J6,4,AVSS3*%
X77960000Y-134040000D03*
%TO.P,J6,5,AVSS4*%
X83040000Y-134040000D03*
%TD*%
D20*
%TO.P,R1,1*%
%TO.N,/ADC/AVDD*%
X98500000Y-79510000D03*
%TO.P,R1,2*%
%TO.N,Net-(R1-Pad2)*%
X98500000Y-78490000D03*
%TD*%
D21*
%TO.P,U5,1,\u002A1CLR*%
%TO.N,Net-(U5-\u002A1CLR)*%
X155310000Y-120072400D03*
%TO.P,U5,2,1D*%
%TO.N,/Buffer/RESX*%
X154040000Y-120072400D03*
%TO.P,U5,3,1CLK*%
%TO.N,/Buffer/CLKX*%
X152770000Y-120072400D03*
%TO.P,U5,4,\u002A1PRE*%
%TO.N,Net-(U5-\u002A1CLR)*%
X151500000Y-120072400D03*
%TO.P,U5,5,1Q*%
%TO.N,Net-(U5-1Q)*%
X150230000Y-120072400D03*
%TO.P,U5,6,\u002A1Q*%
%TO.N,Net-(U5-\u002A1Q)*%
X148960000Y-120072400D03*
%TO.P,U5,7,GND*%
%TO.N,GND*%
X147690000Y-120072400D03*
%TO.P,U5,8,\u002A2Q*%
%TO.N,unconnected-(U5-\u002A2Q-Pad8)*%
X147690000Y-125000000D03*
%TO.P,U5,9,2Q*%
%TO.N,Net-(U5-2Q)*%
X148960000Y-125000000D03*
%TO.P,U5,10,\u002A2PRE*%
%TO.N,Net-(U5-\u002A1CLR)*%
X150230000Y-125000000D03*
%TO.P,U5,11,2CLK*%
%TO.N,Net-(U5-2CLK)*%
X151500000Y-125000000D03*
%TO.P,U5,12,2D*%
%TO.N,Net-(U5-1Q)*%
X152770000Y-125000000D03*
%TO.P,U5,13,\u002A2CLR*%
%TO.N,Net-(U5-\u002A1CLR)*%
X154040000Y-125000000D03*
%TO.P,U5,14,VCC*%
X155310000Y-125000000D03*
%TD*%
%TO.P,U6,1,A*%
%TO.N,/Buffer/CLKX*%
X155310000Y-130036200D03*
%TO.P,U6,2,B*%
%TO.N,GND*%
X154040000Y-130036200D03*
%TO.P,U6,3,J*%
%TO.N,Net-(U5-2CLK)*%
X152770000Y-130036200D03*
%TO.P,U6,4,K*%
%TO.N,unconnected-(U6-K-Pad4)*%
X151500000Y-130036200D03*
%TO.P,U6,5,C*%
%TO.N,GND*%
X150230000Y-130036200D03*
%TO.P,U6,6,D*%
X148960000Y-130036200D03*
%TO.P,U6,7,VSS*%
X147690000Y-130036200D03*
%TO.P,U6,8,E*%
X147690000Y-134963800D03*
%TO.P,U6,9,F*%
X148960000Y-134963800D03*
%TO.P,U6,10,L*%
%TO.N,unconnected-(U6-L-Pad10)*%
X150230000Y-134963800D03*
%TO.P,U6,11,M*%
%TO.N,Net-(U6-M)*%
X151500000Y-134963800D03*
%TO.P,U6,12,G*%
%TO.N,Net-(U5-\u002A1Q)*%
X152770000Y-134963800D03*
%TO.P,U6,13,H*%
%TO.N,Net-(U5-2Q)*%
X154040000Y-134963800D03*
%TO.P,U6,14,VDD*%
%TO.N,Net-(U6-VDD)*%
X155310000Y-134963800D03*
%TD*%
D22*
%TO.P,C6,1*%
%TO.N,/ADC/VLO*%
X107020000Y-76500000D03*
%TO.P,C6,2*%
%TO.N,/ADC/VHI*%
X107980000Y-76500000D03*
%TD*%
D12*
%TO.P,J13,1,1*%
%TO.N,/Buffer/RESX*%
X114275000Y-132235000D03*
%TO.P,J13,2,2*%
%TO.N,/ADC/RES*%
X111735000Y-134775000D03*
D11*
%TO.P,J13,3,3*%
%TO.N,Net-(U6-M)*%
X114275000Y-134775000D03*
D12*
%TO.P,J13,4,4*%
%TO.N,/ADC/RES*%
X111735000Y-132235000D03*
%TD*%
D13*
%TO.P,R13,1*%
%TO.N,/ADC/IN4*%
X106000000Y-100000000D03*
%TO.P,R13,2*%
%TO.N,Net-(ADC1-IN4)*%
X107020000Y-100000000D03*
%TD*%
D23*
%TO.P,R3,1*%
%TO.N,/ADC/AVSS*%
X98500000Y-74990000D03*
%TO.P,R3,2*%
%TO.N,Net-(U1-FB)*%
X98500000Y-76010000D03*
%TD*%
D20*
%TO.P,R9,1*%
%TO.N,Net-(U4-FB)*%
X132000000Y-76000000D03*
%TO.P,R9,2*%
%TO.N,GND*%
X132000000Y-74980000D03*
%TD*%
D24*
%TO.P,L2,1,1*%
%TO.N,/ADC/IOVDD*%
X139249300Y-69500000D03*
%TO.P,L2,2,2*%
%TO.N,/AnalogSupply/VSUP*%
X137750700Y-69500000D03*
%TD*%
D25*
%TO.P,U1,1,OUT*%
%TO.N,/ADC/AVDD*%
X97474999Y-78150001D03*
%TO.P,U1,2,FB*%
%TO.N,Net-(U1-FB)*%
X97474999Y-77500000D03*
%TO.P,U1,3,GND*%
%TO.N,GND*%
X97474999Y-76850001D03*
%TO.P,U1,4,EN*%
%TO.N,/AnalogSupply/VA*%
X95525001Y-76850001D03*
%TO.P,U1,5,PG*%
%TO.N,unconnected-(U1-PG-Pad5)*%
X95525001Y-77500000D03*
%TO.P,U1,6,IN*%
%TO.N,/AnalogSupply/VA*%
X95525001Y-78150001D03*
D26*
%TO.P,U1,7,PAD*%
%TO.N,GND*%
X96500000Y-77500000D03*
%TD*%
D27*
%TO.P,ADC2,1,IN1*%
%TO.N,Net-(ADC1-IN1)*%
X114260000Y-87300000D03*
D28*
%TO.P,ADC2,2,IN2*%
%TO.N,Net-(ADC1-IN2)*%
X114260000Y-89840000D03*
%TO.P,ADC2,3,IN3*%
%TO.N,Net-(ADC1-IN3)*%
X114260000Y-92380000D03*
%TO.P,ADC2,4,VHI*%
%TO.N,/ADC/VHI*%
X114260000Y-94920000D03*
%TO.P,ADC2,5,VLO*%
%TO.N,/ADC/VLO*%
X114260000Y-97460000D03*
%TO.P,ADC2,6,IN4*%
%TO.N,Net-(ADC1-IN4)*%
X114260000Y-100000000D03*
%TO.P,ADC2,7,IN5*%
%TO.N,Net-(ADC1-IN5)*%
X114260000Y-102540000D03*
%TO.P,ADC2,8,IN6*%
%TO.N,Net-(ADC1-IN6)*%
X114260000Y-105080000D03*
%TO.P,ADC2,9,PAD*%
%TO.N,Net-(ADC1-PAD)*%
X114260000Y-107620000D03*
%TO.P,ADC2,10,AVSS*%
%TO.N,Net-(ADC1-AVSS)*%
X114260000Y-110160000D03*
%TO.P,ADC2,11,RES*%
%TO.N,/ADC/RES*%
X114260000Y-112700000D03*
%TO.P,ADC2,12,IOVSS*%
%TO.N,Net-(ADC1-IOVSS-Pad12)*%
X114260000Y-115240000D03*
%TO.P,ADC2,13,CK4*%
%TO.N,/ADC/CK4*%
X114260000Y-117780000D03*
%TO.P,ADC2,14,CK5*%
%TO.N,/ADC/CK5*%
X114260000Y-120320000D03*
%TO.P,ADC2,15,CK6*%
%TO.N,/ADC/CK6*%
X114260000Y-122860000D03*
%TO.P,ADC2,16,VSS*%
%TO.N,Net-(ADC1-VSS)*%
X114260000Y-125400000D03*
%TO.P,ADC2,17,OUT6*%
%TO.N,/ADC/OUT6*%
X129500000Y-125400000D03*
%TO.P,ADC2,18,OUT5*%
%TO.N,/ADC/OUT5*%
X129500000Y-122860000D03*
%TO.P,ADC2,19,OUT4*%
%TO.N,/ADC/OUT4*%
X129500000Y-120320000D03*
%TO.P,ADC2,20,IOVSS*%
%TO.N,Net-(ADC1-IOVSS-Pad20)*%
X129500000Y-117780000D03*
%TO.P,ADC2,21,IOVDD*%
%TO.N,Net-(ADC1-IOVDD-Pad21)*%
X129500000Y-115240000D03*
%TO.P,ADC2,22,OUT3*%
%TO.N,/ADC/OUT3*%
X129500000Y-112700000D03*
%TO.P,ADC2,23,OUT2*%
%TO.N,/ADC/OUT2*%
X129500000Y-110160000D03*
%TO.P,ADC2,24,OUT1*%
%TO.N,/ADC/OUT1*%
X129500000Y-107620000D03*
%TO.P,ADC2,25,VDD*%
%TO.N,Net-(ADC1-VDD)*%
X129500000Y-105080000D03*
%TO.P,ADC2,26,CK1*%
%TO.N,/ADC/CK1*%
X129500000Y-102540000D03*
%TO.P,ADC2,27,CK2*%
%TO.N,/ADC/CK2*%
X129500000Y-100000000D03*
%TO.P,ADC2,28,CK3*%
%TO.N,/ADC/CK3*%
X129500000Y-97460000D03*
%TO.P,ADC2,29,IOVDD*%
%TO.N,Net-(ADC1-IOVDD-Pad29)*%
X129500000Y-94920000D03*
%TO.P,ADC2,30,VLDO*%
%TO.N,/ADC/VLDO*%
X129500000Y-92380000D03*
%TO.P,ADC2,31,VREF*%
%TO.N,/ADC/VREF*%
X129500000Y-89840000D03*
%TO.P,ADC2,32,AVDD*%
%TO.N,/ADC/AVDD*%
X129500000Y-87300000D03*
%TD*%
D11*
%TO.P,J10,A1,A1*%
%TO.N,/ADC/AVSS*%
X91000000Y-122650000D03*
D12*
%TO.P,J10,A2,A2*%
X91000000Y-125190000D03*
%TO.P,J10,A3,A3*%
%TO.N,GND*%
X91000000Y-127730000D03*
%TO.P,J10,A4,A4*%
X91000000Y-130270000D03*
%TO.P,J10,A5,A5*%
X91000000Y-132810000D03*
%TO.P,J10,A6,A6*%
X91000000Y-135350000D03*
%TO.P,J10,B1,B1*%
%TO.N,Net-(ADC1-PAD)*%
X93540000Y-122650000D03*
%TO.P,J10,B2,B2*%
%TO.N,Net-(ADC1-AVSS)*%
X93540000Y-125190000D03*
%TO.P,J10,B3,B3*%
%TO.N,Net-(ADC1-IOVSS-Pad12)*%
X93540000Y-127730000D03*
%TO.P,J10,B4,B4*%
%TO.N,Net-(ADC1-VSS)*%
X93540000Y-130270000D03*
%TO.P,J10,B5,B5*%
%TO.N,Net-(ADC1-IOVSS-Pad20)*%
X93540000Y-132810000D03*
%TO.P,J10,B6,B6*%
%TO.N,/ADC/AVSS*%
X93540000Y-135350000D03*
%TD*%
D29*
%TO.P,U3,1,VOUT*%
%TO.N,/ADC/VLO*%
X107222500Y-80799998D03*
%TO.P,U3,2,-VS*%
%TO.N,GND*%
X107222500Y-80149999D03*
%TO.P,U3,3,+IN*%
%TO.N,Net-(U3-+IN)*%
X107222500Y-79500000D03*
%TO.P,U3,4,-IN*%
%TO.N,/ADC/VLO*%
X105000000Y-79500000D03*
%TO.P,U3,5,\u002ADISABLE*%
%TO.N,/AnalogSupply/VA*%
X105000000Y-80149999D03*
%TO.P,U3,6,+VS*%
X105000000Y-80799998D03*
%TD*%
D30*
%TO.P,C9,1*%
%TO.N,/ADC/IOVDD*%
X141500000Y-69775000D03*
%TO.P,C9,2*%
%TO.N,GND*%
X141500000Y-68225000D03*
%TD*%
D31*
%TO.P,C2,1*%
%TO.N,/AnalogSupply/VA*%
X94000000Y-77950000D03*
%TO.P,C2,2*%
%TO.N,GND*%
X94000000Y-79500000D03*
%TD*%
D23*
%TO.P,R18,1*%
%TO.N,Net-(R17-Pad1)*%
X130500000Y-79490000D03*
%TO.P,R18,2*%
%TO.N,/ADC/AVSS*%
X130500000Y-80510000D03*
%TD*%
D13*
%TO.P,R14,1*%
%TO.N,/ADC/IN5*%
X105990000Y-102500000D03*
%TO.P,R14,2*%
%TO.N,Net-(ADC1-IN5)*%
X107010000Y-102500000D03*
%TD*%
D32*
%TO.P,U2,1,VOUT*%
%TO.N,/ADC/VHI*%
X106350001Y-73611250D03*
%TO.P,U2,2,-VS*%
%TO.N,GND*%
X107000000Y-73611250D03*
%TO.P,U2,3,+IN*%
%TO.N,Net-(U2-+IN)*%
X107649999Y-73611250D03*
%TO.P,U2,4,-IN*%
%TO.N,/ADC/VHI*%
X107649999Y-71388750D03*
%TO.P,U2,5,\u002ADISABLE*%
%TO.N,/AnalogSupply/VA*%
X107000000Y-71388750D03*
%TO.P,U2,6,+VS*%
X106350001Y-71388750D03*
%TD*%
D11*
%TO.P,J4,1,1*%
%TO.N,/Buffer/DO1*%
X167500000Y-79840000D03*
D12*
%TO.P,J4,2,2*%
%TO.N,/Buffer/DO2*%
X167500000Y-82380000D03*
%TO.P,J4,3,3*%
%TO.N,/Buffer/DO3*%
X167500000Y-84920000D03*
%TO.P,J4,4,4*%
%TO.N,/Buffer/DO4*%
X167500000Y-87460000D03*
%TO.P,J4,5,5*%
%TO.N,/Buffer/DO5*%
X167500000Y-90000000D03*
%TO.P,J4,6,6*%
%TO.N,/Buffer/DO6*%
X167500000Y-92540000D03*
%TO.P,J4,7,7*%
%TO.N,GND*%
X167500000Y-95080000D03*
%TD*%
D33*
%TO.P,C10,1*%
%TO.N,/ADC/IOVDD*%
X143500000Y-69980000D03*
%TO.P,C10,2*%
%TO.N,GND*%
X143500000Y-69020000D03*
%TD*%
D12*
%TO.P,J5,1,1*%
%TO.N,/ADC/IOVDD*%
X148460000Y-73960000D03*
%TO.P,J5,2,2*%
X151000000Y-73960000D03*
D11*
%TO.P,J5,3,3*%
%TO.N,/ADC/VDD*%
X153540000Y-73960000D03*
D12*
%TO.P,J5,4,4*%
%TO.N,Net-(ADC1-IOVDD-Pad29)*%
X148460000Y-76500000D03*
%TO.P,J5,5,5*%
%TO.N,Net-(ADC1-IOVDD-Pad21)*%
X151000000Y-76500000D03*
%TO.P,J5,6,6*%
%TO.N,Net-(ADC1-VDD)*%
X153540000Y-76500000D03*
%TD*%
D34*
%TO.P,R7,1*%
%TO.N,/ADC/VDD*%
X143010000Y-75500000D03*
%TO.P,R7,2*%
%TO.N,Net-(R7-Pad2)*%
X141990000Y-75500000D03*
%TD*%
D20*
%TO.P,R4,1*%
%TO.N,/ADC/AVDD*%
X103500000Y-80010000D03*
%TO.P,R4,2*%
%TO.N,Net-(U2-+IN)*%
X103500000Y-78990000D03*
%TD*%
D13*
%TO.P,R11,1*%
%TO.N,/ADC/IN2*%
X106000000Y-90000000D03*
%TO.P,R11,2*%
%TO.N,Net-(ADC1-IN2)*%
X107020000Y-90000000D03*
%TD*%
D35*
%TO.P,R5,1*%
%TO.N,Net-(U2-+IN)*%
X112730000Y-77000000D03*
D36*
%TO.P,R5,2*%
%TO.N,Net-(U3-+IN)*%
X110230000Y-74500000D03*
%TO.P,R5,3*%
%TO.N,unconnected-(R5-Pad3)*%
X112730000Y-72000000D03*
%TD*%
D35*
%TO.P,R2,1*%
%TO.N,Net-(R1-Pad2)*%
X104230000Y-77000000D03*
D36*
%TO.P,R2,2*%
%TO.N,Net-(U1-FB)*%
X101730000Y-74500000D03*
%TO.P,R2,3*%
%TO.N,unconnected-(R2-Pad3)*%
X104230000Y-72000000D03*
%TD*%
D13*
%TO.P,R16,1*%
%TO.N,/AnalogSupply/VA*%
X122990000Y-70000000D03*
%TO.P,R16,2*%
%TO.N,Net-(R16-Pad2)*%
X124010000Y-70000000D03*
%TD*%
D35*
%TO.P,R6,1*%
%TO.N,Net-(U3-+IN)*%
X120730000Y-77000000D03*
D36*
%TO.P,R6,2*%
%TO.N,/ADC/AVSS*%
X118230000Y-74500000D03*
%TO.P,R6,3*%
%TO.N,unconnected-(R6-Pad3)*%
X120730000Y-72000000D03*
%TD*%
D25*
%TO.P,U4,1,OUT*%
%TO.N,/ADC/VDD*%
X143500000Y-72650001D03*
%TO.P,U4,2,FB*%
%TO.N,Net-(U4-FB)*%
X143500000Y-72000000D03*
%TO.P,U4,3,GND*%
%TO.N,GND*%
X143500000Y-71350001D03*
%TO.P,U4,4,EN*%
%TO.N,/ADC/IOVDD*%
X141550002Y-71350001D03*
%TO.P,U4,5,PG*%
%TO.N,unconnected-(U4-PG-Pad5)*%
X141550002Y-72000000D03*
%TO.P,U4,6,IN*%
%TO.N,/ADC/IOVDD*%
X141550002Y-72650001D03*
D26*
%TO.P,U4,7,PAD*%
%TO.N,GND*%
X142525001Y-72000000D03*
%TD*%
D13*
%TO.P,R15,1*%
%TO.N,/ADC/IN6*%
X105980000Y-105000000D03*
%TO.P,R15,2*%
%TO.N,Net-(ADC1-IN6)*%
X107000000Y-105000000D03*
%TD*%
D11*
%TO.P,J1,1,1*%
%TO.N,GND*%
X79000000Y-84275000D03*
D12*
%TO.P,J1,2,2*%
%TO.N,/AnalogSupply/VSUP*%
X79000000Y-81735000D03*
%TD*%
D37*
%TO.P,R22,1*%
%TO.N,Net-(U8-B1)*%
X156585600Y-107411600D03*
D38*
%TO.P,R22,2*%
%TO.N,Net-(U8-B2)*%
X156585600Y-108159122D03*
%TO.P,R22,3*%
%TO.N,Net-(U8-B3)*%
X156585600Y-108652644D03*
%TO.P,R22,4*%
%TO.N,Net-(U8-B4)*%
X156585600Y-109146166D03*
%TO.P,R22,5*%
%TO.N,Net-(U8-B5)*%
X156585600Y-109639688D03*
%TO.P,R22,6*%
%TO.N,Net-(U8-B6)*%
X156585600Y-110133210D03*
%TO.P,R22,7*%
%TO.N,Net-(U8-B7)*%
X156585600Y-110626732D03*
D37*
%TO.P,R22,8*%
%TO.N,Net-(U8-B8)*%
X156585600Y-111374000D03*
%TO.P,R22,9*%
%TO.N,/Buffer/CLK_IND*%
X158414400Y-111374000D03*
D38*
%TO.P,R22,10*%
%TO.N,/Buffer/RES_IND*%
X158414400Y-110626732D03*
%TO.P,R22,11*%
%TO.N,/Buffer/CLK_IN4*%
X158414400Y-110133210D03*
%TO.P,R22,12*%
%TO.N,/Buffer/CLK_IN5*%
X158414400Y-109639688D03*
%TO.P,R22,13*%
%TO.N,/Buffer/CLK_IN6*%
X158414400Y-109146166D03*
%TO.P,R22,14*%
%TO.N,/Buffer/CLK_IN1*%
X158414400Y-108652644D03*
%TO.P,R22,15*%
%TO.N,/Buffer/CLK_IN2*%
X158414400Y-108159122D03*
D37*
%TO.P,R22,16*%
%TO.N,/Buffer/CLK_IN3*%
X158414400Y-107411600D03*
%TD*%
D31*
%TO.P,C1,1*%
%TO.N,/AnalogSupply/VSUP*%
X90500000Y-77950000D03*
%TO.P,C1,2*%
%TO.N,GND*%
X90500000Y-79500000D03*
%TD*%
D11*
%TO.P,J2,1,1*%
%TO.N,/ADC/AVSS*%
X79000000Y-104540000D03*
D12*
%TO.P,J2,2,2*%
%TO.N,/ADC/IN6*%
X79000000Y-102000000D03*
%TO.P,J2,3,3*%
%TO.N,/ADC/IN5*%
X79000000Y-99460000D03*
%TO.P,J2,4,4*%
%TO.N,/ADC/IN4*%
X79000000Y-96920000D03*
%TO.P,J2,5,5*%
%TO.N,/ADC/IN3*%
X79000000Y-94380000D03*
%TO.P,J2,6,6*%
%TO.N,/ADC/IN2*%
X79000000Y-91840000D03*
%TO.P,J2,7,7*%
%TO.N,/ADC/IN1*%
X79000000Y-89300000D03*
%TD*%
%TO.P,J12,1,1*%
%TO.N,/ADC/IOVDD*%
X167275000Y-131235000D03*
%TO.P,J12,2,2*%
%TO.N,Net-(U5-\u002A1CLR)*%
X164735000Y-131235000D03*
D11*
%TO.P,J12,3,3*%
%TO.N,/ADC/IOVDD*%
X167275000Y-133775000D03*
D12*
%TO.P,J12,4,4*%
%TO.N,Net-(U6-VDD)*%
X164735000Y-133775000D03*
%TD*%
D37*
%TO.P,R21,1*%
%TO.N,Net-(U7-B1)*%
X156671200Y-92537600D03*
D38*
%TO.P,R21,2*%
%TO.N,Net-(U7-B2)*%
X156671200Y-93285122D03*
%TO.P,R21,3*%
%TO.N,Net-(U7-B3)*%
X156671200Y-93778644D03*
%TO.P,R21,4*%
%TO.N,Net-(U7-B4)*%
X156671200Y-94272166D03*
%TO.P,R21,5*%
%TO.N,Net-(U7-B5)*%
X156671200Y-94765688D03*
%TO.P,R21,6*%
%TO.N,Net-(U7-B6)*%
X156671200Y-95259210D03*
%TO.P,R21,7*%
%TO.N,Net-(U7-B7)*%
X156671200Y-95752732D03*
D37*
%TO.P,R21,8*%
%TO.N,Net-(U7-B8)*%
X156671200Y-96500000D03*
%TO.P,R21,9*%
%TO.N,unconnected-(R21-Pad9)*%
X158500000Y-96500000D03*
D38*
%TO.P,R21,10*%
%TO.N,unconnected-(R21-Pad10)*%
X158500000Y-95752732D03*
%TO.P,R21,11*%
%TO.N,/Buffer/DO6*%
X158500000Y-95259210D03*
%TO.P,R21,12*%
%TO.N,/Buffer/DO5*%
X158500000Y-94765688D03*
%TO.P,R21,13*%
%TO.N,/Buffer/DO4*%
X158500000Y-94272166D03*
%TO.P,R21,14*%
%TO.N,/Buffer/DO3*%
X158500000Y-93778644D03*
%TO.P,R21,15*%
%TO.N,/Buffer/DO2*%
X158500000Y-93285122D03*
D37*
%TO.P,R21,16*%
%TO.N,/Buffer/DO1*%
X158500000Y-92537600D03*
%TD*%
D24*
%TO.P,L1,1,1*%
%TO.N,/AnalogSupply/VA*%
X93749300Y-76000000D03*
%TO.P,L1,2,2*%
%TO.N,/AnalogSupply/VSUP*%
X92250700Y-76000000D03*
%TD*%
D39*
%TO.P,J14,1,1*%
%TO.N,/AnalogSupply/VSUP*%
X79000000Y-65499999D03*
%TO.P,J14,2,2*%
%TO.N,GND*%
X79000000Y-69000000D03*
%TO.P,J14,3,3*%
X79000000Y-72500000D03*
%TO.P,J14,4,4*%
%TO.N,/ADC/AVSS*%
X79000000Y-76000001D03*
%TD*%
D35*
%TO.P,R17,1,1*%
%TO.N,Net-(R17-Pad1)*%
X128730000Y-77000000D03*
D36*
%TO.P,R17,2,2*%
%TO.N,/ADC/VREF*%
X126230000Y-74500000D03*
%TO.P,R17,3,3*%
%TO.N,Net-(R16-Pad2)*%
X128730000Y-72000000D03*
%TD*%
D40*
%TO.P,C8,1*%
%TO.N,/AnalogSupply/VSUP*%
X132275000Y-69000000D03*
%TO.P,C8,2*%
%TO.N,GND*%
X130725000Y-69000000D03*
%TD*%
D11*
%TO.P,J8,A1,A1*%
%TO.N,Net-(J6-Signal)*%
X90960000Y-103920000D03*
D12*
%TO.P,J8,A2,A2*%
%TO.N,Net-(J7-Signal)*%
X90960000Y-106460000D03*
%TO.P,J8,A3,A3*%
%TO.N,Net-(J6-Signal)*%
X90960000Y-109000000D03*
%TO.P,J8,A4,A4*%
%TO.N,Net-(J7-Signal)*%
X90960000Y-111540000D03*
%TO.P,J8,A5,A5*%
%TO.N,Net-(J6-Signal)*%
X90960000Y-114080000D03*
%TO.P,J8,A6,A6*%
%TO.N,Net-(J7-Signal)*%
X90960000Y-116620000D03*
%TO.P,J8,B1,B1*%
%TO.N,/ADC/IN1*%
X93500000Y-103920000D03*
%TO.P,J8,B2,B2*%
%TO.N,/ADC/IN2*%
X93500000Y-106460000D03*
%TO.P,J8,B3,B3*%
%TO.N,/ADC/IN3*%
X93500000Y-109000000D03*
%TO.P,J8,B4,B4*%
%TO.N,/ADC/IN4*%
X93500000Y-111540000D03*
%TO.P,J8,B5,B5*%
%TO.N,/ADC/IN5*%
X93500000Y-114080000D03*
%TO.P,J8,B6,B6*%
%TO.N,/ADC/IN6*%
X93500000Y-116620000D03*
%TD*%
D37*
%TO.P,R19,1*%
%TO.N,/ADC/OUT1*%
X142585600Y-91911600D03*
D38*
%TO.P,R19,2*%
%TO.N,/ADC/OUT2*%
X142585600Y-92659122D03*
%TO.P,R19,3*%
%TO.N,/ADC/OUT3*%
X142585600Y-93152644D03*
%TO.P,R19,4*%
%TO.N,/ADC/OUT4*%
X142585600Y-93646166D03*
%TO.P,R19,5*%
%TO.N,/ADC/OUT5*%
X142585600Y-94139688D03*
%TO.P,R19,6*%
%TO.N,/ADC/OUT6*%
X142585600Y-94633210D03*
%TO.P,R19,7*%
%TO.N,GND*%
X142585600Y-95126732D03*
D37*
%TO.P,R19,8*%
X142585600Y-95874000D03*
%TO.P,R19,9*%
%TO.N,Net-(U7-A8)*%
X144414400Y-95874000D03*
D38*
%TO.P,R19,10*%
%TO.N,Net-(U7-A7)*%
X144414400Y-95126732D03*
%TO.P,R19,11*%
%TO.N,Net-(U7-A6)*%
X144414400Y-94633210D03*
%TO.P,R19,12*%
%TO.N,Net-(U7-A5)*%
X144414400Y-94139688D03*
%TO.P,R19,13*%
%TO.N,Net-(U7-A4)*%
X144414400Y-93646166D03*
%TO.P,R19,14*%
%TO.N,Net-(U7-A3)*%
X144414400Y-93152644D03*
%TO.P,R19,15*%
%TO.N,Net-(U7-A2)*%
X144414400Y-92659122D03*
D37*
%TO.P,R19,16*%
%TO.N,Net-(U7-A1)*%
X144414400Y-91911600D03*
%TD*%
D35*
%TO.P,R8,1*%
%TO.N,unconnected-(R8-Pad1)*%
X136730000Y-77000000D03*
D36*
%TO.P,R8,2*%
%TO.N,Net-(U4-FB)*%
X134230000Y-74500000D03*
%TO.P,R8,3*%
%TO.N,Net-(R7-Pad2)*%
X136730000Y-72000000D03*
%TD*%
D37*
%TO.P,R20,1*%
%TO.N,/ADC/CK3*%
X142171200Y-107158234D03*
D38*
%TO.P,R20,2*%
%TO.N,/ADC/CK2*%
X142171200Y-107905756D03*
%TO.P,R20,3*%
%TO.N,/ADC/CK1*%
X142171200Y-108399278D03*
%TO.P,R20,4*%
%TO.N,/ADC/CK6*%
X142171200Y-108892800D03*
%TO.P,R20,5*%
%TO.N,/ADC/CK5*%
X142171200Y-109386322D03*
%TO.P,R20,6*%
%TO.N,/ADC/CK4*%
X142171200Y-109879844D03*
%TO.P,R20,7*%
%TO.N,/Buffer/RESX*%
X142171200Y-110373366D03*
D37*
%TO.P,R20,8*%
%TO.N,/Buffer/CLKX*%
X142171200Y-111120634D03*
%TO.P,R20,9*%
%TO.N,Net-(U8-A8)*%
X144000000Y-111120634D03*
D38*
%TO.P,R20,10*%
%TO.N,Net-(U8-A7)*%
X144000000Y-110373366D03*
%TO.P,R20,11*%
%TO.N,Net-(U8-A6)*%
X144000000Y-109879844D03*
%TO.P,R20,12*%
%TO.N,Net-(U8-A5)*%
X144000000Y-109386322D03*
%TO.P,R20,13*%
%TO.N,Net-(U8-A4)*%
X144000000Y-108892800D03*
%TO.P,R20,14*%
%TO.N,Net-(U8-A3)*%
X144000000Y-108399278D03*
%TO.P,R20,15*%
%TO.N,Net-(U8-A2)*%
X144000000Y-107905756D03*
D37*
%TO.P,R20,16*%
%TO.N,Net-(U8-A1)*%
X144000000Y-107158234D03*
%TD*%
D13*
%TO.P,R12,1*%
%TO.N,/ADC/IN3*%
X106000000Y-92500000D03*
%TO.P,R12,2*%
%TO.N,Net-(ADC1-IN3)*%
X107020000Y-92500000D03*
%TD*%
D11*
%TO.P,J3,1,1*%
%TO.N,GND*%
X167500000Y-121160000D03*
D12*
%TO.P,J3,2,2*%
%TO.N,/Buffer/CLK_IND*%
X167500000Y-118620000D03*
%TO.P,J3,3,3*%
%TO.N,/Buffer/RES_IND*%
X167500000Y-116080000D03*
%TO.P,J3,4,4*%
%TO.N,/Buffer/CLK_IN4*%
X167500000Y-113540000D03*
%TO.P,J3,5,5*%
%TO.N,/Buffer/CLK_IN5*%
X167500000Y-111000000D03*
%TO.P,J3,6,6*%
%TO.N,/Buffer/CLK_IN6*%
X167500000Y-108460000D03*
%TO.P,J3,7,7*%
%TO.N,/Buffer/CLK_IN1*%
X167500000Y-105920000D03*
%TO.P,J3,8,8*%
%TO.N,/Buffer/CLK_IN2*%
X167500000Y-103380000D03*
%TO.P,J3,9,9*%
%TO.N,/Buffer/CLK_IN3*%
X167500000Y-100840000D03*
%TD*%
D41*
%TO.N,/ADC/VLDO*%
X122000000Y-96500000D03*
D42*
X133000000Y-66000000D03*
D41*
%TO.N,/ADC/VLO*%
X105000000Y-70627000D03*
D42*
X108000000Y-66000000D03*
D41*
%TO.N,/ADC/AVDD*%
X120173000Y-97000000D03*
D42*
X102000000Y-66000000D03*
D41*
X103500000Y-80010000D03*
%TO.N,Net-(ADC1-IN6)*%
X109000000Y-105000000D03*
%TO.N,/ADC/VHI*%
X107649999Y-71388750D03*
X108000000Y-77000000D03*
X107000000Y-72500000D03*
D42*
X114500000Y-66000000D03*
D41*
%TO.N,Net-(ADC1-IN2)*%
X108000000Y-90000000D03*
%TO.N,Net-(ADC1-IN4)*%
X109000000Y-100000000D03*
%TO.N,/ADC/OUT2*%
X137000000Y-100000000D03*
%TO.N,/ADC/OUT6*%
X141000000Y-102000000D03*
%TO.N,/ADC/OUT4*%
X139000000Y-101000000D03*
D42*
%TO.N,/ADC/VREF*%
X139500000Y-66000000D03*
D41*
X120827000Y-95750000D03*
%TO.N,Net-(ADC1-IN1)*%
X108000000Y-87500000D03*
%TO.N,Net-(ADC1-VDD)*%
X124000000Y-99850000D03*
%TO.N,/ADC/OUT3*%
X138000000Y-100500000D03*
%TO.N,Net-(ADC1-IN3)*%
X108000000Y-92500000D03*
%TO.N,/ADC/OUT1*%
X136000000Y-99500000D03*
%TO.N,Net-(ADC1-IN5)*%
X109000000Y-102500000D03*
D43*
%TO.N,Net-(ADC1-IOVDD-Pad29)*%
X142980000Y-81980000D03*
D41*
X123000000Y-97000000D03*
%TO.N,/ADC/OUT5*%
X140000000Y-101500000D03*
D43*
%TO.N,Net-(ADC1-IOVDD-Pad21)*%
X149250000Y-82750000D03*
D41*
X126968891Y-104080314D03*
D42*
%TO.N,/AnalogSupply/VSUP*%
X152500000Y-66000000D03*
D43*
%TO.N,GND*%
X109700578Y-81799422D03*
X150000000Y-106392800D03*
X151500000Y-132500000D03*
D41*
X148000000Y-122500000D03*
D43*
X132000000Y-73500000D03*
X127000000Y-94143000D03*
D41*
X143295000Y-68295000D03*
D43*
X121000000Y-103500000D03*
X148500000Y-132500000D03*
X151000000Y-92392800D03*
X96500000Y-77500000D03*
X91500000Y-79725000D03*
D41*
X153000000Y-128000000D03*
D43*
X142500000Y-72000000D03*
D41*
X107000000Y-74500000D03*
D42*
%TO.N,/AnalogSupply/VA*%
X88500000Y-66000000D03*
X96000000Y-70000000D03*
D41*
%TO.N,/ADC/AVSS*%
X111500000Y-109000000D03*
X111500000Y-88000000D03*
X111500000Y-101000000D03*
X111500000Y-92000000D03*
X111500000Y-104500000D03*
X120000000Y-90000000D03*
D43*
X131500000Y-81000000D03*
D41*
X98000000Y-75000000D03*
X111500000Y-96500000D03*
D42*
%TO.N,/ADC/IOVDD*%
X159000000Y-66000000D03*
D43*
%TO.N,/Buffer/VCC*%
X153000000Y-104392800D03*
X153500000Y-89892800D03*
D41*
%TO.N,Net-(U5-\u002A1CLR)*%
X156000000Y-127000000D03*
X151250000Y-123250000D03*
X155500000Y-123000000D03*
D42*
X157500000Y-124000000D03*
D41*
X152250000Y-121750000D03*
%TO.N,Net-(U6-VDD)*%
X155310000Y-133500000D03*
D42*
X158000000Y-136000000D03*
D41*
%TO.N,Net-(U6-M)*%
X150500000Y-137000000D03*
D42*
%TO.N,Net-(U1-FB)*%
X95000000Y-66000000D03*
D41*
%TO.N,Net-(U2-+IN)*%
X108019375Y-75480625D03*
X105500000Y-76500000D03*
D42*
X110000000Y-72000000D03*
X120500000Y-66000000D03*
D41*
%TO.N,Net-(U3-+IN)*%
X107000000Y-79350001D03*
D42*
X126500000Y-66000000D03*
%TO.N,/ADC/VDD*%
X165000000Y-66000000D03*
%TO.N,Net-(U4-FB)*%
X146000000Y-66000000D03*
D41*
X143500000Y-72000000D03*
%TO.N,/ADC/IN1*%
X99500000Y-86530000D03*
%TO.N,/ADC/IN2*%
X99500000Y-89070000D03*
%TO.N,/ADC/IN3*%
X99500000Y-91610000D03*
%TO.N,/ADC/IN4*%
X99500000Y-94390000D03*
%TO.N,/ADC/IN5*%
X99500000Y-96690000D03*
%TO.N,/ADC/IN6*%
X99500000Y-103000000D03*
D43*
%TO.N,Net-(R17-Pad1)*%
X128500000Y-81000000D03*
%TD*%
D44*
%TO.N,/ADC/CK5*%
X112500000Y-129000000D02*
X110500000Y-127000000D01*
X117000000Y-114000000D02*
X122750000Y-108250000D01*
X139500000Y-111463822D02*
X139500000Y-125000000D01*
X142171200Y-109386322D02*
X141577500Y-109386322D01*
X139500000Y-125000000D02*
X135500000Y-129000000D01*
X114260000Y-120320000D02*
X117000000Y-117580000D01*
X110500000Y-124080000D02*
X114260000Y-120320000D01*
X110500000Y-127000000D02*
X110500000Y-124080000D01*
X114260000Y-120320000D02*
X114720000Y-120320000D01*
X141577500Y-109386322D02*
X139500000Y-111463822D01*
X117000000Y-117580000D02*
X117000000Y-114000000D01*
X122750000Y-108250000D02*
X122750000Y-104750000D01*
X135500000Y-129000000D02*
X112500000Y-129000000D01*
D45*
%TO.N,/ADC/VLDO*%
X126120000Y-92380000D02*
X129500000Y-92380000D01*
X122000000Y-96500000D02*
X126120000Y-92380000D01*
X122000000Y-96500000D02*
X121250000Y-97250000D01*
X121250000Y-97250000D02*
X121250000Y-99850000D01*
%TO.N,/ADC/VLO*%
X109000000Y-83538749D02*
X109000000Y-92200000D01*
X107020000Y-75336002D02*
X107020000Y-77480000D01*
X109000000Y-92200000D02*
X114260000Y-97460000D01*
X106819949Y-80799998D02*
X105519951Y-79500000D01*
X114260000Y-97850000D02*
X115410000Y-99000000D01*
X115410000Y-99000000D02*
X115410000Y-99660000D01*
X115410000Y-99660000D02*
X118300000Y-102550000D01*
X107222500Y-81761249D02*
X107222500Y-80799998D01*
X114260000Y-97460000D02*
X114260000Y-97850000D01*
X105519951Y-79500000D02*
X105000000Y-79500000D01*
X105500000Y-73816002D02*
X107020000Y-75336002D01*
X107222500Y-80799998D02*
X106819949Y-80799998D01*
X118300000Y-102550000D02*
X119550000Y-102550000D01*
X109000000Y-83538749D02*
X107222500Y-81761249D01*
X107020000Y-77480000D02*
X105000000Y-79500000D01*
X105500000Y-71127000D02*
X105500000Y-73816002D01*
X105000000Y-70627000D02*
X105500000Y-71127000D01*
D46*
%TO.N,/ADC/AVDD*%
X103500000Y-80010000D02*
X103490000Y-80000000D01*
D44*
X97474999Y-78150001D02*
X97474999Y-78484999D01*
D45*
X120250000Y-99850000D02*
X120250000Y-93750000D01*
X126700000Y-87300000D02*
X129500000Y-87300000D01*
X120250000Y-93750000D02*
X126700000Y-87300000D01*
D47*
X99000000Y-80010000D02*
X103500000Y-80010000D01*
X98500000Y-79510000D02*
X99000000Y-80010000D01*
D44*
X97474999Y-78484999D02*
X98500000Y-79510000D01*
%TO.N,Net-(ADC1-IN6)*%
X119550000Y-104050000D02*
X115290000Y-104050000D01*
X115290000Y-104050000D02*
X114260000Y-105080000D01*
X109000000Y-105000000D02*
X107000000Y-105000000D01*
D45*
%TO.N,Net-(ADC1-VSS)*%
X119000000Y-114500000D02*
X119000000Y-120660000D01*
X123750000Y-104750000D02*
X123750000Y-109750000D01*
X123750000Y-109750000D02*
X119000000Y-114500000D01*
X119000000Y-120660000D02*
X114260000Y-125400000D01*
%TO.N,/ADC/VHI*%
X107000000Y-72500000D02*
X107500000Y-72500000D01*
X107500000Y-72500000D02*
X107649999Y-72350001D01*
X118653870Y-102050000D02*
X116500000Y-99896130D01*
X106723101Y-72500000D02*
X107000000Y-72500000D01*
X116500000Y-99896130D02*
X116500000Y-97160000D01*
X112500000Y-83500000D02*
X107980000Y-78980000D01*
X107649999Y-72350001D02*
X107649999Y-71388750D01*
X106350001Y-73611250D02*
X106350001Y-72873100D01*
X119550000Y-102050000D02*
X118653870Y-102050000D01*
X107980000Y-78980000D02*
X107980000Y-76500000D01*
X112500000Y-93160000D02*
X112500000Y-83500000D01*
X106350001Y-72873100D02*
X106723101Y-72500000D01*
X114260000Y-94920000D02*
X112500000Y-93160000D01*
X116500000Y-97160000D02*
X114260000Y-94920000D01*
D44*
%TO.N,Net-(ADC1-IN2)*%
X118500000Y-100399999D02*
X118500000Y-94080000D01*
X118500000Y-94080000D02*
X114260000Y-89840000D01*
X119550000Y-101050000D02*
X119150001Y-101050000D01*
X119150001Y-101050000D02*
X118500000Y-100399999D01*
X108000000Y-90000000D02*
X107020000Y-90000000D01*
%TO.N,Net-(ADC1-IN4)*%
X117310000Y-103050000D02*
X114260000Y-100000000D01*
X119550000Y-103050000D02*
X117310000Y-103050000D01*
X107020000Y-100000000D02*
X109000000Y-100000000D01*
%TO.N,/ADC/OUT2*%
X127827000Y-103327000D02*
X127827000Y-108487000D01*
X124450000Y-101050000D02*
X125550000Y-101050000D01*
X125550000Y-101050000D02*
X127827000Y-103327000D01*
X137000000Y-100000000D02*
X137000000Y-95500000D01*
X127827000Y-108487000D02*
X129500000Y-110160000D01*
X139840878Y-92659122D02*
X142585600Y-92659122D01*
X137000000Y-95500000D02*
X139840878Y-92659122D01*
%TO.N,/ADC/OUT6*%
X141960826Y-94633210D02*
X142585600Y-94633210D01*
X124450000Y-104050000D02*
X124450000Y-120350000D01*
X124450000Y-120350000D02*
X129500000Y-125400000D01*
X141000000Y-102000000D02*
X141000000Y-95594036D01*
X141000000Y-95594036D02*
X141960826Y-94633210D01*
%TO.N,/ADC/OUT4*%
X124450000Y-103050000D02*
X124812447Y-103050000D01*
X126000000Y-116820000D02*
X129500000Y-120320000D01*
X139000000Y-95500000D02*
X140853834Y-93646166D01*
X124812447Y-103050000D02*
X126000000Y-104237553D01*
X140853834Y-93646166D02*
X142585600Y-93646166D01*
X126000000Y-104237553D02*
X126000000Y-116820000D01*
X139000000Y-101000000D02*
X139000000Y-95500000D01*
%TO.N,/ADC/CK1*%
X123477001Y-99223000D02*
X126183000Y-99223000D01*
X126183000Y-99223000D02*
X129500000Y-102540000D01*
X123250000Y-99850000D02*
X123250000Y-99450001D01*
X135718222Y-102540000D02*
X129500000Y-102540000D01*
X141577500Y-108399278D02*
X135718222Y-102540000D01*
X123250000Y-99450001D02*
X123477001Y-99223000D01*
X142171200Y-108399278D02*
X141577500Y-108399278D01*
%TO.N,/ADC/CK4*%
X140500000Y-110957344D02*
X140500000Y-125500000D01*
X122250000Y-107500000D02*
X122250000Y-104750000D01*
X140500000Y-125500000D02*
X136000000Y-130000000D01*
X114260000Y-117780000D02*
X114720000Y-117780000D01*
X116000000Y-116040000D02*
X116000000Y-113750000D01*
X114260000Y-117780000D02*
X116000000Y-116040000D01*
X136000000Y-130000000D02*
X112000000Y-130000000D01*
X116000000Y-113750000D02*
X122250000Y-107500000D01*
X141577500Y-109879844D02*
X140500000Y-110957344D01*
X109500000Y-122540000D02*
X114260000Y-117780000D01*
X109500000Y-127500000D02*
X109500000Y-122540000D01*
X112000000Y-130000000D02*
X109500000Y-127500000D01*
X142171200Y-109879844D02*
X141577500Y-109879844D01*
D45*
%TO.N,/ADC/VREF*%
X126230000Y-82000000D02*
X126230000Y-74500000D01*
X126660000Y-89840000D02*
X120750000Y-95750000D01*
X129500000Y-89840000D02*
X126660000Y-89840000D01*
X120750000Y-95750000D02*
X120750000Y-99850000D01*
X130650000Y-86420000D02*
X126230000Y-82000000D01*
X130650000Y-86420000D02*
X130650000Y-88690000D01*
X130650000Y-88690000D02*
X129500000Y-89840000D01*
D44*
%TO.N,Net-(ADC1-IN1)*%
X108000000Y-87500000D02*
X107020000Y-87500000D01*
X119550000Y-100550000D02*
X119000000Y-100000000D01*
X119000000Y-100000000D02*
X119000000Y-92040000D01*
X119000000Y-92040000D02*
X114260000Y-87300000D01*
%TO.N,Net-(ADC1-VDD)*%
X123750000Y-99850000D02*
X124000000Y-99850000D01*
X128500000Y-103000000D02*
X128500000Y-104080000D01*
X128500000Y-104080000D02*
X129500000Y-105080000D01*
X125350000Y-99850000D02*
X128500000Y-103000000D01*
X124000000Y-99850000D02*
X125350000Y-99850000D01*
D45*
%TO.N,Net-(ADC1-PAD)*%
X120250000Y-104750000D02*
X117380000Y-107620000D01*
X117380000Y-107620000D02*
X114260000Y-107620000D01*
D44*
%TO.N,/ADC/OUT3*%
X138000000Y-95500000D02*
X140347356Y-93152644D01*
X129500000Y-112700000D02*
X127500000Y-110700000D01*
X138000000Y-100500000D02*
X138000000Y-95500000D01*
X140347356Y-93152644D02*
X142585600Y-93152644D01*
X127500000Y-110700000D02*
X127500000Y-103712448D01*
X127500000Y-103712448D02*
X125337552Y-101550000D01*
X125337552Y-101550000D02*
X124450000Y-101550000D01*
%TO.N,/ADC/CK2*%
X122750000Y-99350001D02*
X123600001Y-98500000D01*
X123600001Y-98500000D02*
X128000000Y-98500000D01*
X133671744Y-100000000D02*
X129500000Y-100000000D01*
X141577500Y-107905756D02*
X133671744Y-100000000D01*
X128000000Y-98500000D02*
X129500000Y-100000000D01*
X122750000Y-99850000D02*
X122750000Y-99350001D01*
X142171200Y-107905756D02*
X141577500Y-107905756D01*
%TO.N,Net-(ADC1-IN3)*%
X118000000Y-100399999D02*
X118000000Y-96120000D01*
X118000000Y-96120000D02*
X114260000Y-92380000D01*
X119550000Y-101550000D02*
X119150001Y-101550000D01*
X108000000Y-92500000D02*
X107020000Y-92500000D01*
X119150001Y-101550000D02*
X118000000Y-100399999D01*
%TO.N,/ADC/OUT1*%
X124450000Y-100550000D02*
X125550000Y-100550000D01*
X139588400Y-91911600D02*
X142585600Y-91911600D01*
X125550000Y-100550000D02*
X128173000Y-103173000D01*
X128173000Y-103173000D02*
X128173000Y-106293000D01*
X136000000Y-99500000D02*
X136000000Y-95500000D01*
X128173000Y-106293000D02*
X129500000Y-107620000D01*
X136000000Y-95500000D02*
X139588400Y-91911600D01*
%TO.N,Net-(ADC1-IN5)*%
X115270000Y-103550000D02*
X114260000Y-102540000D01*
X119550000Y-103550000D02*
X115270000Y-103550000D01*
X109000000Y-102500000D02*
X107010000Y-102500000D01*
D45*
%TO.N,Net-(ADC1-IOVDD-Pad29)*%
X129500000Y-94920000D02*
X125080000Y-94920000D01*
X123000000Y-97000000D02*
X121750000Y-98250000D01*
X142980000Y-81980000D02*
X148460000Y-76500000D01*
X130040000Y-94920000D02*
X129500000Y-94920000D01*
X142980000Y-81980000D02*
X130040000Y-94920000D01*
X125080000Y-94920000D02*
X123000000Y-97000000D01*
X121750000Y-98250000D02*
X121750000Y-99850000D01*
D44*
%TO.N,Net-(ADC1-IOVSS-Pad20)*%
X124450000Y-102550000D02*
X124849999Y-102550000D01*
X126446000Y-104146001D02*
X126446000Y-104418292D01*
X126446000Y-104418292D02*
X126500000Y-104472292D01*
X126500000Y-114780000D02*
X129500000Y-117780000D01*
X124849999Y-102550000D02*
X126446000Y-104146001D01*
X126500000Y-104472292D02*
X126500000Y-114780000D01*
%TO.N,/ADC/OUT5*%
X125077000Y-104234146D02*
X125500000Y-104657146D01*
X124849999Y-103550000D02*
X125077000Y-103777001D01*
X124450000Y-103550000D02*
X124849999Y-103550000D01*
X140000000Y-101500000D02*
X140000000Y-95407897D01*
X141268209Y-94139688D02*
X142585600Y-94139688D01*
X140000000Y-95407897D02*
X141268209Y-94139688D01*
X125500000Y-104657146D02*
X125500000Y-118860000D01*
X125500000Y-118860000D02*
X129500000Y-122860000D01*
X125077000Y-103777001D02*
X125077000Y-104234146D01*
%TO.N,Net-(ADC1-IOVSS-Pad12)*%
X115360000Y-114140000D02*
X115360000Y-113140000D01*
X115360000Y-113140000D02*
X121750000Y-106750000D01*
X121750000Y-106750000D02*
X121750000Y-104750000D01*
X114260000Y-115240000D02*
X115360000Y-114140000D01*
%TO.N,/ADC/CK6*%
X118000000Y-119120000D02*
X118000000Y-114500000D01*
X123250000Y-109250000D02*
X123250000Y-104750000D01*
X141577500Y-108892800D02*
X138500000Y-111970300D01*
X112000000Y-125120000D02*
X114260000Y-122860000D01*
X112000000Y-126500000D02*
X112000000Y-125120000D01*
X138500000Y-111970300D02*
X138500000Y-124500000D01*
X113500000Y-128000000D02*
X112000000Y-126500000D01*
X138500000Y-124500000D02*
X135000000Y-128000000D01*
X114260000Y-122860000D02*
X118000000Y-119120000D01*
X142171200Y-108892800D02*
X141577500Y-108892800D01*
X135000000Y-128000000D02*
X113500000Y-128000000D01*
X118000000Y-114500000D02*
X123250000Y-109250000D01*
D45*
%TO.N,Net-(ADC1-AVSS)*%
X115739999Y-110160000D02*
X114260000Y-110160000D01*
X120750000Y-105149999D02*
X115739999Y-110160000D01*
X120750000Y-104750000D02*
X120750000Y-105149999D01*
D44*
%TO.N,/ADC/CK3*%
X129240000Y-97277552D02*
X129240000Y-97460000D01*
X132472966Y-97460000D02*
X129500000Y-97460000D01*
X122250000Y-99850000D02*
X122250000Y-98750000D01*
X123540000Y-97460000D02*
X129500000Y-97460000D01*
X142171200Y-107158234D02*
X132472966Y-97460000D01*
X122250000Y-98750000D02*
X123540000Y-97460000D01*
D45*
%TO.N,Net-(ADC1-IOVDD-Pad21)*%
X149250000Y-82750000D02*
X151000000Y-81000000D01*
D44*
X127000000Y-112740000D02*
X129500000Y-115240000D01*
X124849999Y-102050000D02*
X127000000Y-104200001D01*
X124450000Y-102050000D02*
X124849999Y-102050000D01*
X127000000Y-104200001D02*
X127000000Y-112740000D01*
D45*
X151000000Y-81000000D02*
X151000000Y-76500000D01*
D44*
%TO.N,/ADC/RES*%
X121250000Y-105750000D02*
X121250000Y-104750000D01*
X108500000Y-131540000D02*
X108500000Y-129000000D01*
X111735000Y-132235000D02*
X108500000Y-129000000D01*
X114300000Y-112700000D02*
X121250000Y-105750000D01*
X108500000Y-118460000D02*
X114260000Y-112700000D01*
X111735000Y-134775000D02*
X108500000Y-131540000D01*
X108500000Y-129000000D02*
X108500000Y-118460000D01*
X114260000Y-112700000D02*
X114300000Y-112700000D01*
D48*
%TO.N,/AnalogSupply/VSUP*%
X90500000Y-77950000D02*
X90225000Y-78225000D01*
X92250700Y-71148700D02*
X89000000Y-67898000D01*
D46*
X149500000Y-66000000D02*
X148500000Y-67000000D01*
X139296900Y-68703100D02*
X137547600Y-68703100D01*
D48*
X84398000Y-67898000D02*
X89000000Y-67898000D01*
D46*
X137547600Y-68703100D02*
X137250700Y-69000000D01*
X152500000Y-66000000D02*
X149500000Y-66000000D01*
D48*
X79000000Y-65499999D02*
X81999999Y-65499999D01*
D46*
X148500000Y-67000000D02*
X141000000Y-67000000D01*
D48*
X90225000Y-78225000D02*
X82510000Y-78225000D01*
D46*
X141000000Y-67000000D02*
X139296900Y-68703100D01*
D48*
X131309146Y-67898000D02*
X91000000Y-67898000D01*
X132275000Y-68863854D02*
X131309146Y-67898000D01*
X132275000Y-69000000D02*
X132275000Y-68863854D01*
X92250700Y-76000000D02*
X92250700Y-71148700D01*
X137750700Y-69500000D02*
X137250700Y-69000000D01*
X82510000Y-78225000D02*
X79000000Y-81735000D01*
X89000000Y-67898000D02*
X91000000Y-67898000D01*
X90500000Y-77750700D02*
X92250700Y-76000000D01*
X90500000Y-77950000D02*
X90500000Y-77750700D01*
X81999999Y-65499999D02*
X84398000Y-67898000D01*
X137250700Y-69000000D02*
X132275000Y-69000000D01*
D46*
%TO.N,GND*%
X143500000Y-68500000D02*
X143295000Y-68295000D01*
X153155000Y-91725001D02*
X151667799Y-91725001D01*
D44*
X93275000Y-79500000D02*
X93000000Y-79225000D01*
D45*
X151500000Y-132500000D02*
X150230000Y-131230000D01*
X148436201Y-96924998D02*
X151000000Y-94361199D01*
X147690000Y-120072400D02*
X147690000Y-122190000D01*
X147690000Y-130036200D02*
X147690000Y-131690000D01*
D46*
X91275000Y-79500000D02*
X91500000Y-79725000D01*
D45*
X107000000Y-73611250D02*
X107000000Y-74500000D01*
D47*
X141500000Y-68225000D02*
X143225000Y-68225000D01*
D44*
X142585600Y-95126732D02*
X142585600Y-95874000D01*
D45*
X109700578Y-81799422D02*
X108051155Y-80149999D01*
D46*
X97149999Y-76850001D02*
X96500000Y-77500000D01*
D45*
X148960000Y-134963800D02*
X147690000Y-134963800D01*
D46*
X122000000Y-102500000D02*
X121000000Y-103500000D01*
D45*
X150000000Y-110136598D02*
X150000000Y-106392800D01*
D46*
X97474999Y-76850001D02*
X97149999Y-76850001D01*
D45*
X154040000Y-130036200D02*
X154040000Y-129040000D01*
X151000000Y-94361199D02*
X151000000Y-92392800D01*
X147690000Y-134963800D02*
X147690000Y-133310000D01*
X147690000Y-131690000D02*
X148500000Y-132500000D01*
D46*
X151667799Y-91725001D02*
X151000000Y-92392800D01*
D45*
X149575000Y-105967800D02*
X150000000Y-106392800D01*
D46*
X130725000Y-72225000D02*
X130725000Y-69000000D01*
D45*
X147690000Y-133310000D02*
X148500000Y-132500000D01*
X108051155Y-80149999D02*
X107222500Y-80149999D01*
D46*
X93000000Y-79225000D02*
X92000000Y-79225000D01*
D45*
X150230000Y-131230000D02*
X150230000Y-130036200D01*
X147516200Y-96924998D02*
X148436201Y-96924998D01*
D46*
X132000000Y-74980000D02*
X132000000Y-73500000D01*
D44*
X142585600Y-95874000D02*
X143636598Y-96924998D01*
D45*
X148318800Y-111817798D02*
X150000000Y-110136598D01*
X147690000Y-122190000D02*
X148000000Y-122500000D01*
D46*
X122000000Y-102300000D02*
X122000000Y-102500000D01*
D45*
X150000000Y-106392800D02*
X150225001Y-106617801D01*
X147180600Y-105967800D02*
X149575000Y-105967800D01*
X152287400Y-132500000D02*
X154040000Y-130747400D01*
D46*
X92000000Y-79225000D02*
X91500000Y-79725000D01*
D45*
X147690000Y-130036200D02*
X148960000Y-130036200D01*
D44*
X94000000Y-79500000D02*
X93275000Y-79500000D01*
D45*
X151500000Y-132500000D02*
X152287400Y-132500000D01*
D44*
X143636598Y-96924998D02*
X147516200Y-96924998D01*
D46*
X90500000Y-79500000D02*
X91275000Y-79500000D01*
X143175000Y-71350001D02*
X142525001Y-72000000D01*
X143500000Y-71350001D02*
X143175000Y-71350001D01*
D45*
X154040000Y-130747400D02*
X154040000Y-130036200D01*
D47*
X143225000Y-68225000D02*
X143295000Y-68295000D01*
D45*
X147180600Y-111817798D02*
X148318800Y-111817798D01*
X150225001Y-106617801D02*
X152819400Y-106617801D01*
D46*
X143500000Y-69020000D02*
X143500000Y-68500000D01*
X132000000Y-73500000D02*
X130725000Y-72225000D01*
D48*
X142525001Y-72000000D02*
X142500000Y-72000000D01*
D45*
X154040000Y-129040000D02*
X153000000Y-128000000D01*
D47*
%TO.N,/AnalogSupply/VA*%
X94599301Y-76850001D02*
X93749300Y-76000000D01*
D46*
X107000000Y-71388750D02*
X106350001Y-71388750D01*
X95525001Y-78479000D02*
X98546001Y-81500000D01*
X103500000Y-70000000D02*
X103500000Y-70038749D01*
X96000000Y-70000000D02*
X103500000Y-70000000D01*
X106350001Y-71388750D02*
X106350001Y-70149999D01*
X95525001Y-78150001D02*
X95525001Y-78479000D01*
X95525001Y-78150001D02*
X94200001Y-78150001D01*
D47*
X93749300Y-72250700D02*
X93749300Y-76000000D01*
D46*
X94000000Y-77449302D02*
X94599301Y-76850001D01*
D47*
X96000000Y-70000000D02*
X93749300Y-72250700D01*
D46*
X103500000Y-70000000D02*
X106500000Y-70000000D01*
X106350001Y-70149999D02*
X106500000Y-70000000D01*
X106500000Y-70000000D02*
X122990000Y-70000000D01*
X98546001Y-81500000D02*
X104299998Y-81500000D01*
D47*
X95525001Y-76850001D02*
X94599301Y-76850001D01*
D46*
X105000000Y-80799998D02*
X105000000Y-80149999D01*
X94000000Y-77950000D02*
X94000000Y-77449302D01*
X94200001Y-78150001D02*
X94000000Y-77950000D01*
X104299998Y-81500000D02*
X105000000Y-80799998D01*
%TO.N,/ADC/AVSS*%
X131500000Y-81000000D02*
X130990000Y-81000000D01*
D45*
X98500000Y-74990000D02*
X98010000Y-74990000D01*
X98010000Y-74990000D02*
X98000000Y-75000000D01*
D46*
X130990000Y-81000000D02*
X130500000Y-80510000D01*
%TO.N,/ADC/IOVDD*%
X140998003Y-72476999D02*
X140998003Y-70276997D01*
X148460000Y-73960000D02*
X144480000Y-69980000D01*
X139249300Y-69500000D02*
X139700001Y-69500000D01*
X152040000Y-68960000D02*
X145500000Y-68960000D01*
X141705000Y-69980000D02*
X141500000Y-69775000D01*
X144480000Y-69980000D02*
X141705000Y-69980000D01*
X155000000Y-66000000D02*
X152040000Y-68960000D01*
X141550002Y-72650001D02*
X141171005Y-72650001D01*
X140998003Y-70276997D02*
X141500000Y-69775000D01*
X139700001Y-69500000D02*
X141550002Y-71350001D01*
X145500000Y-68960000D02*
X144480000Y-69980000D01*
X159000000Y-66000000D02*
X155000000Y-66000000D01*
X141171005Y-72650001D02*
X140998003Y-72476999D01*
%TO.N,/Buffer/VCC*%
X153500000Y-90730002D02*
X153155000Y-91075002D01*
X153154998Y-91075000D02*
X153155000Y-91075002D01*
X147516200Y-91075000D02*
X153154998Y-91075000D01*
D45*
X152819400Y-104573400D02*
X152819400Y-105967802D01*
X153000000Y-104392800D02*
X152819400Y-104573400D01*
D46*
X153500000Y-89892800D02*
X153500000Y-90730002D01*
D45*
%TO.N,Net-(U5-\u002A1CLR)*%
X150230000Y-124270000D02*
X150230000Y-125000000D01*
X155310000Y-122810000D02*
X155500000Y-123000000D01*
X157500000Y-125500000D02*
X156000000Y-127000000D01*
X156000000Y-123500000D02*
X155500000Y-123000000D01*
X155310000Y-120072400D02*
X155310000Y-122810000D01*
X151500000Y-121000000D02*
X151500000Y-120072400D01*
X157500000Y-124000000D02*
X157500000Y-125500000D01*
X154040000Y-125000000D02*
X154040000Y-123540000D01*
X156000000Y-127000000D02*
X156000000Y-125690000D01*
X156000000Y-125690000D02*
X155310000Y-125000000D01*
X154040000Y-123540000D02*
X152250000Y-121750000D01*
X151250000Y-123250000D02*
X150230000Y-124270000D01*
X152250000Y-121750000D02*
X151500000Y-121000000D01*
X156000000Y-125690000D02*
X156000000Y-123500000D01*
D46*
%TO.N,Net-(U6-VDD)*%
X155310000Y-133500000D02*
X155310000Y-134963800D01*
D44*
%TO.N,Net-(J7-Signal)*%
X80500000Y-116500000D02*
X87000000Y-116500000D01*
X88920000Y-113580000D02*
X88920000Y-108500000D01*
X90840000Y-116500000D02*
X90960000Y-116620000D01*
X87000000Y-116500000D02*
X90840000Y-116500000D01*
X87000000Y-116500000D02*
X87500000Y-116500000D01*
X88920000Y-108500000D02*
X90960000Y-106460000D01*
X87500000Y-116500000D02*
X88920000Y-115080000D01*
X88920000Y-115080000D02*
X88920000Y-113580000D01*
X88920000Y-113580000D02*
X90960000Y-111540000D01*
%TO.N,/Buffer/RESX*%
X154040000Y-119618400D02*
X152421600Y-118000000D01*
X142171200Y-110373366D02*
X141626634Y-110373366D01*
X154040000Y-120072400D02*
X154040000Y-119618400D01*
X149513014Y-118000000D02*
X143379300Y-111866286D01*
X142703432Y-110373366D02*
X142171200Y-110373366D01*
X134765000Y-132235000D02*
X114275000Y-132235000D01*
X152421600Y-118000000D02*
X149513014Y-118000000D01*
X141550500Y-125449500D02*
X134765000Y-132235000D01*
X141626634Y-110373366D02*
X141550500Y-110449500D01*
X141550500Y-110449500D02*
X141550500Y-125449500D01*
X143379300Y-111049234D02*
X142703432Y-110373366D01*
X143379300Y-111866286D02*
X143379300Y-111049234D01*
%TO.N,Net-(U6-M)*%
X151500000Y-134963800D02*
X151500000Y-135675000D01*
X151500000Y-136000000D02*
X151500000Y-134963800D01*
X150500000Y-137000000D02*
X151500000Y-136000000D01*
D46*
%TO.N,Net-(R1-Pad2)*%
X99990000Y-77000000D02*
X104230000Y-77000000D01*
X98500000Y-78490000D02*
X99990000Y-77000000D01*
%TO.N,Net-(U1-FB)*%
X98500000Y-76010000D02*
X100220000Y-76010000D01*
D44*
X98500000Y-76549999D02*
X98500000Y-76010000D01*
X97549999Y-77500000D02*
X98500000Y-76549999D01*
X97474999Y-77500000D02*
X97549999Y-77500000D01*
D46*
X100220000Y-76010000D02*
X101730000Y-74500000D01*
D44*
%TO.N,Net-(U2-+IN)*%
X107649999Y-75111249D02*
X108019375Y-75480625D01*
D46*
X112730000Y-77000000D02*
X109538749Y-77000000D01*
X104510000Y-78990000D02*
X103500000Y-78990000D01*
D45*
X112730000Y-77000000D02*
X112730000Y-74730000D01*
D46*
X105500000Y-78000000D02*
X104510000Y-78990000D01*
X109538749Y-77000000D02*
X108019375Y-75480625D01*
X105500000Y-76500000D02*
X105500000Y-78000000D01*
D45*
X112730000Y-74730000D02*
X110000000Y-72000000D01*
D44*
X107649999Y-73611250D02*
X107649999Y-75111249D01*
D46*
%TO.N,Net-(R7-Pad2)*%
X136730000Y-73230000D02*
X136730000Y-72000000D01*
X141990000Y-75500000D02*
X139000000Y-75500000D01*
X139000000Y-75500000D02*
X136730000Y-73230000D01*
%TO.N,/ADC/VDD*%
X143010000Y-75500000D02*
X143500000Y-75010000D01*
X143010000Y-75500000D02*
X143300000Y-75210000D01*
X165000000Y-66000000D02*
X161500000Y-66000000D01*
X161500000Y-66000000D02*
X153500000Y-74000000D01*
X152290000Y-75210000D02*
X153540000Y-73960000D01*
X143300000Y-75210000D02*
X152290000Y-75210000D01*
X143500000Y-75010000D02*
X143500000Y-72650001D01*
%TO.N,Net-(U4-FB)*%
X133500000Y-74500000D02*
X132000000Y-76000000D01*
X134230000Y-74500000D02*
X133500000Y-74500000D01*
D45*
%TO.N,/ADC/IN1*%
X79000000Y-89300000D02*
X87080000Y-89300000D01*
D44*
X90310000Y-86070000D02*
X91000000Y-85380000D01*
D45*
X87080000Y-89300000D02*
X91000000Y-85380000D01*
D44*
X92150000Y-86530000D02*
X91000000Y-85380000D01*
X99500000Y-86530000D02*
X92150000Y-86530000D01*
X99500000Y-86530000D02*
X105030000Y-86530000D01*
X105030000Y-86530000D02*
X106000000Y-87500000D01*
%TO.N,/ADC/IN2*%
X92150000Y-89070000D02*
X91000000Y-87920000D01*
X105070000Y-89070000D02*
X106000000Y-90000000D01*
D45*
X87080000Y-91840000D02*
X91000000Y-87920000D01*
X79000000Y-91840000D02*
X87080000Y-91840000D01*
D44*
X99500000Y-89070000D02*
X105070000Y-89070000D01*
X99500000Y-89070000D02*
X92150000Y-89070000D01*
%TO.N,/ADC/IN3*%
X99500000Y-91610000D02*
X105110000Y-91610000D01*
X99500000Y-91610000D02*
X92150000Y-91610000D01*
D45*
X79000000Y-94380000D02*
X87080000Y-94380000D01*
D44*
X92150000Y-91610000D02*
X91000000Y-90460000D01*
X105110000Y-91610000D02*
X106000000Y-92500000D01*
D45*
X87080000Y-94380000D02*
X91000000Y-90460000D01*
D44*
%TO.N,/ADC/IN4*%
X100390000Y-94390000D02*
X106000000Y-100000000D01*
D45*
X79000000Y-96920000D02*
X87080000Y-96920000D01*
D44*
X99500000Y-94390000D02*
X100390000Y-94390000D01*
X99500000Y-94390000D02*
X92390000Y-94390000D01*
X92390000Y-94390000D02*
X91000000Y-93000000D01*
D45*
X87080000Y-96920000D02*
X91000000Y-93000000D01*
%TO.N,/ADC/IN5*%
X79000000Y-99460000D02*
X87080000Y-99460000D01*
D44*
X99500000Y-96690000D02*
X100190000Y-96690000D01*
X100190000Y-96690000D02*
X105990000Y-102490000D01*
X91000000Y-95540000D02*
X92150000Y-96690000D01*
X105990000Y-102490000D02*
X105990000Y-102500000D01*
D45*
X87080000Y-99460000D02*
X91000000Y-95540000D01*
D44*
X92150000Y-96690000D02*
X99500000Y-96690000D01*
%TO.N,/ADC/IN6*%
X105980000Y-104980000D02*
X105980000Y-105000000D01*
D45*
X79000000Y-102000000D02*
X87080000Y-102000000D01*
D44*
X104000000Y-103000000D02*
X105980000Y-104980000D01*
X91000000Y-98080000D02*
X91290000Y-98080000D01*
X99500000Y-103000000D02*
X104000000Y-103000000D01*
X91290000Y-98080000D02*
X96210000Y-103000000D01*
X96210000Y-103000000D02*
X99500000Y-103000000D01*
D45*
X87080000Y-102000000D02*
X91000000Y-98080000D01*
D44*
%TO.N,/Buffer/CLK_IN1*%
X158414400Y-108652644D02*
X164767356Y-108652644D01*
X164767356Y-108652644D02*
X167500000Y-105920000D01*
%TO.N,/Buffer/CLK_IN2*%
X158414400Y-108159122D02*
X162720878Y-108159122D01*
X162720878Y-108159122D02*
X167500000Y-103380000D01*
%TO.N,/Buffer/CLK_IN3*%
X160928400Y-107411600D02*
X167500000Y-100840000D01*
X158414400Y-107411600D02*
X160928400Y-107411600D01*
%TO.N,/Buffer/CLK_IN4*%
X164093210Y-110133210D02*
X167500000Y-113540000D01*
X158414400Y-110133210D02*
X164093210Y-110133210D01*
%TO.N,/Buffer/CLK_IN5*%
X158414400Y-109639688D02*
X166139688Y-109639688D01*
X166139688Y-109639688D02*
X167500000Y-111000000D01*
%TO.N,/Buffer/CLK_IN6*%
X158414400Y-109146166D02*
X166813834Y-109146166D01*
X166813834Y-109146166D02*
X167500000Y-108460000D01*
%TO.N,/Buffer/RES_IND*%
X158414400Y-110626732D02*
X162046732Y-110626732D01*
X162046732Y-110626732D02*
X167500000Y-116080000D01*
%TO.N,/Buffer/CLK_IND*%
X158414400Y-111374000D02*
X160254000Y-111374000D01*
X160254000Y-111374000D02*
X167500000Y-118620000D01*
D46*
%TO.N,Net-(R16-Pad2)*%
X126730000Y-70000000D02*
X128730000Y-72000000D01*
X124010000Y-70000000D02*
X126730000Y-70000000D01*
%TO.N,Net-(R17-Pad1)*%
X130500000Y-79490000D02*
X130500000Y-78770000D01*
X130500000Y-78770000D02*
X128730000Y-77000000D01*
X130010000Y-79490000D02*
X130500000Y-79490000D01*
X128500000Y-81000000D02*
X130010000Y-79490000D01*
D44*
%TO.N,Net-(U5-\u002A1Q)*%
X149723600Y-120836000D02*
X149723600Y-132723600D01*
X150500000Y-133500000D02*
X151760200Y-133500000D01*
X152770000Y-134509800D02*
X152770000Y-134963800D01*
X149723600Y-132723600D02*
X150500000Y-133500000D01*
X151760200Y-133500000D02*
X152770000Y-134509800D01*
X148960000Y-120072400D02*
X149723600Y-120836000D01*
%TO.N,Net-(U5-1Q)*%
X150230000Y-120783600D02*
X152770000Y-123323600D01*
X150230000Y-120072400D02*
X150230000Y-120783600D01*
X152770000Y-123323600D02*
X152770000Y-125000000D01*
%TO.N,/Buffer/CLKX*%
X154546400Y-122276400D02*
X154546400Y-129272600D01*
X154546400Y-129272600D02*
X155310000Y-130036200D01*
X152006400Y-118854800D02*
X152770000Y-119618400D01*
X152770000Y-120072400D02*
X152770000Y-120500000D01*
X155310000Y-130036200D02*
X155463800Y-130036200D01*
X152770000Y-120500000D02*
X154546400Y-122276400D01*
X142171200Y-111120634D02*
X142171200Y-111671200D01*
X152770000Y-120783600D02*
X152770000Y-120072400D01*
X149354800Y-118854800D02*
X152006400Y-118854800D01*
X152770000Y-119618400D02*
X152770000Y-120072400D01*
X142171200Y-111671200D02*
X149354800Y-118854800D01*
X155463800Y-130036200D02*
X155500000Y-130000000D01*
%TO.N,Net-(U5-2CLK)*%
X152770000Y-129325000D02*
X151500000Y-128055000D01*
X151500000Y-128055000D02*
X151500000Y-125000000D01*
X152770000Y-130036200D02*
X152770000Y-129325000D01*
%TO.N,Net-(U5-2Q)*%
X148960000Y-126960000D02*
X148420000Y-127500000D01*
X146000000Y-128500000D02*
X146000000Y-136000000D01*
X148960000Y-125000000D02*
X148960000Y-126960000D01*
X148000000Y-138000000D02*
X151715000Y-138000000D01*
X147000000Y-127500000D02*
X146000000Y-128500000D01*
X148420000Y-127500000D02*
X147000000Y-127500000D01*
X154040000Y-135675000D02*
X154040000Y-134963800D01*
X146000000Y-136000000D02*
X148000000Y-138000000D01*
X151715000Y-138000000D02*
X154040000Y-135675000D01*
%TO.N,/Buffer/DO4*%
X158500000Y-94272166D02*
X160687834Y-94272166D01*
X160687834Y-94272166D02*
X167500000Y-87460000D01*
%TO.N,/Buffer/DO2*%
X167120000Y-82380000D02*
X167500000Y-82380000D01*
X161000000Y-91378822D02*
X161000000Y-88880000D01*
X158500000Y-93285122D02*
X159093700Y-93285122D01*
X161000000Y-88880000D02*
X167500000Y-82380000D01*
X159093700Y-93285122D02*
X161000000Y-91378822D01*
%TO.N,/Buffer/DO3*%
X159093700Y-93778644D02*
X167500000Y-85372344D01*
X167500000Y-85372344D02*
X167500000Y-84920000D01*
X158500000Y-93778644D02*
X159093700Y-93778644D01*
%TO.N,/Buffer/DO5*%
X158500000Y-94765688D02*
X162734312Y-94765688D01*
X162734312Y-94765688D02*
X167500000Y-90000000D01*
%TO.N,/Buffer/DO1*%
X158414400Y-92411600D02*
X158414400Y-88925600D01*
X158414400Y-88925600D02*
X167500000Y-79840000D01*
%TO.N,/Buffer/DO6*%
X164780790Y-95259210D02*
X167500000Y-92540000D01*
X158500000Y-95259210D02*
X164780790Y-95259210D01*
%TO.N,Net-(U8-A5)*%
X147180600Y-109217798D02*
X145668524Y-109217798D01*
X145500000Y-109386322D02*
X144000000Y-109386322D01*
X145668524Y-109217798D02*
X145500000Y-109386322D01*
%TO.N,Net-(U8-A2)*%
X145296402Y-107267799D02*
X147180600Y-107267799D01*
X144658445Y-107905756D02*
X145296402Y-107267799D01*
X144000000Y-107905756D02*
X144658445Y-107905756D01*
%TO.N,Net-(U8-A1)*%
X144540433Y-106617801D02*
X147180600Y-106617801D01*
X144000000Y-107158234D02*
X144540433Y-106617801D01*
%TO.N,Net-(U8-A8)*%
X147133435Y-111120634D02*
X147180600Y-111167799D01*
X144000000Y-111120634D02*
X147133435Y-111120634D01*
%TO.N,Net-(U8-A6)*%
X147168555Y-109879844D02*
X147180600Y-109867799D01*
X144000000Y-109879844D02*
X147168555Y-109879844D01*
%TO.N,Net-(U8-A4)*%
X145052625Y-108567799D02*
X147180600Y-108567799D01*
X144000000Y-108892800D02*
X144727624Y-108892800D01*
X144727624Y-108892800D02*
X145052625Y-108567799D01*
%TO.N,Net-(U8-A7)*%
X144494066Y-110373366D02*
X144000000Y-110373366D01*
X147180600Y-110517798D02*
X147162802Y-110500000D01*
X147162802Y-110500000D02*
X144620700Y-110500000D01*
X144620700Y-110500000D02*
X144494066Y-110373366D01*
%TO.N,Net-(U8-A3)*%
X145108848Y-107917801D02*
X147180600Y-107917801D01*
X144627371Y-108399278D02*
X145108848Y-107917801D01*
X144000000Y-108399278D02*
X144627371Y-108399278D01*
%TO.N,Net-(U7-A5)*%
X147516200Y-94324998D02*
X147497412Y-94306210D01*
X146000000Y-94306210D02*
X145833478Y-94139688D01*
X147497412Y-94306210D02*
X146000000Y-94306210D01*
X145833478Y-94139688D02*
X144414400Y-94139688D01*
%TO.N,Net-(U7-A1)*%
X144600999Y-91725001D02*
X144414400Y-91911600D01*
X147516200Y-91725001D02*
X144600999Y-91725001D01*
%TO.N,Net-(U7-A2)*%
X146478000Y-92374999D02*
X146193877Y-92659122D01*
X146193877Y-92659122D02*
X144414400Y-92659122D01*
X147516200Y-92374999D02*
X146478000Y-92374999D01*
%TO.N,Net-(U7-A6)*%
X145658211Y-94633210D02*
X146000000Y-94974999D01*
X144414400Y-94633210D02*
X145658211Y-94633210D01*
X146000000Y-94974999D02*
X147516200Y-94974999D01*
%TO.N,Net-(U7-A8)*%
X144414400Y-95874000D02*
X144815399Y-96274999D01*
X144815399Y-96274999D02*
X147516200Y-96274999D01*
%TO.N,Net-(U7-A3)*%
X145847356Y-93152644D02*
X144414400Y-93152644D01*
X145974999Y-93025001D02*
X145847356Y-93152644D01*
X147516200Y-93025001D02*
X145974999Y-93025001D01*
%TO.N,Net-(U7-A4)*%
X144414400Y-93646166D02*
X147487367Y-93646166D01*
X147487367Y-93646166D02*
X147516200Y-93674999D01*
%TO.N,Net-(U7-A7)*%
X145444898Y-95624998D02*
X144946632Y-95126732D01*
X147516200Y-95624998D02*
X145444898Y-95624998D01*
X144946632Y-95126732D02*
X144414400Y-95126732D01*
%TO.N,Net-(U8-B5)*%
X156585600Y-109639688D02*
X155000000Y-109639688D01*
X152880992Y-109806210D02*
X152819400Y-109867802D01*
X155000000Y-109639688D02*
X154833478Y-109806210D01*
X154833478Y-109806210D02*
X152880992Y-109806210D01*
%TO.N,Net-(U8-B4)*%
X156585600Y-109146166D02*
X152891035Y-109146166D01*
X152891035Y-109146166D02*
X152819400Y-109217801D01*
%TO.N,Net-(U8-B7)*%
X155776868Y-110626732D02*
X155235798Y-111167802D01*
X155235798Y-111167802D02*
X152819400Y-111167802D01*
X156585600Y-110626732D02*
X155776868Y-110626732D01*
%TO.N,Net-(U8-B1)*%
X154732198Y-107267802D02*
X152819400Y-107267802D01*
X156585600Y-107411600D02*
X156174000Y-107000000D01*
X156174000Y-107000000D02*
X155000000Y-107000000D01*
X155000000Y-107000000D02*
X154732198Y-107267802D01*
%TO.N,Net-(U8-B8)*%
X155182200Y-111817800D02*
X152819400Y-111817800D01*
X156585600Y-111374000D02*
X155626000Y-111374000D01*
X155626000Y-111374000D02*
X155182200Y-111817800D01*
%TO.N,Net-(U8-B2)*%
X156585600Y-108159122D02*
X155076923Y-108159122D01*
X154835602Y-107917801D02*
X152819400Y-107917801D01*
X155076923Y-108159122D02*
X154835602Y-107917801D01*
%TO.N,Net-(U8-B3)*%
X152904242Y-108652644D02*
X152819400Y-108567802D01*
X156585600Y-108652644D02*
X152904242Y-108652644D01*
%TO.N,Net-(U8-B6)*%
X156585600Y-110133210D02*
X155366790Y-110133210D01*
X154982199Y-110517801D02*
X152819400Y-110517801D01*
X155366790Y-110133210D02*
X154982199Y-110517801D01*
%TO.N,Net-(U7-B6)*%
X155896548Y-95259210D02*
X155530757Y-95625001D01*
X156671200Y-95259210D02*
X155896548Y-95259210D01*
X155530757Y-95625001D02*
X153155000Y-95625001D01*
%TO.N,Net-(U7-B7)*%
X155865474Y-95752732D02*
X155343204Y-96275002D01*
X155343204Y-96275002D02*
X153155000Y-96275002D01*
X156671200Y-95752732D02*
X155865474Y-95752732D01*
%TO.N,Net-(U7-B5)*%
X153155000Y-94975002D02*
X155718308Y-94975002D01*
X155927622Y-94765688D02*
X155718308Y-94975002D01*
X156671200Y-94765688D02*
X155927622Y-94765688D01*
%TO.N,Net-(U7-B2)*%
X156077500Y-93285122D02*
X155817379Y-93025001D01*
X156671200Y-93285122D02*
X156077500Y-93285122D01*
X155817379Y-93025001D02*
X153155000Y-93025001D01*
%TO.N,Net-(U7-B3)*%
X156062880Y-93675002D02*
X153155000Y-93675002D01*
X156166522Y-93778644D02*
X156062880Y-93675002D01*
X156671200Y-93778644D02*
X156166522Y-93778644D01*
D45*
X153177358Y-93652644D02*
X153155000Y-93675002D01*
D44*
%TO.N,Net-(U7-B4)*%
X153155000Y-94325001D02*
X153207835Y-94272166D01*
X153207835Y-94272166D02*
X156671200Y-94272166D01*
%TO.N,Net-(U7-B1)*%
X156549002Y-92375002D02*
X156585600Y-92411600D01*
X153155000Y-92375002D02*
X156549002Y-92375002D01*
%TO.N,Net-(U7-B8)*%
X156034600Y-96925000D02*
X153155000Y-96925000D01*
X156585600Y-96374000D02*
X156034600Y-96925000D01*
%TD*%
M02*
