%TF.GenerationSoftware,KiCad,Pcbnew,8.0.6-8.0.6-0~ubuntu24.04.1*%
%TF.CreationDate,2025-02-21T12:27:14-10:00*%
%TF.ProjectId,board_main,626f6172-645f-46d6-9169-6e2e6b696361,rev?*%
%TF.SameCoordinates,Original*%
%TF.FileFunction,Soldermask,Top*%
%TF.FilePolarity,Negative*%
%FSLAX46Y46*%
G04 Gerber Fmt 4.6, Leading zero omitted, Abs format (unit mm)*
G04 Created by KiCad (PCBNEW 8.0.6-8.0.6-0~ubuntu24.04.1) date 2025-02-21 12:27:14*
%MOMM*%
%LPD*%
G01*
G04 APERTURE LIST*
G04 Aperture macros list*
%AMRoundRect*
0 Rectangle with rounded corners*
0 $1 Rounding radius*
0 $2 $3 $4 $5 $6 $7 $8 $9 X,Y pos of 4 corners*
0 Add a 4 corners polygon primitive as box body*
4,1,4,$2,$3,$4,$5,$6,$7,$8,$9,$2,$3,0*
0 Add four circle primitives for the rounded corners*
1,1,$1+$1,$2,$3*
1,1,$1+$1,$4,$5*
1,1,$1+$1,$6,$7*
1,1,$1+$1,$8,$9*
0 Add four rect primitives between the rounded corners*
20,1,$1+$1,$2,$3,$4,$5,0*
20,1,$1+$1,$4,$5,$6,$7,0*
20,1,$1+$1,$6,$7,$8,$9,0*
20,1,$1+$1,$8,$9,$2,$3,0*%
G04 Aperture macros list end*
%ADD10C,1.500000*%
%ADD11R,1.700000X1.700000*%
%ADD12O,1.700000X1.700000*%
%ADD13RoundRect,0.135000X-0.135000X-0.185000X0.135000X-0.185000X0.135000X0.185000X-0.135000X0.185000X0*%
%ADD14R,1.676400X0.355600*%
%ADD15RoundRect,0.062500X-0.337500X-0.062500X0.337500X-0.062500X0.337500X0.062500X-0.337500X0.062500X0*%
%ADD16RoundRect,0.062500X-0.062500X-0.337500X0.062500X-0.337500X0.062500X0.337500X-0.062500X0.337500X0*%
%ADD17R,3.600000X3.600000*%
%ADD18C,1.651000*%
%ADD19C,1.905000*%
%ADD20RoundRect,0.135000X0.185000X-0.135000X0.185000X0.135000X-0.185000X0.135000X-0.185000X-0.135000X0*%
%ADD21R,0.558800X1.981200*%
%ADD22RoundRect,0.140000X-0.140000X-0.170000X0.140000X-0.170000X0.140000X0.170000X-0.140000X0.170000X0*%
%ADD23RoundRect,0.135000X-0.185000X0.135000X-0.185000X-0.135000X0.185000X-0.135000X0.185000X0.135000X0*%
%ADD24R,0.965200X0.939800*%
%ADD25R,0.449999X0.299999*%
%ADD26R,1.000000X1.599999*%
%ADD27R,1.600000X1.600000*%
%ADD28O,1.600000X1.600000*%
%ADD29R,0.876300X0.355600*%
%ADD30RoundRect,0.225000X0.250000X-0.225000X0.250000X0.225000X-0.250000X0.225000X-0.250000X-0.225000X0*%
%ADD31RoundRect,0.225000X-0.250000X0.225000X-0.250000X-0.225000X0.250000X-0.225000X0.250000X0.225000X0*%
%ADD32R,0.355600X0.876300*%
%ADD33RoundRect,0.140000X0.170000X-0.140000X0.170000X0.140000X-0.170000X0.140000X-0.170000X-0.140000X0*%
%ADD34RoundRect,0.135000X0.135000X0.185000X-0.135000X0.185000X-0.135000X-0.185000X0.135000X-0.185000X0*%
%ADD35RoundRect,0.102000X0.754000X-0.754000X0.754000X0.754000X-0.754000X0.754000X-0.754000X-0.754000X0*%
%ADD36C,1.712000*%
%ADD37R,0.787400X0.863600*%
%ADD38R,0.787400X0.355600*%
%ADD39C,1.727200*%
%ADD40RoundRect,0.225000X0.225000X0.250000X-0.225000X0.250000X-0.225000X-0.250000X0.225000X-0.250000X0*%
G04 APERTURE END LIST*
D10*
%TO.C,F6*%
X171500000Y-120500000D03*
%TD*%
%TO.C,F5*%
X70500000Y-97500000D03*
%TD*%
%TO.C,F4*%
X128500000Y-61000000D03*
%TD*%
%TO.C,F3*%
X171500000Y-116000000D03*
%TD*%
%TO.C,F2*%
X70500000Y-92500000D03*
%TD*%
%TO.C,F1*%
X122000000Y-61000000D03*
%TD*%
D11*
%TO.C,J11*%
X160000000Y-74225000D03*
D12*
X160000000Y-76765000D03*
%TD*%
D13*
%TO.C,R10*%
X106000000Y-87500000D03*
X107020000Y-87500000D03*
%TD*%
D11*
%TO.C,J9*%
X91000000Y-85380000D03*
D12*
X91000000Y-87920000D03*
X91000000Y-90460000D03*
X91000000Y-93000000D03*
X91000000Y-95540000D03*
X91000000Y-98080000D03*
X93540000Y-85380000D03*
X93540000Y-87920000D03*
X93540000Y-90460000D03*
X93540000Y-93000000D03*
X93540000Y-95540000D03*
X93540000Y-98080000D03*
%TD*%
D14*
%TO.C,U7*%
X147516200Y-91075000D03*
X147516200Y-91725001D03*
X147516200Y-92374999D03*
X147516200Y-93025001D03*
X147516200Y-93674999D03*
X147516200Y-94324998D03*
X147516200Y-94974999D03*
X147516200Y-95624998D03*
X147516200Y-96274999D03*
X147516200Y-96924998D03*
X153155000Y-96925000D03*
X153155000Y-96275002D03*
X153155000Y-95625001D03*
X153155000Y-94975002D03*
X153155000Y-94325001D03*
X153155000Y-93675002D03*
X153155000Y-93025001D03*
X153155000Y-92375002D03*
X153155000Y-91725001D03*
X153155000Y-91075002D03*
%TD*%
D15*
%TO.C,ADC1*%
X119550000Y-100550000D03*
X119550000Y-101050000D03*
X119550000Y-101550000D03*
X119550000Y-102050000D03*
X119550000Y-102550000D03*
X119550000Y-103050000D03*
X119550000Y-103550000D03*
X119550000Y-104050000D03*
D16*
X120250000Y-104750000D03*
X120750000Y-104750000D03*
X121250000Y-104750000D03*
X121750000Y-104750000D03*
X122250000Y-104750000D03*
X122750000Y-104750000D03*
X123250000Y-104750000D03*
X123750000Y-104750000D03*
D15*
X124450000Y-104050000D03*
X124450000Y-103550000D03*
X124450000Y-103050000D03*
X124450000Y-102550000D03*
X124450000Y-102050000D03*
X124450000Y-101550000D03*
X124450000Y-101050000D03*
X124450000Y-100550000D03*
D16*
X123750000Y-99850000D03*
X123250000Y-99850000D03*
X122750000Y-99850000D03*
X122250000Y-99850000D03*
X121750000Y-99850000D03*
X121250000Y-99850000D03*
X120750000Y-99850000D03*
X120250000Y-99850000D03*
D17*
X122000000Y-102300000D03*
%TD*%
D18*
%TO.C,J7*%
X80500000Y-116500000D03*
D19*
X83040000Y-113960000D03*
X77960000Y-113960000D03*
X77960000Y-119040000D03*
X83040000Y-119040000D03*
%TD*%
D14*
%TO.C,U8*%
X147180600Y-105967800D03*
X147180600Y-106617801D03*
X147180600Y-107267799D03*
X147180600Y-107917801D03*
X147180600Y-108567799D03*
X147180600Y-109217798D03*
X147180600Y-109867799D03*
X147180600Y-110517798D03*
X147180600Y-111167799D03*
X147180600Y-111817798D03*
X152819400Y-111817800D03*
X152819400Y-111167802D03*
X152819400Y-110517801D03*
X152819400Y-109867802D03*
X152819400Y-109217801D03*
X152819400Y-108567802D03*
X152819400Y-107917801D03*
X152819400Y-107267802D03*
X152819400Y-106617801D03*
X152819400Y-105967802D03*
%TD*%
D18*
%TO.C,J6*%
X80500000Y-131500000D03*
D19*
X83040000Y-128960000D03*
X77960000Y-128960000D03*
X77960000Y-134040000D03*
X83040000Y-134040000D03*
%TD*%
D20*
%TO.C,R1*%
X98500000Y-79510000D03*
X98500000Y-78490000D03*
%TD*%
D21*
%TO.C,U5*%
X155310000Y-120072400D03*
X154040000Y-120072400D03*
X152770000Y-120072400D03*
X151500000Y-120072400D03*
X150230000Y-120072400D03*
X148960000Y-120072400D03*
X147690000Y-120072400D03*
X147690000Y-125000000D03*
X148960000Y-125000000D03*
X150230000Y-125000000D03*
X151500000Y-125000000D03*
X152770000Y-125000000D03*
X154040000Y-125000000D03*
X155310000Y-125000000D03*
%TD*%
%TO.C,U6*%
X155310000Y-130036200D03*
X154040000Y-130036200D03*
X152770000Y-130036200D03*
X151500000Y-130036200D03*
X150230000Y-130036200D03*
X148960000Y-130036200D03*
X147690000Y-130036200D03*
X147690000Y-134963800D03*
X148960000Y-134963800D03*
X150230000Y-134963800D03*
X151500000Y-134963800D03*
X152770000Y-134963800D03*
X154040000Y-134963800D03*
X155310000Y-134963800D03*
%TD*%
D22*
%TO.C,C6*%
X107020000Y-76500000D03*
X107980000Y-76500000D03*
%TD*%
D12*
%TO.C,J13*%
X114275000Y-132235000D03*
X111735000Y-134775000D03*
D11*
X114275000Y-134775000D03*
D12*
X111735000Y-132235000D03*
%TD*%
D13*
%TO.C,R13*%
X106000000Y-100000000D03*
X107020000Y-100000000D03*
%TD*%
D23*
%TO.C,R3*%
X98500000Y-74990000D03*
X98500000Y-76010000D03*
%TD*%
D20*
%TO.C,R9*%
X132000000Y-76000000D03*
X132000000Y-74980000D03*
%TD*%
D24*
%TO.C,L2*%
X139249300Y-69500000D03*
X137750700Y-69500000D03*
%TD*%
D25*
%TO.C,U1*%
X97474999Y-78150001D03*
X97474999Y-77500000D03*
X97474999Y-76850001D03*
X95525001Y-76850001D03*
X95525001Y-77500000D03*
X95525001Y-78150001D03*
D26*
X96500000Y-77500000D03*
%TD*%
D27*
%TO.C,ADC2*%
X114260000Y-87300000D03*
D28*
X114260000Y-89840000D03*
X114260000Y-92380000D03*
X114260000Y-94920000D03*
X114260000Y-97460000D03*
X114260000Y-100000000D03*
X114260000Y-102540000D03*
X114260000Y-105080000D03*
X114260000Y-107620000D03*
X114260000Y-110160000D03*
X114260000Y-112700000D03*
X114260000Y-115240000D03*
X114260000Y-117780000D03*
X114260000Y-120320000D03*
X114260000Y-122860000D03*
X114260000Y-125400000D03*
X129500000Y-125400000D03*
X129500000Y-122860000D03*
X129500000Y-120320000D03*
X129500000Y-117780000D03*
X129500000Y-115240000D03*
X129500000Y-112700000D03*
X129500000Y-110160000D03*
X129500000Y-107620000D03*
X129500000Y-105080000D03*
X129500000Y-102540000D03*
X129500000Y-100000000D03*
X129500000Y-97460000D03*
X129500000Y-94920000D03*
X129500000Y-92380000D03*
X129500000Y-89840000D03*
X129500000Y-87300000D03*
%TD*%
D11*
%TO.C,J10*%
X91000000Y-122650000D03*
D12*
X91000000Y-125190000D03*
X91000000Y-127730000D03*
X91000000Y-130270000D03*
X91000000Y-132810000D03*
X91000000Y-135350000D03*
X93540000Y-122650000D03*
X93540000Y-125190000D03*
X93540000Y-127730000D03*
X93540000Y-130270000D03*
X93540000Y-132810000D03*
X93540000Y-135350000D03*
%TD*%
D29*
%TO.C,U3*%
X107222500Y-80799998D03*
X107222500Y-80149999D03*
X107222500Y-79500000D03*
X105000000Y-79500000D03*
X105000000Y-80149999D03*
X105000000Y-80799998D03*
%TD*%
D30*
%TO.C,C9*%
X141500000Y-69775000D03*
X141500000Y-68225000D03*
%TD*%
D31*
%TO.C,C2*%
X94000000Y-77950000D03*
X94000000Y-79500000D03*
%TD*%
D23*
%TO.C,R18*%
X130500000Y-79490000D03*
X130500000Y-80510000D03*
%TD*%
D13*
%TO.C,R14*%
X105990000Y-102500000D03*
X107010000Y-102500000D03*
%TD*%
D32*
%TO.C,U2*%
X106350001Y-73611250D03*
X107000000Y-73611250D03*
X107649999Y-73611250D03*
X107649999Y-71388750D03*
X107000000Y-71388750D03*
X106350001Y-71388750D03*
%TD*%
D11*
%TO.C,J4*%
X167500000Y-79840000D03*
D12*
X167500000Y-82380000D03*
X167500000Y-84920000D03*
X167500000Y-87460000D03*
X167500000Y-90000000D03*
X167500000Y-92540000D03*
X167500000Y-95080000D03*
%TD*%
D33*
%TO.C,C10*%
X143500000Y-69980000D03*
X143500000Y-69020000D03*
%TD*%
D12*
%TO.C,J5*%
X148460000Y-73960000D03*
X151000000Y-73960000D03*
D11*
X153540000Y-73960000D03*
D12*
X148460000Y-76500000D03*
X151000000Y-76500000D03*
X153540000Y-76500000D03*
%TD*%
D34*
%TO.C,R7*%
X143010000Y-75500000D03*
X141990000Y-75500000D03*
%TD*%
D20*
%TO.C,R4*%
X103500000Y-80010000D03*
X103500000Y-78990000D03*
%TD*%
D13*
%TO.C,R11*%
X106000000Y-90000000D03*
X107020000Y-90000000D03*
%TD*%
D35*
%TO.C,R5*%
X112730000Y-77000000D03*
D36*
X110230000Y-74500000D03*
X112730000Y-72000000D03*
%TD*%
D35*
%TO.C,R2*%
X104230000Y-77000000D03*
D36*
X101730000Y-74500000D03*
X104230000Y-72000000D03*
%TD*%
D13*
%TO.C,R16*%
X122990000Y-70000000D03*
X124010000Y-70000000D03*
%TD*%
D35*
%TO.C,R6*%
X120730000Y-77000000D03*
D36*
X118230000Y-74500000D03*
X120730000Y-72000000D03*
%TD*%
D25*
%TO.C,U4*%
X143500000Y-72650001D03*
X143500000Y-72000000D03*
X143500000Y-71350001D03*
X141550002Y-71350001D03*
X141550002Y-72000000D03*
X141550002Y-72650001D03*
D26*
X142525001Y-72000000D03*
%TD*%
D13*
%TO.C,R15*%
X105980000Y-105000000D03*
X107000000Y-105000000D03*
%TD*%
D11*
%TO.C,J1*%
X79000000Y-84275000D03*
D12*
X79000000Y-81735000D03*
%TD*%
D37*
%TO.C,R22*%
X156585600Y-107411600D03*
D38*
X156585600Y-108159122D03*
X156585600Y-108652644D03*
X156585600Y-109146166D03*
X156585600Y-109639688D03*
X156585600Y-110133210D03*
X156585600Y-110626732D03*
D37*
X156585600Y-111374000D03*
X158414400Y-111374000D03*
D38*
X158414400Y-110626732D03*
X158414400Y-110133210D03*
X158414400Y-109639688D03*
X158414400Y-109146166D03*
X158414400Y-108652644D03*
X158414400Y-108159122D03*
D37*
X158414400Y-107411600D03*
%TD*%
D31*
%TO.C,C1*%
X90500000Y-77950000D03*
X90500000Y-79500000D03*
%TD*%
D11*
%TO.C,J2*%
X79000000Y-104540000D03*
D12*
X79000000Y-102000000D03*
X79000000Y-99460000D03*
X79000000Y-96920000D03*
X79000000Y-94380000D03*
X79000000Y-91840000D03*
X79000000Y-89300000D03*
%TD*%
%TO.C,J12*%
X167275000Y-131235000D03*
X164735000Y-131235000D03*
D11*
X167275000Y-133775000D03*
D12*
X164735000Y-133775000D03*
%TD*%
D37*
%TO.C,R21*%
X156671200Y-92537600D03*
D38*
X156671200Y-93285122D03*
X156671200Y-93778644D03*
X156671200Y-94272166D03*
X156671200Y-94765688D03*
X156671200Y-95259210D03*
X156671200Y-95752732D03*
D37*
X156671200Y-96500000D03*
X158500000Y-96500000D03*
D38*
X158500000Y-95752732D03*
X158500000Y-95259210D03*
X158500000Y-94765688D03*
X158500000Y-94272166D03*
X158500000Y-93778644D03*
X158500000Y-93285122D03*
D37*
X158500000Y-92537600D03*
%TD*%
D24*
%TO.C,L1*%
X93749300Y-76000000D03*
X92250700Y-76000000D03*
%TD*%
D39*
%TO.C,J14*%
X79000000Y-65499999D03*
X79000000Y-69000000D03*
X79000000Y-72500000D03*
X79000000Y-76000001D03*
%TD*%
D35*
%TO.C,R17*%
X128730000Y-77000000D03*
D36*
X126230000Y-74500000D03*
X128730000Y-72000000D03*
%TD*%
D40*
%TO.C,C8*%
X132275000Y-69000000D03*
X130725000Y-69000000D03*
%TD*%
D11*
%TO.C,J8*%
X90960000Y-103920000D03*
D12*
X90960000Y-106460000D03*
X90960000Y-109000000D03*
X90960000Y-111540000D03*
X90960000Y-114080000D03*
X90960000Y-116620000D03*
X93500000Y-103920000D03*
X93500000Y-106460000D03*
X93500000Y-109000000D03*
X93500000Y-111540000D03*
X93500000Y-114080000D03*
X93500000Y-116620000D03*
%TD*%
D37*
%TO.C,R19*%
X142585600Y-91911600D03*
D38*
X142585600Y-92659122D03*
X142585600Y-93152644D03*
X142585600Y-93646166D03*
X142585600Y-94139688D03*
X142585600Y-94633210D03*
X142585600Y-95126732D03*
D37*
X142585600Y-95874000D03*
X144414400Y-95874000D03*
D38*
X144414400Y-95126732D03*
X144414400Y-94633210D03*
X144414400Y-94139688D03*
X144414400Y-93646166D03*
X144414400Y-93152644D03*
X144414400Y-92659122D03*
D37*
X144414400Y-91911600D03*
%TD*%
D35*
%TO.C,R8*%
X136730000Y-77000000D03*
D36*
X134230000Y-74500000D03*
X136730000Y-72000000D03*
%TD*%
D37*
%TO.C,R20*%
X142171200Y-107158234D03*
D38*
X142171200Y-107905756D03*
X142171200Y-108399278D03*
X142171200Y-108892800D03*
X142171200Y-109386322D03*
X142171200Y-109879844D03*
X142171200Y-110373366D03*
D37*
X142171200Y-111120634D03*
X144000000Y-111120634D03*
D38*
X144000000Y-110373366D03*
X144000000Y-109879844D03*
X144000000Y-109386322D03*
X144000000Y-108892800D03*
X144000000Y-108399278D03*
X144000000Y-107905756D03*
D37*
X144000000Y-107158234D03*
%TD*%
D13*
%TO.C,R12*%
X106000000Y-92500000D03*
X107020000Y-92500000D03*
%TD*%
D11*
%TO.C,J3*%
X167500000Y-121160000D03*
D12*
X167500000Y-118620000D03*
X167500000Y-116080000D03*
X167500000Y-113540000D03*
X167500000Y-111000000D03*
X167500000Y-108460000D03*
X167500000Y-105920000D03*
X167500000Y-103380000D03*
X167500000Y-100840000D03*
%TD*%
M02*
